<?xml version="1.0" encoding="UTF-8" standalone="no"?>
<!-- Created with Inkscape (http://www.inkscape.org/) -->

<svg
   version="1.1"
   id="svg48"
   width="666.66669"
   height="666.66669"
   viewBox="0 0 666.66669 666.66669"
   xmlns="http://www.w3.org/2000/svg"
   xmlns:svg="http://www.w3.org/2000/svg">
  <defs
     id="defs52" />
  <g
     id="g54">
    <path
       style="fill:#000000;stroke-width:1.33333"
       d="m 312.15762,595.081 c -4.50538,-12.06631 -11.10369,-33.70203 -10.55096,-34.59638 0.39276,-0.63549 2.10784,-1.15545 3.8113,-1.15545 2.70861,0 3.55969,1.42185 6.78385,11.33333 2.02768,6.23334 3.87541,11.33334 4.10608,11.33334 0.23067,0 1.05589,-2.36382 1.83385,-5.25292 1.40844,-5.23054 5.05186,-7.91586 8.14578,-6.00371 0.81472,0.50352 2.40585,3.09225 3.53585,5.75273 1.13001,2.66047 2.2626,4.23723 2.51688,3.5039 0.25428,-0.73334 1.55907,-5.83334 2.89953,-11.33334 2.2246,-9.12761 2.74923,-10.0368 6.01375,-10.42189 4.48819,-0.52944 4.58311,1.31476 0.83382,16.19975 -5.72259,22.71906 -4.85763,20.88881 -9.87194,20.88881 -4.02452,0 -4.69435,-0.54008 -6.20116,-5 l -1.68928,-5 -1.52621,5.33333 c -1.3228,4.62252 -2.09003,5.38911 -5.75662,5.75183 -2.59796,0.257 -4.48282,-0.25751 -4.88452,-1.33333 z m -55.27826,-4.56975 c -4.73956,-1.03593 -9.05446,-2.32568 -9.58867,-2.86612 -1.32996,-1.34549 5.98153,-35.65958 7.5872,-35.60802 0.70703,0.0227 5.66557,0.87418 11.01897,1.89215 9.28183,1.76497 9.71491,2.01053 9.33334,5.29205 -0.43072,3.70422 -2.77452,4.21236 -11.25656,2.44051 -3.7074,-0.77447 -4.26219,-0.49631 -4.81894,2.41611 -0.50222,2.62722 0.0216,3.45465 2.59595,4.10077 2.54193,0.63799 3.13907,1.55168 2.81893,4.3133 -0.3283,2.83208 -1.02702,3.43485 -3.64445,3.14401 -3.16955,-0.3522 -5.36725,1.50099 -5.40799,4.56017 -0.0107,0.84352 2.98144,2.25382 6.65036,3.13398 7.54332,1.80961 8.17038,2.37712 7.1094,6.43429 -0.86153,3.29452 -0.76722,3.28884 -12.39754,0.7468 z m 98.046,-10.75173 c 1.64617,-23.00713 2.0748,-24.77235 6.28887,-25.89938 3.29468,-0.88113 4.06628,-0.43109 6.86658,4.00487 1.73515,2.74864 5.9138,10.49104 9.28592,17.20531 l 6.13111,12.20777 -3.54135,0.88881 c -3.3749,0.84706 -6.07481,-1.01624 -7.44988,-5.14141 -0.25849,-0.77549 -2.1968,-0.79844 -5.04808,-0.0597 -3.69646,0.95762 -4.76398,1.98752 -5.30146,5.1146 -0.53276,3.09962 -1.45396,4.0052 -4.4209,4.34586 l -3.7479,0.43035 0.93709,-13.09701 z m 12.52897,-6.09702 c -0.0233,-0.91666 -0.92333,-2.83134 -2,-4.25484 -1.85297,-2.44985 -1.9576,-2.36077 -1.9576,1.66667 0,2.89319 0.64006,4.25484 2,4.25484 1.1,0 1.98092,-0.75 1.9576,-1.66667 z m -143.52175,7.40579 c -4.76465,-0.92809 -9.76919,-6.91528 -9.76919,-11.6874 0,-3.5657 3.61207,-15.90086 7.3358,-25.05172 1.15227,-2.83163 5.7911,-3.0894 6.83095,-0.37959 0.41235,1.07456 -0.80648,6.6266 -2.70851,12.33788 -4.13725,12.42303 -4.25153,14.52332 -0.88816,16.32335 4.40916,2.35972 6.50644,0.16525 10.07074,-10.53736 4.30409,-12.92399 5.72093,-14.87783 9.67277,-13.3388 l 2.98024,1.16064 -4.12445,11.71694 c -5.4356,15.44175 -5.95003,16.28875 -11.23387,18.49649 -2.48409,1.03792 -4.6858,1.80541 -4.89268,1.70554 -0.20689,-0.0999 -1.68003,-0.43556 -3.27364,-0.74597 z m 165.91818,-12.73912 c -12.68824,-17.65348 -12.37211,-17.08082 -10.19152,-18.46199 3.88079,-2.45804 6.28028,-0.89819 12.50416,8.12865 3.53936,5.13334 6.71467,9.33334 7.05625,9.33334 0.34158,0 0.1984,-5.4026 -0.31816,-12.00578 -0.9179,-11.73362 -0.8689,-12.0327 2.16136,-13.19402 1.7053,-0.65354 3.54928,-0.77222 4.09774,-0.26371 0.54845,0.50851 1.3905,9.12567 1.87122,19.14925 l 0.87404,18.22471 -3.62469,1.37811 c -1.99359,0.75796 -3.84585,1.37811 -4.11616,1.37811 -0.27031,0 -4.91172,-6.15 -10.31424,-13.66667 z M 192.16339,567.743 c -5.13333,-2.60075 -9.60344,-4.97791 -9.93356,-5.28257 -1.03856,-0.95848 15.1047,-32.4646 16.63436,-32.4646 0.80091,0 2.4929,0.75806 3.75999,1.68458 2.13235,1.55921 1.91531,2.42745 -2.91639,11.66666 -7.91514,15.13544 -7.91998,15.20266 -1.35849,18.8549 6.37153,3.54652 7.22796,4.97961 4.83207,8.08568 -1.5298,1.98325 -2.5425,1.74937 -11.01798,-2.54465 z m 225.63985,-11.76186 c -4.20191,-8.44141 -7.63984,-15.93388 -7.63984,-16.64991 0,-0.71602 4.31148,-3.4731 9.58107,-6.12682 9.04386,-4.55442 9.67932,-4.69059 11.33333,-2.42859 2.65711,3.6338 2.25009,4.34615 -4.30219,7.52948 -4.59961,2.23467 -5.96126,3.59216 -5.66666,5.64935 0.29956,2.09173 1.38181,2.70785 4.75656,2.70785 6.13032,0 9.38692,5.05148 4.29789,6.66667 -3.04916,0.96776 -3.60567,5.72336 -0.79593,6.80156 1.02889,0.39482 4.43752,-0.59162 7.57469,-2.19208 5.46064,-2.78582 5.779,-2.80735 7.46262,-0.50488 0.96724,1.3228 1.75862,2.88285 1.75862,3.46681 0,1.06176 -17.65855,10.42859 -19.66021,10.42859 -0.58307,0 -4.49804,-6.90662 -8.69995,-15.34803 z m -258.51442,-7.26836 c -3.41436,-2.14448 -6.53588,-4.42971 -6.93672,-5.07828 -0.73365,-1.18708 18.48377,-30.972 19.98335,-30.972 1.72256,0 13.59656,9.47384 14.35668,11.45469 1.60642,4.18628 0.73562,8.42267 -2.52874,12.30215 -1.83333,2.1788 -3.33333,5.25211 -3.33333,6.82957 0,1.57747 -1.47273,4.34086 -3.27273,6.14086 -4.44387,4.44388 -10.4709,4.22053 -18.26851,-0.67699 z m 13.54124,-5.61196 c 0,-2.13353 -4.04073,-6.43832 -6.04339,-6.43832 -0.89656,0 -2.39258,0.91876 -3.32453,2.04168 -1.40105,1.68816 -1.25619,2.3734 0.83675,3.95759 3.06642,2.32108 8.53117,2.6023 8.53117,0.43905 z m 6.66667,-13.565 c 0,-0.98635 -1.11398,-2.80148 -2.4755,-4.03364 -2.19994,-1.99093 -2.66177,-2.01583 -4.14916,-0.22363 -0.92053,1.10916 -1.32538,2.9243 -0.89969,4.03364 0.96357,2.51102 7.52435,2.70602 7.52435,0.22363 z m 272.63851,21.27096 c -2.15625,-1.57669 -2.27026,-2.17813 -0.75825,-4 0.97879,-1.17935 3.07263,-2.14428 4.653,-2.14428 3.32552,0 8.80008,-3.48012 8.80008,-5.59412 0,-0.96172 -2.77909,-1.19083 -8.33333,-0.68701 -18.0565,1.63789 -24.60846,-9.65688 -11.32486,-19.52266 6.46163,-4.79908 18.6579,-2.75053 14.37175,2.41395 -0.93871,1.13108 -3.06681,2.05651 -4.72911,2.05651 -3.74116,0 -9.39446,4.38522 -8.18213,6.34681 0.5796,0.93781 4.30583,1.18727 10.61135,0.71039 8.02782,-0.60715 10.1121,-0.34095 11.98353,1.53048 5.59908,5.59908 3.64239,12.98818 -4.80297,18.13765 -5.03582,3.07053 -8.80327,3.30116 -12.28906,0.75228 z M 288.1634,527.34466 c -10.83734,-1.51443 -28.10483,-6.01491 -40.46447,-10.54637 -11.13638,-4.08296 -33.56955,-14.83524 -33.4791,-16.04662 0.0928,-1.24366 9.56107,-6.91612 10.304,-6.17317 0.37743,0.37743 -0.0728,1.60072 -1.00036,2.71844 -3.24832,3.91397 1.00984,1.98159 7.79376,-3.53688 6.87606,-5.59341 8.65296,-9.82125 4.75622,-11.31657 -2.7594,-1.05888 -7.63322,1.64644 -15.18984,8.43146 -6.24588,5.60812 -11.69052,7.95067 -11.04118,4.75044 0.45191,-2.22722 -3.67378,-3.79545 -4.8744,-1.8528 -0.61782,0.99966 -3.23676,-0.0573 -7.86544,-3.17446 -7.25877,-4.88836 -8.26882,-6.47343 -4.9392,-7.75114 2.88802,-1.10822 2.52471,-9.26221 -0.69376,-15.57095 -2.08138,-4.07984 -3.47161,-5.28021 -6.11534,-5.28021 h -3.42159 l 4.11535,5.596 c 4.37641,5.951 4.98585,8.95275 2.68902,13.24442 -2.24988,4.20393 -5.24034,0.64602 -5.24034,-6.23471 0,-4.17147 -0.90854,-6.81418 -3.33334,-9.69588 -1.83333,-2.1788 -3.33333,-4.32483 -3.33333,-4.76898 0,-0.44413 2.25,-0.80976 5,-0.8125 2.75,-0.003 6.96451,-1.20274 9.36556,-2.66667 5.33131,-3.25049 13.01055,-3.54403 14.16279,-0.54136 1.10778,2.88688 -0.17047,4.59999 -2.70628,3.62691 -1.52244,-0.58423 -1.96071,-0.11854 -1.60866,1.70958 0.69666,3.61744 3.87931,3.62528 8.25906,0.0204 3.26608,-2.68829 3.59222,-3.53158 2.29981,-5.94648 -0.82829,-1.54768 -3.14091,-3.7012 -5.13913,-4.7856 l -3.63315,-1.97162 3.4,-0.0533 c 1.87,-0.0293 4.12,0.66662 5,1.54662 1.20963,1.20962 1.6,1.21712 1.6,0.0308 0,-3.0302 -6.48475,-6.00918 -11.35916,-5.21816 -2.55247,0.41402 -4.64084,0.25484 -4.64084,-0.35394 0,-1.52744 3.49275,-2.72549 7.94579,-2.72549 2.05024,0 4.47462,-0.9 5.38754,-2 1.93267,-2.32872 5.75762,-2.58033 9.42099,-0.61976 3.01929,1.61588 3.51681,4.59827 0.57901,3.47092 -1.1,-0.42211 -2,-0.16747 -2,0.56587 0,2.65166 4.37106,3.03618 6.19282,0.54477 0.99394,-1.35931 1.80718,-2.98408 1.80718,-3.61057 0,-2.47535 -6.73773,-7.68456 -9.9394,-7.68456 -1.86666,0 -3.39393,-0.6 -3.39393,-1.33334 0,-2.1852 5.69985,-1.50638 10.15321,1.20919 6.78059,4.13467 6.71016,13.85403 -0.1128,15.56648 -3.96797,0.99589 -7.37374,-1.28529 -7.37374,-4.93892 0,-1.37688 -0.86459,-2.50341 -1.92131,-2.50341 -3.26985,0 -3.63673,2.44196 -0.79399,5.2847 1.49342,1.49342 2.7153,3.78179 2.7153,5.08528 0,1.30351 0.937,3.70775 2.08221,5.34278 1.14521,1.63502 1.89521,4.14125 1.66667,5.56941 -0.22855,1.42815 0.18445,2.47391 0.91778,2.32389 1.52674,-0.31229 1.5881,-5.66473 0.11014,-9.60606 -0.862,-2.29872 -0.61664,-2.23235 1.77829,0.48104 5.01264,5.6792 3.07769,18.40615 -3.23573,21.28273 -3.57407,1.62846 -5.26443,0.57992 -3.1576,-1.95865 1.76578,-2.12764 -1.57048,-3.90647 -4.9177,-2.62201 -3.14822,1.20808 -1.91512,7.85581 1.75596,9.4664 1.65,0.72389 3,1.77389 3,2.33333 0,1.53789 7.43316,1.21827 11.1602,-0.47989 2.78059,-1.26692 3.17679,-2.16803 2.57736,-5.8619 -0.59362,-3.65805 -0.23076,-4.51641 2.24095,-5.30089 2.41529,-0.76659 2.84171,-1.69684 2.35521,-5.13811 -0.32672,-2.31113 -1.04965,-5.25205 -1.60653,-6.53539 -0.62665,-1.44416 -0.43745,-2.33333 0.49649,-2.33333 2.09862,0 4.10966,5.85355 4.10966,11.96197 0,4.46527 -0.34179,5.03234 -2.66667,4.42437 -2.0464,-0.53515 -2.66667,-0.0409 -2.66667,2.12482 0,2.08267 0.83067,2.82218 3.17008,2.82218 8.93674,0 9.53556,-16.01393 0.94279,-25.21253 -2.11721,-2.26644 -3.07855,-4.12081 -2.13632,-4.12081 2.97305,0 11.1522,10.28869 12.67507,15.94419 1.89061,7.02121 0.51225,15.19859 -2.3751,14.09061 -2.37854,-0.91273 -4.3514,1.55203 -3.34386,4.17763 1.47057,3.83225 6.67137,1.83791 11.55563,-4.43124 5.27678,-6.773 5.9175,-9.08434 2.84502,-10.26336 -2.27953,-0.87474 -2.69941,-5.59486 -0.61242,-6.88468 1.67638,-1.03607 0.40044,-5.75626 -2.426,-8.97466 -1.13099,-1.28782 -1.64622,-2.75162 -1.14495,-3.25289 1.09611,-1.09611 5.1664,4.35127 6.39969,8.56489 0.48564,1.65922 0.33564,3.35504 -0.33333,3.7685 -1.98308,1.22561 -1.38425,4.59434 0.81668,4.59434 5.65415,0 4.68728,-12.56253 -1.53609,-19.9586 -2.616,-3.10893 -2.91891,-4.0414 -1.31284,-4.0414 2.45254,0 5.80157,4.74127 8.12701,11.50551 1.24361,3.6174 3.10991,5.54517 7.50539,7.75255 6.46478,3.24657 11.15461,9.20713 13.18914,16.76279 2.04124,7.58057 -0.74804,17.58349 -3.15445,11.31249 -1.091,-2.84313 -4.50295,-2.47533 -6.18449,0.66667 -1.01399,1.89465 -1.01399,3.43868 0,5.33333 1.58792,2.96705 2.35468,3.17595 10,2.72443 7.34068,-0.43355 10.26701,-3.27859 9.20345,-8.94783 -0.53841,-2.87 -0.30892,-4.44327 0.64816,-4.44327 0.81495,0 1.5008,1.05 1.52412,2.33334 0.0384,2.11128 0.22871,2.08702 2,-0.25484 1.07668,-1.4235 1.9576,-4.01394 1.9576,-5.75652 0,-2.58632 -0.50161,-3.00914 -2.73065,-2.30167 -5.39062,1.71092 -8.87055,-4.73469 -4.34342,-8.045 2.12203,-1.55168 2.12016,-1.8643 -0.0308,-5.147 -2.77294,-4.23206 -0.57566,-4.72651 2.36255,-0.53163 2.75107,3.92771 2.8012,9.6004 0.0756,8.55448 -1.21828,-0.46749 -2,-0.003 -2,1.19068 0,2.83523 3.66729,2.40452 5.28643,-0.62085 2.10308,-3.92964 1.66629,-7.36438 -1.43843,-11.31139 -4.36087,-5.54395 -1.89349,-5.68107 4.71943,-0.26227 9.13686,7.48698 12.11588,12.40279 12.00214,19.80533 -0.11053,7.1909 -1.01217,8.74644 -3.75198,6.4726 -2.11388,-1.75438 -4.27038,0.19074 -2.81759,2.54141 1.51619,2.45324 5.77828,1.36915 8.56989,-2.17981 3.83772,-4.87887 3.59847,-12.21758 -0.59998,-18.40435 -2.79828,-4.1235 -2.97755,-4.88199 -1.06691,-4.51403 1.26308,0.24325 3.97663,3.65836 6.03009,7.58915 3.81411,7.30104 4.7933,15.87709 2.89596,25.36376 -0.68449,3.42249 -1.18228,3.902 -2.72317,2.62317 -2.38989,-1.98342 -5.15668,0.39591 -3.99144,3.43248 1.27123,3.31278 7.03148,2.50559 10.1176,-1.41777 3.36331,-4.27575 5.87019,-13.01979 4.74716,-16.55816 -0.4666,-1.47028 -0.20679,-2.60111 0.59767,-2.60111 0.78276,0 1.42318,1.87347 1.42318,4.16326 0,3.40482 0.33792,3.88281 1.85496,2.62378 2.55055,-2.11676 3.3169,-8.69506 1.82684,-15.68146 -0.88813,-4.16424 -2.5292,-6.86666 -5.712,-9.40627 -2.4562,-1.95986 -4.16881,-4.04396 -3.80578,-4.63135 1.25809,-2.03565 10.35513,-1.05452 16.12628,1.73924 8.29015,4.01319 14.3406,16.20856 8.70971,17.55536 -2.17954,0.52131 -2.17272,0.62764 0.10333,1.61343 1.5874,0.68749 3.146,0.34605 4.47165,-0.9796 4.04704,-4.04704 -1.37093,-15.58816 -8.75013,-18.63915 -2.72183,-1.12536 -2.99257,-1.56291 -1.22812,-1.98473 3.46365,-0.82806 7.44355,1.88301 10.97372,7.47517 3.28351,5.20142 7.11831,7.34932 15.62756,8.75316 6.61684,1.09164 11.53077,5.26455 12.54107,10.64987 1.07422,5.72608 -1.36248,10.57931 -4.8533,9.66644 -2.80077,-0.73241 -3.56541,1.07884 -0.88584,2.09833 2.62812,0.99992 7.35086,-1.26734 8.97974,-4.31094 0.81806,-1.52858 2.1518,-2.3686 2.96386,-1.86672 0.98679,0.60988 1.21567,-0.0848 0.69011,-2.09454 -0.68291,-2.61142 -0.40356,-2.88318 2.12329,-2.06557 1.60032,0.5178 7.55119,1.41696 13.22415,1.99813 10.013,1.02578 18.21788,4.25456 19.33607,7.60912 1.20274,3.60827 -31.9743,17.48886 -56.98388,23.84087 -12.76916,3.24315 -16.63754,3.59028 -44.00001,3.94835 -16.5,0.21593 -33.6,-0.11054 -38,-0.72535 z m 4.74997,-5.39341 c 1.41605,-0.75786 3.88396,-3.90786 5.48421,-7 2.81471,-5.43878 2.93948,-5.5134 3.82675,-2.28875 0.89704,3.26013 0.965,3.22448 3.09479,-1.62384 1.19769,-2.72645 2.17761,-5.84104 2.17761,-6.92131 0,-1.08028 0.6,-2.33496 1.33333,-2.78818 2.03835,-1.25978 1.5859,-4.66667 -0.61976,-4.66667 -2.50908,0 -4.94309,-4.51711 -3.89948,-7.23675 0.44251,-1.15312 2.24035,-2.09658 3.99523,-2.09658 4.06185,0 4.30349,-4.59162 0.62147,-11.80899 -5.0624,-9.92312 -6.4235,-9.47412 -6.95798,2.29536 -0.36333,8.00085 -1.09016,11.24915 -2.98572,13.34372 -1.97504,2.1824 -2.32094,3.92239 -1.6339,8.21891 0.47934,2.99772 0.26101,7.71774 -0.4852,10.48896 -1.50006,5.57077 -6.68524,11.2885 -7.6739,8.46204 -0.77137,-2.20526 -4.36076,-2.15039 -4.36076,0.0667 0,1.96646 2.61867,4.93334 4.35432,4.93334 0.63488,0 2.31292,-0.62007 3.72899,-1.37792 z m 41.07041,-1.76422 c 1.62354,-1.72818 3.30663,-5.32818 3.7402,-8 0.73647,-4.53832 3.05662,-6.89133 3.14663,-3.1912 0.0236,0.96971 0.58622,0.73139 1.34544,-0.56992 0.95244,-1.63246 0.51628,-3.61326 -1.61476,-7.33333 -3.83691,-6.69792 -3.58787,-6.48011 -5.37085,-4.69712 -0.8987,0.89869 -1.41352,4.61361 -1.21958,8.80032 0.21378,4.61508 -0.43606,8.73739 -1.79017,11.35592 -2.04827,3.96092 -4.72396,5.53411 -4.72396,2.77747 0,-0.73334 -0.9,-1.33334 -2,-1.33334 -2.02988,0 -2.73501,2.82054 -1.11111,4.44444 1.89372,1.89374 6.77988,0.74667 9.59816,-2.25324 z m 28.16525,-2.84054 c 2.69694,-3.24962 0.43908,-8.08008 -6.48747,-13.87932 -6.00088,-5.02422 -9.58892,-10.80467 -6.70667,-10.80467 0.66468,0 1.20851,0.6 1.20851,1.33333 0,0.73334 1.2,2.53334 2.66667,4 2.84329,2.8433 9.33333,3.66231 9.33333,1.17783 0,-0.83425 -1.17683,-1.18109 -2.67667,-0.78888 -3.11436,0.81443 -6.65666,-3.37691 -6.65666,-7.87631 0,-1.5917 -0.9,-3.23936 -2,-3.66148 -2.32738,-0.89309 -2.715,-7.05726 -0.49043,-7.7988 2.48,-0.82666 -2.45935,-8.85748 -7.24097,-11.773 -2.34774,-1.43151 -5.63657,-2.60497 -7.30853,-2.60771 l -3.0399,-0.005 2.97945,4.02993 c 2.36043,3.19265 3.13055,6.46079 3.70659,15.72959 0.87317,14.04975 2.63961,17.26202 12.35573,22.46883 4.81859,2.58225 7.17242,4.71771 7.46412,6.77165 0.23434,1.65 -0.21566,3 -1,3 -0.78433,0 -1.42606,0.6 -1.42606,1.33334 0,2.01792 3.45542,1.59608 5.31896,-0.64935 z M 244.40754,473.74583 c -0.42563,-1.06364 -0.74157,-0.7477 -0.80555,0.80556 -0.0579,1.40555 0.25723,2.19306 0.7003,1.75 0.44305,-0.44305 0.49041,-1.59306 0.1052,-2.55556 z m 183.93579,21.22623 c -2.88252,-1.49665 -9.63929,-3.13424 -15.33333,-3.71619 -13.26471,-1.3557 -16.94427,-2.86957 -24.17993,-9.94825 -3.3,-3.22841 -9.69264,-7.71244 -14.20588,-9.96452 -12.99014,-6.482 -20.46079,-19.18476 -20.46079,-34.79056 0,-6.67291 0.53324,-8.5445 3.19192,-11.20318 3.94843,-3.94841 3.28391,-4.68686 -4.21764,-4.68686 -3.98075,0 -8.04917,1.19886 -12.44308,3.66666 -3.59067,2.01667 -6.50634,3.96667 -6.47924,4.33334 0.0271,0.36666 2.41081,2.29981 5.29717,4.29588 2.89942,2.00509 5.63758,5.18169 6.11862,7.09833 1.0582,4.21615 -1.31638,9.93912 -4.12392,9.93912 -1.12567,0 -3.24595,0.74896 -4.71173,1.66435 -4.03245,2.5183 -10.05397,-1.25718 -9.71442,-6.09092 0.18977,-2.70143 -0.3627,-3.57343 -2.26398,-3.57343 -2.2055,0 -2.34638,0.48365 -1.14486,3.93033 1.76478,5.06248 -0.94015,11.22328 -5.19396,11.82986 -3.62916,0.51749 -5.39272,-3.06143 -3.22163,-6.5379 1.18476,-1.89712 1.06481,-2.87374 -0.55148,-4.49004 -2.90832,-2.90832 -3.25225,-2.618 -2.33453,1.9706 0.57233,2.8617 0.11453,4.80163 -1.57332,6.66667 -4.56488,5.04413 -12.89919,1.76981 -8.61983,-3.38649 2.18881,-2.63736 -0.15293,-5.50879 -5.43956,-6.66994 -2.14932,-0.47206 -3.90787,-1.47568 -3.90787,-2.23024 0,-1.71541 6.22272,-0.28729 10.33334,2.37152 3.24701,2.1002 4.10338,7.87818 1.33333,8.99592 -0.91667,0.36988 -0.35709,0.71988 1.24348,0.77778 1.79813,0.0651 3.23356,-0.91372 3.75652,-2.5614 0.98756,-3.11151 -0.28948,-8 -2.08985,-8 -0.68391,0 -1.24348,-0.6 -1.24348,-1.33334 0,-2.60181 6.83745,-1.28376 10.0606,1.9394 3.31337,3.31336 4.38368,7.39394 1.9394,7.39394 -0.73334,0 -1.33334,0.6 -1.33334,1.33333 0,2.87804 3.99935,1.13353 4.81048,-2.09832 1.21374,-4.83588 -1.45413,-9.79997 -6.14581,-11.43551 -2.19716,-0.76593 -3.67431,-1.91122 -3.28255,-2.5451 0.39382,-0.6372 2.22039,-0.57912 4.08522,0.12986 1.85512,0.70531 5.94088,1.28239 9.07948,1.28239 6.0763,0 11.26789,3.73041 9.39929,6.75387 -0.71021,1.14916 -1.32224,0.98022 -2.21256,-0.6107 -1.36233,-2.43432 -3.73355,-1.68553 -3.73355,1.17902 0,2.22781 4.14612,3.71637 7.1455,2.56541 1.20332,-0.46176 2.18784,-1.97536 2.18784,-3.36357 0,-1.3882 0.6,-2.52402 1.33333,-2.52402 0.73333,0 1.33333,0.93542 1.33333,2.0787 0,1.14328 0.60001,1.70786 1.33334,1.25464 5.23748,-3.23695 -3.8951,-14.52858 -12.9715,-16.03812 -8.48562,-1.41128 -9.31266,-2.33138 -3.0285,-3.36924 3.3,-0.54502 9.51093,-2.85132 13.80206,-5.12512 13.59599,-7.2043 26.32337,-4.6663 26.07226,5.19914 -0.0467,1.83334 -0.38748,2.58334 -0.75736,1.66667 -0.90944,-2.25381 -3.11696,-2.11876 -3.11696,0.19068 0,3.16591 3.66425,3.4572 7.3196,0.58191 2.81568,-2.21482 3.41163,-3.68139 3.08511,-7.59218 -0.38594,-4.62225 -0.6103,-4.82705 -4.8371,-4.41518 -3.56236,0.34712 -4.57432,-0.11094 -5.1555,-2.33334 -0.60867,-2.32754 -1.76618,-2.76522 -7.31298,-2.76522 -4.0537,0 -6.2727,-0.51315 -5.7658,-1.33334 1.23703,-2.00154 13.42316,-1.63494 15.15851,0.45602 0.81676,0.98413 1.09023,2.18413 0.60771,2.66666 -0.48254,0.48252 -0.21274,0.87732 0.59954,0.87732 2.75522,0 2.91543,-2.30056 0.32358,-4.64616 -1.41962,-1.28473 -5.15547,-2.61973 -8.3019,-2.96666 -4.59213,-0.50634 -7.26002,0.1824 -13.52284,3.49102 -4.29113,2.26699 -9.47693,4.1218 -11.52401,4.1218 -4.19922,0 -6.24506,-3.30361 -3.84026,-6.20121 1.86986,-2.25304 1.5392,-2.65309 -3.16973,-3.83495 -3.03767,-0.76241 -3.66393,-0.48466 -3.66393,1.62495 0,5.63892 -6.70651,7.77957 -9.64276,3.07788 -0.91595,-1.46667 -2.42104,-2.66667 -3.34464,-2.66667 -0.9236,0 -1.67927,-0.6 -1.67927,-1.33333 0,-1.52145 1.50685,-1.69471 4.55761,-0.52401 1.15999,0.44512 2.10906,1.68912 2.10906,2.76442 0,1.15322 0.95704,1.76123 2.33333,1.48242 1.39573,-0.28278 2.29447,-1.62726 2.23661,-3.34595 -0.12413,-3.68816 4.90516,-5.09349 9.81192,-2.74173 4.02996,1.9315 5.47056,6.08654 2.74932,7.9297 -1.27229,0.86176 -0.82342,1.10335 1.53548,0.82644 4.55308,-0.53448 5.5867,-8.11496 1.4112,-10.34961 -3.56204,-1.90636 -3.48528,-3.85359 0.20574,-5.21899 4.397,-1.62654 8.05777,-0.2721 7.28205,2.69426 -0.40601,1.55261 0.0533,2.48305 1.22584,2.48305 2.33138,0 2.53787,-6.80397 0.27518,-9.06667 -0.88,-0.88 -3.28001,-1.6 -5.33334,-1.6 -2.05333,0 -3.73333,-0.6 -3.73333,-1.33333 0,-2.39729 7.92689,-1.40644 10.66667,1.33333 4.74336,4.74336 2.85357,13.33334 -2.93334,13.33334 -1.51111,0 -2.4,0.98765 -2.4,2.66666 0,3.16544 0.37256,3.22606 5.06622,0.82434 9.03749,-4.62446 22.04289,-3.15163 25.0174,2.83314 2.18152,4.3893 6.06213,8.34252 8.18925,8.34252 3.99092,0 9.83911,4.319 15.78883,11.66038 6.88622,8.49692 14.19797,12.94325 23.27164,14.15172 4.00054,0.5328 4.8892,0.43102 2.66666,-0.3054 -12.3841,-4.10344 -23.14234,-13.67183 -22.40909,-19.93066 1.14288,-9.75534 15.92365,-8.35129 26.40564,2.50832 3.30189,3.42087 8.10345,7.27767 10.67012,8.57067 l 4.66667,2.35092 -3,-3.25557 c -3.89347,-4.22516 -3.80419,-7.44114 0.25795,-9.29196 2.9044,-1.32334 3.93762,-0.88615 9.52105,4.02858 3.44471,3.03215 6.68328,5.513 7.19681,5.513 0.51355,0 2.58382,3.03178 4.6006,6.73728 3.0717,5.64372 4.86438,7.26687 11.04448,10 9.53895,4.21858 10.0207,4.11503 3.98842,-0.85728 -5.94124,-4.89728 -9.39736,-11.0135 -8.2558,-14.6102 0.96441,-3.03862 5.81164,-4.57458 10.21693,-3.23748 3.51509,1.06691 17.09623,10.88087 17.09623,12.35402 0,1.23369 -13.58759,17.11625 -18.78466,21.95741 l -3.9474,3.67709 -4.9673,-2.58516 c -2.73202,-1.42182 -7.61179,-5.17652 -10.84392,-8.34374 -3.23215,-3.16723 -5.20507,-4.49088 -4.38428,-2.94146 2.10184,3.96774 9.61817,10.31698 14.71044,12.42626 4.19284,1.73673 4.24296,1.85325 1.92761,4.48119 -2.70408,3.06913 -30.02524,23.68996 -31.04383,23.43053 -0.36667,-0.0933 -2.98569,-1.37388 -5.82007,-2.84556 z m 18.46254,-31.60374 c 0.93493,-1.51276 -3.14148,-9.9846 -4.26412,-8.86196 -0.41709,0.4171 -0.003,1.66967 0.92235,2.78348 0.92438,1.11382 1.36606,3.22831 0.98149,4.69888 -0.71671,2.74074 0.92573,3.70075 2.36028,1.3796 z m -5.39647,-11.89785 c 0.97091,-1.57096 -8.96319,-5.50024 -13.60632,-5.38177 -2.87391,0.0733 -2.32097,0.49858 2.62808,2.02122 3.44727,1.0606 6.63268,2.51882 7.0787,3.24047 1.01108,1.63596 2.92624,1.69493 3.89954,0.12013 z m -101.91267,-52.22 c 0,-0.69005 -0.9,-1.25464 -2,-1.25464 -2.06188,0 -2.64893,1.57328 -1.14736,3.07487 1.06524,1.06524 3.14736,-0.13892 3.14736,-1.82023 z m -171.08311,66.78036 c -7.78321,-8.17471 -8.76368,-10.32155 -5.98356,-13.10167 1.24444,-1.24444 0.48621,-1.6 -3.41203,-1.6 -3.00181,0 -4.68152,-0.53477 -4.18797,-1.33333 1.07341,-1.73683 6.80451,-1.71017 10.08765,0.0469 3.09531,1.65656 3.62539,6.9376 0.57902,5.7686 -1.1,-0.42212 -2,-0.0844 -2,0.75036 0,2.35306 3.80946,3.25212 6.01697,1.42004 2.88143,-2.39136 2.43559,-5.76257 -1.21573,-9.19281 -2.509,-2.35708 -4.59347,-2.95668 -9.66667,-2.78061 -8.70931,0.30226 -9.4644,0.15984 -7.13457,-1.34582 1.1,-0.71088 4.89616,-1.30169 8.43589,-1.31292 5.35049,-0.0169 7.0932,0.63688 10.33333,3.87703 4.7214,4.7214 4.95652,8.69433 0.73695,12.4528 l -3.16049,2.81513 4.02712,2.75064 c 3.79398,2.59142 7.4314,8.75066 5.16778,8.75066 -0.57206,0 -4.45273,-3.58426 -8.62369,-7.965 z M 282.94057,439.803 c -0.46281,-1.20605 0.0648,-3.19424 1.17248,-4.4182 4.30643,-4.75856 -3.95303,-6.87426 -15.94965,-4.0856 -2.93334,0.68187 -6.83334,0.83483 -8.66667,0.33992 -2.79573,-0.75472 -2.25812,-1.06873 3.33333,-1.947 18.03804,-2.8333 20.2105,-2.81913 23.18087,0.15124 3.27761,3.27762 3.70303,6.81914 0.81913,6.81914 -1.1,0 -2,0.6 -2,1.33333 0,1.83939 3.1251,1.67491 5.06667,-0.26667 3.55071,-3.5507 0.17868,-14.4 -4.4756,-14.4 -1.05843,0 -1.9244,-0.5417 -1.9244,-1.2038 0,-1.35194 11.4512,-0.99429 14.89691,0.46528 2.71954,1.15198 4.12294,4.36287 2.3782,5.44118 -0.70131,0.43344 -1.27511,0.15265 -1.27511,-0.62396 0,-0.77662 -0.6,-1.41203 -1.33333,-1.41203 -0.73334,0 -1.33334,0.9 -1.33334,2 0,3.02463 5.02808,2.39505 6.76307,-0.8468 1.22785,-2.29427 1.76409,-2.48835 2.76283,-1 0.8723,1.29995 1.12597,0.66236 0.85668,-2.1532 -0.32176,-3.36421 -1.49847,-4.54421 -7.40318,-7.42384 -7.74558,-3.7774 -8.14877,-6.32431 -0.4949,-3.12632 11.052,4.61783 14.52492,13.24737 6.91505,17.18259 -4.73215,2.44709 -8.30512,2.59533 -10.46621,0.43424 -1.24444,-1.24444 -1.6,-0.86594 -1.6,1.70332 0,7.17705 -9.0029,12.82224 -11.22283,7.03718 z m 11.09676,-16.2794 c -1.97053,-0.67726 -2.97153,0.69627 -1.84079,2.52587 0.71688,1.15992 1.25744,1.09668 2.09079,-0.24463 0.66017,-1.06256 0.55701,-2.00386 -0.25,-2.28124 z m -106.855,3.07318 c -6.57471,-2.828 -8.44548,-3.10551 -13.33334,-1.97784 -8.05677,1.85874 -15.04745,1.67932 -20.31457,-0.52143 -6.38139,-2.66632 -15.84256,-11.75536 -18.59854,-17.867 -1.9573,-4.34052 -2.84241,-5.05741 -5.59459,-4.53131 -3.10158,0.59291 -3.1644,0.7853 -1.22367,3.74724 2.27435,3.47108 2.72658,6.46086 0.79687,5.26824 -2.04565,-1.26429 -5.41777,-8.89328 -5.41777,-12.25704 0,-2.29974 0.74965,-3.12848 2.82993,-3.12848 2.45412,0 2.59255,0.28602 1.04244,2.15379 -1.55179,1.8698 -1.44146,2.08715 0.83674,1.6484 3.30573,-0.63661 3.55653,-6.25681 0.36894,-8.26749 -1.72707,-1.0894 -2.89162,-0.84672 -4.9722,1.03618 -2.60073,2.35363 -2.75614,2.35655 -3.63427,0.0681 -2.24159,-5.84146 8.25806,-15.30568 16.98025,-15.30568 5.40047,0 7.79341,1.95476 5.36533,4.38284 -1.08954,1.08954 -1.48382,1.05868 -1.48382,-0.11618 0,-0.88 -0.64174,-1.6 -1.42607,-1.6 -0.78433,0 -1.23433,1.35 -1,3 0.55316,3.89487 6.22673,4.89992 8.68469,1.53846 4.5445,-6.21496 -1.02653,-15.20513 -9.4223,-15.20513 -5.93174,0 -8.83632,1.14259 -8.83632,3.47599 0,2.93907 -5.02778,7.19068 -8.50341,7.19068 -3.44517,0 -5.35453,-1.75668 -6.70413,-6.16805 -0.89416,-2.92268 1.94051,-4.71522 5.54087,-3.50383 2.33196,0.78461 2.08566,3.00521 -0.33333,3.00521 -1.1,0 -2,0.9 -2,2 0,2.41933 5.43299,2.70035 7.73333,0.4 0.88,-0.88 1.6,-3.77861 1.6,-6.44136 0,-6.2448 -4.29314,-9.04692 -10.52984,-6.8728 -4.90353,1.70939 -7.12432,-0.42897 -2.55039,-2.4557 1.69413,-0.75068 5.11896,-2.84956 7.61074,-4.66418 4.34793,-3.16633 13.46949,-4.64261 13.46949,-2.17998 0,0.61562 1.5,1.80276 3.33333,2.63809 3.81502,1.73823 4.60118,5.90571 1,5.30105 -1.57504,-0.26446 -2.33333,0.47484 -2.33333,2.27488 0,1.92315 0.88889,2.66667 3.18801,2.66667 1.80626,0 3.82891,-1.1558 4.66667,-2.66667 0.81327,-1.46666 2.22865,-3.14648 3.14532,-3.73292 2.45779,-1.57237 2.05297,-3.33532 -1.60607,-6.99434 -2.12172,-2.12172 -4.81805,-3.28699 -7.66666,-3.31328 -3.69066,-0.034 -4.01232,-0.26263 -2.00967,-1.42808 1.31133,-0.76316 4.06573,-1.01824 6.12087,-0.56686 2.52318,0.55419 4.2821,0.16343 5.41638,-1.20329 2.30278,-2.77467 9.33534,-3.89789 13.79319,-2.20303 3.81183,1.44926 6.04364,4.84827 4.26747,6.49931 -0.55765,0.51837 -1.28177,0.19249 -1.60916,-0.72417 -0.82793,-2.31824 -3.92651,-2.08676 -4.86679,0.36357 -0.85094,2.21753 3.46444,7.30309 6.1971,7.30309 0.93684,0 2.9676,-0.88553 4.51282,-1.96785 2.22868,-1.56103 2.8095,-3.36483 2.8095,-8.72527 0,-7.54256 -2.07308,-10.64021 -7.12088,-10.64021 -3.82575,0 -4.31158,-2.14625 -0.74226,-3.27912 1.37272,-0.43568 4.1786,-3.45432 6.23528,-6.70809 2.0567,-3.25379 5.28668,-6.45534 7.17774,-7.11456 3.97686,-1.38634 8.71414,-0.005 9.81381,2.85984 1.04651,2.72716 -0.42773,3.86992 -2.63221,2.04036 -2.22996,-1.85071 -3.70264,-0.65028 -2.63035,2.14406 1.83043,4.77004 11.53989,0.26744 11.53989,-5.35142 0,-4.99215 -4.45645,-8.59107 -10.63808,-8.59107 -5.10924,0 -5.25124,-0.11747 -3.85297,-3.18631 2.06563,-4.53356 11.82439,-8.50634 11.82439,-4.81369 0,0.73333 -1.08532,1.33333 -2.41183,1.33333 -1.32651,0 -3.57651,0.88092 -5,1.9576 -2.50208,1.89247 -2.47729,1.9633 0.74516,2.12919 1.83333,0.0944 5.49072,0.0743 8.12752,-0.0447 5.87579,-0.26508 12.60613,4.85891 13.85584,10.54883 1.5766,7.17823 -2.02108,18.00844 -3.67925,11.07575 -0.51838,-2.16732 -0.63403,-2.15775 -1.62539,0.13456 -0.70307,1.6257 -0.43223,2.87002 0.79365,3.64625 2.69727,1.70789 3.56007,1.52008 6.49371,-1.41356 5.4072,-5.4072 5.04843,-16.47396 -0.72111,-22.24349 -3.74729,-3.74732 -3.96288,-4.45712 -1.35372,-4.45712 2.53032,0 6.99822,7.4801 8.13696,13.62282 0.6755,3.64383 0.21371,6.46824 -1.744,10.66667 -1.46453,3.14077 -3.00196,8.03492 -3.4165,10.87588 -0.90854,6.22627 -4.16784,10.16796 -8.4077,10.16796 -3.30441,0 -4.28057,-2.03233 -1.46001,-3.03968 0.91667,-0.32739 1.24255,-1.05151 0.72417,-1.60916 -1.18846,-1.27853 -5.0575,0.13293 -5.0575,1.84509 0,2.31891 4.13589,5.47042 7.17912,5.47042 4.12856,0 10.03964,-6.56871 10.65321,-11.8384 0.60325,-5.1812 2.34557,-7.24743 5.58221,-6.61998 3.69415,0.71615 4.02518,3.85958 0.36464,3.46259 -2.02781,-0.21991 -3.11252,0.35945 -3.11252,1.66245 0,3.15243 6.30468,3.15655 9.68604,0.007 2.06186,-1.92091 2.98063,-4.31832 2.98063,-7.77751 0,-4.57906 -0.30909,-4.99618 -3.66667,-4.94805 -2.80929,0.0403 -3.76648,-0.65032 -4.09352,-2.9534 -0.43282,-3.04808 2.97518,-5.62504 4.8177,-3.64288 0.51837,0.55765 0.19249,1.28177 -0.72418,1.60916 -2.28481,0.816 -2.10669,3.03968 0.24348,3.03968 5.6172,0 2.91243,-11.41788 -3.25636,-13.74633 -2.19292,-0.82807 -3.98712,-1.97376 -3.98712,-2.54632 0,-1.46798 1.98524,-1.29432 5.97258,0.52242 2.78664,1.26968 4.3101,1.14442 8.10797,-0.66666 6.13425,-2.92522 9.51096,-2.81808 11.20948,0.35564 1.45533,2.7193 -0.16112,4.936 -2.53123,3.4712 -2.10276,-1.29959 -2.84685,1.54345 -0.83989,3.20908 1.4626,1.21385 2.75029,1.12306 5.69914,-0.40184 7.22077,-3.734 9.06681,-12.9541 2.98042,-14.88584 -2.75693,-0.87502 -3.59769,-3.31168 -1.14268,-3.31168 0.80068,0 3.05068,1.22574 5,2.72389 1.94932,1.49815 4.91467,3.74815 6.58966,5 3.8507,2.87795 4.84136,10.48097 1.28789,9.88432 -1.55393,-0.26091 -2.33333,0.47084 -2.33333,2.19068 0,3.80044 3.34901,4.43029 7.24824,1.36316 5.17542,-4.07099 4.82057,-12.11569 -0.76458,-17.333 -2.30064,-2.14912 -3.79828,-4.29221 -3.32806,-4.76243 0.4702,-0.4702 2.24121,0.44744 3.93558,2.03923 1.69438,1.59179 4.13146,2.89415 5.41574,2.89415 6.19944,0 11.6702,6.56448 8.5856,10.30205 -1.48231,1.79612 -1.44442,2.02857 0.24081,1.477 2.97317,-0.97312 3.22499,-6.28547 0.44363,-9.35884 -1.34054,-1.48128 -4.23875,-3.62852 -6.44048,-4.77165 -2.42435,-1.25871 -3.31196,-2.3117 -2.25062,-2.6699 0.9639,-0.3253 4.34456,0.7836 7.51259,2.46424 5.40145,2.86547 5.89996,2.91582 8.00705,0.80874 2.1071,-2.1071 2.01292,-2.34322 -1.51258,-3.79251 -3.02516,-1.2436 -3.29098,-1.65631 -1.3607,-2.11271 3.34699,-0.79137 8.93444,3.18043 8.93444,6.35098 0,1.44976 -0.6,2.63593 -1.33333,2.63593 -0.73333,0 -1.33333,-0.63541 -1.33333,-1.41203 0,-0.77661 -0.5738,-1.0574 -1.27511,-0.62396 -2.54879,1.57524 0.23901,4.85195 3.77877,4.44146 5.06075,-0.5869 5.62952,-6.71643 0.91018,-9.80866 -1.87762,-1.23026 -3.41384,-3.054 -3.41384,-4.05276 0,-3.32625 -6.54674,-6.33498 -13.44262,-6.17792 -3.60656,0.0821 -6.55738,-0.056 -6.55738,-0.30709 0,-0.25105 2.41848,-1.71704 5.37438,-3.25775 6.99512,-3.64607 10.62562,-3.65409 10.62562,-0.0235 0,3.2844 3.11901,2.77321 3.77677,-0.61899 1.20363,-6.20739 -8.69561,-8.28055 -16.502,-3.45594 -5.46396,3.37693 -12.01648,3.69441 -17.51921,0.84883 -4.51744,-2.33607 -6.21215,-5.76573 -6.02918,-12.20155 0.20904,-7.35197 9.38044,-11.42369 14.06696,-6.24514 2.73586,3.02302 2.79476,4.22829 0.20666,4.22829 -1.1,0 -2,0.9 -2,2 0,2.99553 4.18884,2.33629 8.33333,-1.31152 4.63219,-4.07704 4.99408,-9.64783 0.66667,-10.26241 -1.65,-0.23434 -3.59228,-1.77607 -4.31618,-3.42607 -1.56578,-3.56897 -2.45102,-3.70899 -5.31874,-0.84127 -1.18731,1.1873 -2.58016,1.73566 -3.09524,1.21856 -1.29198,-1.29702 4.80965,-6.04396 7.76882,-6.04396 3.35172,0 6.628,1.38867 6.628,2.80932 0,0.65487 -0.9,1.19068 -2,1.19068 -1.1,0 -2,0.6 -2,1.33334 0,0.73333 1.2,1.33333 2.66667,1.33333 2.07828,0 2.66667,-0.88889 2.66667,-4.02859 0,-8.36076 -12.47775,-8.7381 -20.59308,-0.62278 -2.50456,2.50457 -6.10971,4.94428 -8.01145,5.42158 -1.90173,0.47731 -4.33998,2.12748 -5.41836,3.66707 -1.75589,2.50689 -1.71784,2.92607 0.36444,4.01341 5.38357,2.81128 7.59513,10.41263 4.05844,13.94931 -1.24444,1.24444 -1.24444,1.95556 0,3.2 2.06679,2.06679 2.06679,9.39988 0,11.46667 -0.88,0.88 -2.68,1.6 -4,1.6 -1.61934,0 -2.4,1.00311 -2.4,3.08388 0,3.10485 -5.46564,9.20617 -9.5136,10.62008 -5.08544,1.77628 -9.99061,-5.66641 -6.21973,-9.43729 3.57193,-3.57194 -3.37116,-1.47731 -8.45821,2.5517 -5.44023,4.30875 -14.32448,7.19894 -16.24022,5.2832 -0.60541,-0.60541 1.18732,-1.53001 3.98387,-2.05464 2.79655,-0.52464 7.87175,-2.99982 11.27823,-5.50041 6.3887,-4.68975 11.44632,-5.73653 14.23633,-2.94652 2.62559,2.62559 1.96237,5.36137 -1.06667,4.4 -2.04764,-0.64989 -2.66666,-0.2396 -2.66666,1.76749 0,3.91991 4.21077,4.92984 6.86872,1.64743 1.22396,-1.51155 2.87921,-2.74825 3.67833,-2.74825 2.20169,0 1.73775,-6.19139 -0.64229,-8.57143 -1.15238,-1.15239 -3.55238,-2.09524 -5.33334,-2.09524 -3.94866,0 -4.199,-2.71709 -0.55421,-6.01557 3.11933,-2.82297 9.59224,-3.18837 12.57841,-0.71006 2.49742,2.07267 2.75368,5.66595 0.36498,5.11742 -0.93835,-0.21548 -1.83835,0.20821 -2,0.94154 -0.16167,0.73334 0.75606,1.33334 2.0394,1.33334 3.34938,0 4.00313,-7.30227 0.85954,-9.60093 -3.23646,-2.36654 -11.7946,-2.17922 -16.71633,0.36591 -5.24983,2.71479 -6.09268,1.73201 -2.22403,-2.59327 1.69446,-1.89445 4.11555,-4.64282 5.38023,-6.1075 4.32737,-5.0117 12.4786,-5.0635 14.13649,-0.0899 0.39828,1.19483 -0.12586,1.5074 -1.5873,0.94659 -1.43899,-0.55215 -2.18194,-0.1372 -2.18194,1.21868 0,3.26977 4.61079,1.55888 5.10235,-1.8933 1.25656,-8.82468 -11.572,-9.55716 -20.76376,-1.18556 -4.74789,4.32426 -4.86783,1.77308 -0.1342,-2.8549 2.34801,-2.29562 6.1968,-4.53548 8.55285,-4.97748 3.31848,-0.62255 5.26504,-2.35374 8.63854,-7.68267 7.64611,-12.07823 13.20236,-16.84928 22.84169,-19.61381 6.41703,-1.84038 5.22852,0.72841 -1.43142,3.09381 -6.7697,2.40439 -17.74098,11.77376 -14.89687,12.7218 0.91033,0.30344 3.55319,-1.24361 5.87299,-3.43791 2.31981,-2.19429 5.54018,-4.66792 7.15637,-5.49696 4.61265,-2.36609 18.18545,-3.37529 21.50455,-1.59897 3.26904,1.74955 4.05584,5.81659 0.89025,4.60184 -1.26645,-0.48599 -2,0.0184 -2,1.37517 0,2.7363 5.14369,2.85494 6.18449,0.14266 0.42212,-1.1 1.60328,-2 2.62483,-2 1.02153,0 1.85735,-0.9 1.85735,-2 0,-2.87071 -4.86832,-7.33334 -8,-7.33334 -4.39498,0 -3.02279,-1.90625 2.64566,-3.67536 6.66415,-2.07986 9.71738,-2.09493 11.75434,-0.058 2.23552,2.23552 1.99737,4.17112 -0.4,3.25116 -1.21828,-0.46749 -2,-0.003 -2,1.19068 0,2.8746 3.67714,2.38611 5.33333,-0.7085 2.98439,-5.57639 -3.64484,-10.7155 -11.33333,-8.78582 -1.89108,0.47464 -3.33334,0.25972 -3.33334,-0.49672 0,-2.50969 6.83791,-3.05129 13.08716,-1.03657 6.25996,2.0182 8.24618,1.91553 8.24618,-0.42623 0,-0.69005 -1.5,-1.25464 -3.33334,-1.25464 -1.83333,0 -3.33333,-0.6 -3.33333,-1.33333 0,-1.88115 8.46935,-1.66399 10.4,0.26667 2.20979,2.20978 2.00121,3.73333 -0.51111,3.73333 -1.16112,0 -1.86112,0.75 -1.55556,1.66667 0.30556,0.91666 1.70556,1.66666 3.11111,1.66666 1.77353,0 2.68085,-1.08257 2.96501,-3.53774 0.53078,-4.58594 -3.90961,-7.79559 -10.78481,-7.79559 -3.07071,0 -4.78597,-0.53295 -4.29131,-1.33333 0.45323,-0.73334 5.28864,-1.33334 10.74536,-1.33334 5.72532,0 9.92131,0.56391 9.92131,1.33334 0,0.73333 -1.2,1.33333 -2.66667,1.33333 -4.48157,0 -2.9838,2.50393 3.25078,5.43453 6.18548,2.90752 8.52833,5.598 11.8985,13.66396 1.97446,4.72554 1.95299,4.83426 -0.89652,4.53818 -2.12564,-0.22086 -2.91942,0.41676 -2.91942,2.34506 0,3.83267 4.3645,4.10802 7.51612,0.47419 2.66365,-3.07123 2.80253,-6.78603 0.45998,-12.30452 -2.09233,-4.92907 2.6143,-1.50109 5.37563,3.91523 2.55422,5.01004 2.79788,5.153 5,2.93337 1.27322,-1.28333 2.31494,-3.23333 2.31494,-4.33333 0,-1.1 0.6,-2 1.33333,-2 0.73333,0 1.33333,1.8 1.33333,4 0,2.66666 -0.66666,4 -2,4 -1.1,0 -2,0.64173 -2,1.42606 0,0.78434 1.35,1.23434 3,1 3.28092,-0.46596 4.5716,-5.30568 3.04115,-11.4035 -0.77632,-3.09312 -0.99733,-3.17384 -3.20911,-1.17223 -3.38892,3.06695 -9.11825,2.78217 -10.16159,-0.50507 -1.02696,-3.23568 0.1156,-5.34526 2.89493,-5.34526 1.84813,0 1.83618,-0.36395 -0.10947,-3.33334 -1.80351,-2.75249 -1.85296,-3.33333 -0.28379,-3.33333 1.04518,0 2.54835,1.85896 3.34039,4.13103 1.27273,3.65096 1.13295,4.21133 -1.20289,4.82217 -2.98688,0.78108 -3.4717,2.45675 -0.97632,3.3744 3.22221,1.18496 5,-0.59392 5,-5.00308 0,-6.35371 -5.47272,-12.43541 -12.15119,-13.50335 -5.43254,-0.8687 -8.49926,-3.14662 -4.26084,-3.1649 1.32661,-0.005 3.09633,-1.48615 3.9327,-3.28982 1.29762,-2.79836 1.15947,-3.39406 -0.9417,-4.06096 -1.35432,-0.42984 -4.67538,-0.36637 -7.38011,0.14104 -3.43323,0.64408 -4.64415,0.47996 -4.01151,-0.54368 1.69711,-2.74597 9.90452,-3.36774 13.48519,-1.02161 3.35748,2.19991 4.93006,8.51427 1.66079,6.66851 -1.30699,-0.7379 -1.31918,-0.56564 -0.0565,0.79813 1.30979,1.41468 1.99379,1.42072 3.66667,0.0324 2.84232,-2.35892 2.578,-4.62525 -1.02845,-8.818 -2.05476,-2.3888 -4.50254,-3.63808 -7.32996,-3.74101 -6.3301,-0.23046 -4.29052,-2.76063 2.59325,-3.21702 6.34451,-0.42064 11.68294,2.4872 14.6112,7.95871 1.27036,2.37368 1.11283,2.5858 -1.34176,1.80675 -1.98528,-0.63018 -2.78104,-0.30374 -2.78104,1.14085 0,3.06812 3.99028,4.77003 7.4683,3.18535 6.68044,-3.04382 4.51398,-9.8446 -5.28055,-16.57632 -5.80789,-3.99174 -7.43141,-4.45293 -15.67548,-4.45293 -8.14791,0 -9.52706,0.3801 -12.09487,3.33334 -2.92817,3.36769 -6.4174,4.45512 -6.4174,2 0,-0.73333 0.6,-1.33333 1.33333,-1.33333 0.73334,0 1.33334,-0.825 1.33334,-1.83334 0,-2.62377 -6.61607,-3.58544 -15.1319,-2.19945 -8.3329,1.35621 -13.65117,3.82355 -22.06244,10.23552 -4.50024,3.43057 -6.27682,4.12279 -7.65205,2.98145 -1.10644,-0.91828 -3.70781,-1.12773 -6.80567,-0.54797 -4.04316,0.75667 -7.46846,3.45832 -17.68128,13.94577 -10.52077,10.80371 -13.85516,13.39994 -19.68205,15.32492 -11.69654,3.8641 -29.90676,22.83812 -37.7266,39.30896 -1.7715,3.73127 -3.96814,6.78414 -4.88143,6.78414 -0.91329,0 -5.42165,3.78161 -10.01856,8.40357 -6.2202,6.2541 -10.40297,12.30759 -16.35291,23.66667 -4.89669,9.34829 -10.3528,17.64363 -14.07947,21.40604 -6.50264,6.56504 -24.99459,16.48871 -33.40613,17.92733 -5.90272,1.00955 -6.21265,0.38631 -7.38364,-14.84796 l -0.86262,-11.22232 9.1967,0.0133 c 6.98233,0.009 10.91404,0.81249 16.3291,3.33333 8.73717,4.06736 10.29935,4.09915 16.20094,0.32952 l 4.66667,-2.98081 -13.33334,-0.78131 c -15.24592,-0.89369 -32.66666,-4.94099 -32.66666,-7.58963 0,-1.24428 0.6758,-1.39808 2.33333,-0.531 7.75144,4.05486 37.07897,7.21667 43.62806,4.70355 1.1987,-0.45999 4.48509,-5.40999 7.30306,-11 4.92452,-9.76876 15.6248,-25.49699 17.3462,-25.49699 2.19879,0 12.03988,-10.85249 16.12991,-17.78761 10.63635,-18.03524 23.87577,-30.86484 36.93712,-35.79374 4.69719,-1.77256 9.2796,-5.47472 17.8271,-14.40264 12.35698,-12.90693 18.79513,-16.7568 25.81896,-15.43912 3.37338,0.63286 5.38882,-0.0496 9.98984,-3.38252 9.69249,-7.02121 15.74637,-9.13293 26.2744,-9.16509 5.27338,-0.0161 9.94462,0.5478 10.38053,1.2531 0.50739,0.82096 2.00621,0.82096 4.16549,0 4.42103,-1.68086 18.18757,-1.64586 22.11254,0.0563 1.69775,0.73624 5.7868,3.33195 9.0868,5.76824 4.87741,3.60087 6.07552,5.31418 6.40364,9.15727 0.34187,4.00411 1.16143,5.06933 5.35527,6.96049 4.51702,2.0369 5.38477,2.0519 9.88686,0.1708 10.61272,-4.43428 24.27962,-1.22934 28.3348,6.64462 0.74402,1.44465 3.04462,4.42664 5.11243,6.62664 2.06781,2.2 4.68473,5.01386 5.81537,6.25302 1.13064,1.23918 2.19166,3.93918 2.35782,6 0.16614,2.06084 1.29922,5.66718 2.51794,8.0141 1.21874,2.34692 2.21587,7.02418 2.21587,10.39393 0,8.30835 3.90399,12.21395 13.47843,13.48404 7.359,0.97621 13.18824,5.04939 13.18824,9.21529 0,3.66323 -2.64089,7.30628 -5.29641,7.30628 -2.13751,0 -2.42078,0.7096 -1.803,4.51658 1.17266,7.22624 -6.14781,13.07357 -10.22174,8.16477 -2.24348,-2.70326 -4.01219,-1.29669 -4.01219,3.19066 0,4.98944 -4.33373,8.66129 -10.22254,8.66129 -5.18004,0 -9.00367,-3.53563 -8.00135,-7.39868 0.40869,-1.57511 -0.56913,-2.42659 -3.44776,-3.00232 -3.20628,-0.64125 -4.65723,-0.11413 -7.18036,2.60833 -2.58387,2.78803 -4.17056,3.33706 -8.67675,3.00232 -4.27554,-0.31761 -5.75908,-1.07514 -6.60252,-3.37149 -1.23698,-3.36776 1.95671,-7.64628 4.87239,-6.52743 2.18097,0.83692 4.10619,-1.4433 5.32768,-6.3101 l 0.94984,-3.78445 -4.10977,2.12524 c -5.17966,2.67851 -7.50019,2.6729 -11.62243,-0.0281 -2.05444,-1.34609 -3.28643,-3.41335 -3.28643,-5.51453 0,-3.21852 -0.25572,-3.32618 -6.02297,-2.53568 -8.40503,1.15202 -13.35425,4.03414 -22.31481,12.99471 -10.03373,10.03372 -14.36469,19.36632 -15.29025,32.94834 -0.64773,9.50499 -0.28316,11.48782 4.95091,26.9272 11.47654,33.85333 20.98188,46.04013 34.64758,44.42163 4.34332,-0.5144 7.48532,-0.082 10.41557,1.43326 2.37833,1.22988 6.83281,2.07012 10.28283,1.93962 4.4094,-0.16678 7.16193,0.56468 9.98829,2.6543 6.56689,4.85512 16.69172,3.4088 27.48512,-3.9262 3.01157,-2.04662 12.18283,-11.15731 20.38056,-20.24599 11.20796,-12.42604 16.10264,-16.89243 19.73352,-18.00678 5.62474,-1.72628 5.58246,-1.76324 19.43044,16.98523 8.45043,11.44084 18.78394,20.01366 26.94554,22.35438 2.61013,0.74857 4.03434,2.02349 4.03434,3.61145 0,3.57683 -29.03161,15.36515 -40.36924,16.39197 -12.44117,1.12679 -11.44501,3.0538 1.57866,3.0538 7.86156,0 12.80554,-0.6861 16.03245,-2.2249 4.01017,-1.91232 5.45224,-1.98924 10.2644,-0.54748 3.66931,1.09934 5.01567,2.0378 3.90679,2.72312 -0.93058,0.57512 -3.34074,0.42334 -5.3559,-0.3373 -2.01552,-0.76077 -4.80214,-0.90482 -6.19388,-0.3202 -1.99024,0.83606 -1.10777,1.38596 4.13672,2.57774 9.51747,2.1628 5.69682,3.48626 -6.05289,2.09672 -5.47091,-0.64702 -17.14711,-1.8129 -25.94711,-2.59087 -45.08195,-3.98549 -50.0672,-5.21868 -66.98644,-16.57024 -7.79663,-5.23097 -9.71575,-5.96651 -13.82697,-5.29933 -3.18288,0.5165 -6.23022,0.0216 -9.14388,-1.48518 -3.4707,-1.79476 -6.22075,-2.07398 -13.36248,-1.35677 -11.14436,1.11919 -16.33855,-1.18388 -28.78557,-12.76331 -4.88201,-4.54172 -9.70801,-7.902 -11.34874,-7.902 -1.57008,0 -5.71518,-1.01596 -9.21134,-2.25768 -5.32298,-1.89056 -7.22033,-1.99891 -11.66809,-0.66633 -5.11848,1.53353 -8.00971,4.18702 -36.87389,33.84188 -3.75243,3.8552 -6.1559,5.09359 -11.12302,5.73112 -11.83174,1.5186 -17.96359,3.77269 -24.65811,9.0644 -5.89829,4.66233 -8.02664,5.47567 -18.17928,6.94709 -6.32437,0.9166 -13.7296,2.64296 -16.45604,3.83636 -5.89865,2.58192 -4.11528,2.74604 -13.35722,-1.22922 z m -35.08979,-9.60095 c -1.052,-2.01667 -1.91642,-5.28125 -1.92094,-7.25464 -0.004,-1.97339 -0.60821,-3.9588 -1.34154,-4.41203 -2.11994,-1.31018 -1.55316,-6 0.72512,-6 1.13215,0 1.88215,0.86066 1.66667,1.91256 -0.56047,2.73602 1.73484,3.1495 3.34176,0.602 2.21593,-3.51297 0.12426,-6.75189 -4.04946,-6.27052 -7.58653,0.87499 -9.03125,14.42159 -2.31133,21.67251 4.16883,4.49823 6.29531,4.36161 3.88972,-0.24988 z m -10.52058,-9.33333 c -0.44182,-2.01667 -0.18661,-6.91379 0.56714,-10.88248 0.75374,-3.9687 1.21757,-7.34415 1.0307,-7.50103 -0.18686,-0.15687 -1.68489,-0.69865 -3.32896,-1.20395 -6.29182,-1.93378 -7.33093,9.67806 -1.69317,18.92079 3.23183,5.29836 4.49281,5.54385 3.42429,0.66667 z m 31.77146,-11.34719 c -0.1252,-4.09429 0.18047,-4.73684 1.66667,-3.50341 1.4428,1.19742 1.81997,0.90988 1.81997,-1.38751 0,-4.70704 -7.9706,-7.35479 -16.19847,-5.38095 -3.58333,0.85963 -7.85458,2.7201 -9.49168,4.13438 -2.97429,2.56948 -2.96977,2.57076 6.03195,1.70514 9.774,-0.93989 12.99153,0.3247 12.99153,5.10606 0,2.23798 -0.32669,2.39553 -2.03222,0.98006 -2.43992,-2.02494 -3.949,-0.91814 -2.80674,2.05854 0.54518,1.42073 2.06647,2.00386 4.49804,1.72417 3.31654,-0.38148 3.65934,-0.91076 3.52095,-5.43648 z m 265.57102,-5.84779 c 2.44928,-2.2699 5.22032,-3.48812 7.7695,-3.41564 2.1793,0.062 5.0173,-0.45193 6.30666,-1.14197 1.5312,-0.81947 2.64799,-0.76324 3.21988,0.16211 0.55851,0.90368 1.48368,0.5851 2.55478,-0.87971 1.02264,-1.39853 2.55242,-1.96133 3.91256,-1.4394 1.56648,0.60111 2.69037,-0.146 3.76385,-2.50201 2.45227,-5.38214 5.54267,-3.49226 7.05507,4.31438 1.51796,7.83532 2.89793,9.95506 4.0936,6.28806 3.54697,-10.8783 5.4977,-12.21616 9.99892,-6.85751 2.11692,2.52017 2.72454,2.6886 3.799,1.05301 1.09954,-1.67377 1.65284,-1.60868 3.94306,0.46395 1.52179,1.37721 3.36672,1.97665 4.30288,1.39808 1.16842,-0.72212 0.6319,-1.81576 -1.86912,-3.81 -2.83404,-2.25979 -15.18361,-18.23726 -21.60168,-27.94754 -2.93732,-4.44404 -8.20818,-0.75494 -26.62928,18.63786 -10.03328,10.56256 -17.38384,19.20464 -16.33456,19.20464 1.04928,0 3.62098,-1.58773 5.71488,-3.52831 z m -303.46012,-8.13836 c 0.0233,-1.65 -0.5874,-3 -1.35714,-3 -2.80017,0 -9.2249,4.09643 -10.67537,6.80664 -1.32311,2.47226 -1.18326,2.68254 1.2669,1.9049 1.51481,-0.48079 3.79127,-0.29379 5.0588,0.41556 2.77746,1.55434 5.64171,-1.52083 5.70681,-6.1271 z m 38.45066,-5.20525 c 0.73173,-7.53708 -7.84044,-10.68431 -17.78441,-6.52946 -3.63195,1.51754 -4.62384,2.69223 -4.62384,5.47599 0,2.85719 0.45221,3.35539 2.33333,2.57064 3.95837,-1.65128 13.89703,-3.32692 15.1478,-2.55391 2.00205,1.23734 1.31193,3.57581 -0.81447,2.75982 -1.24249,-0.47679 -2,0.008 -2,1.27925 0,1.44618 1.07587,1.92292 3.66667,1.62482 3.02871,-0.3485 3.73769,-1.15358 4.07492,-4.62715 z m -46.51937,-22.64202 c 1.82977,-1.60088 -2.51005,-0.11413 -4.63405,1.5875 -2.4404,1.95516 -2.39786,1.98292 0.74516,0.48605 1.83334,-0.87312 3.58334,-1.80621 3.88889,-2.07355 z m 103.77778,-1.36356 c 4.88739,-3.6748 5.01647,-4.10733 2.29812,-7.70085 -1.71906,-2.27252 -1.70064,-2.95953 0.15543,-5.79225 1.33265,-2.0339 1.78879,-4.47715 1.24231,-6.6545 -0.75496,-3.00801 -0.60154,-3.22314 1.2203,-1.71116 2.66742,2.21376 2.68196,7.24667 0.0273,9.44982 -2.48108,2.05912 -0.49312,4.70514 2.63354,3.50533 1.51148,-0.58001 2.08963,-2.64509 2.08963,-7.46399 0,-5.56396 -0.68859,-7.44638 -4.17744,-11.41996 -2.2976,-2.61681 -4.49232,-4.44296 -4.87717,-4.0581 -0.38486,0.38485 -0.60786,4.455 -0.49556,9.04477 0.21837,8.92501 -0.83492,11.16947 -6.64698,14.16415 -2.19693,1.13197 -3.88082,3.39833 -4.458,6 -0.51012,2.29949 -1.2214,3.4309 -1.58062,2.51424 -1.0077,-2.57148 -4.4309,-1.97059 -4.4309,0.77777 0,1.34445 0.43067,2.87511 0.95703,3.40148 1.75048,1.75048 11.64821,-0.75233 16.04297,-4.05675 z m 63.22835,-33.32916 c 1.43646,-1.29997 2.43832,-4.0392 2.43832,-6.66666 0,-3.5525 -0.53589,-4.46002 -2.63366,-4.46002 -2.2225,0 -2.4454,0.49516 -1.42783,3.17158 0.86032,2.26285 0.63372,3.98838 -0.79091,6.0223 -1.8359,2.62112 -5.42921,2.7525 -3.81426,0.13946 0.39058,-0.63199 0.14184,-1.50032 -0.55279,-1.92962 -1.69907,-1.05008 -3.19865,1.58355 -2.27388,3.99347 0.99932,2.60417 6.04509,2.45344 9.05501,-0.27051 z m 128.34309,-21.22192 c 1.15238,-1.15237 2.09524,-3.26052 2.09524,-4.68476 0,-1.42422 0.68469,-3.68588 1.52153,-5.02588 1.87119,-2.99624 0.51139,-11.28699 -2.22348,-13.55673 -2.57785,-2.13943 -2.50008,-3.97072 0.16861,-3.97072 3.09832,0 11.2,8.58392 11.2,11.86667 0,1.54 -0.6,2.8 -1.33333,2.8 -0.73333,0 -1.33333,0.9 -1.33333,2 0,2.40036 2.84194,2.62472 5.06667,0.4 3.69198,-3.69199 -0.67735,-14.39811 -7.06361,-17.30789 -4.97334,-2.266 -4.05336,-3.53656 2.56072,-3.53656 7.20219,0 11.45371,2.54356 9.06413,5.42284 -2.0196,2.43347 -0.48842,4.17566 1.91608,2.18011 4.81294,-3.99439 0.28654,-9.69029 -8.87733,-11.17101 -7.77302,-1.25598 -12.92946,-3.94787 -13.99536,-7.3062 -1.66148,-5.23487 -4.44482,-2.80788 -6.6713,5.81716 -1.09224,4.23117 -2.24631,5.52624 -6.38246,7.1622 -4.63317,1.83256 -5.26474,1.80193 -7.66666,-0.37178 -3.33847,-3.02126 -3.3225,-5.4927 0.0491,-7.5983 2.69806,-1.68496 3.32292,-4.42896 1.8705,-8.21392 -0.71334,-1.85894 -1.00762,-1.86335 -2.8285,-0.0424 -2.50329,2.50329 -5.60768,2.01953 -7.56576,-1.17896 -1.16644,-1.90538 -0.98657,-2.77564 0.8571,-4.14699 2.15632,-1.60392 3.31513,-6.10831 1.57148,-6.10831 -2.1189,0 -4.57143,4.28788 -4.57143,7.99242 0,2.3006 -0.71959,5.49345 -1.59907,7.09524 -0.87949,1.60178 -1.45137,4.1493 -1.27084,5.66114 0.60642,5.07823 -2.11529,9.92927 -5.37225,9.57528 -4.35227,-0.47302 -4.82909,3.91166 -0.63329,5.8234 4.34258,1.97862 11.33698,-0.92358 12.40557,-5.14748 1.25867,-4.9752 3.13668,-3.37746 3.13448,2.66667 -0.003,7.97655 -3.73779,14.99299 -7.99793,15.0252 -5.22391,0.0395 -4.22198,3.88975 1.14589,4.4035 3.24771,0.31082 5.39041,-0.42235 7.79335,-2.66667 4.03714,-3.77064 7.06076,-9.35009 7.06076,-13.02915 0,-3.23285 2.03669,-3.63105 3.19068,-0.62383 1.24741,3.25071 0.9592,7.22429 -0.52402,7.22429 -0.73333,0 -1.33333,0.9 -1.33333,2 0,1.1 0.87889,2 1.95309,2 2.45211,0 4.95215,-4.49352 3.95123,-7.10188 -0.41403,-1.07895 -0.15293,-2.33245 0.58021,-2.78557 2.19555,-1.35692 5.51547,4.7885 5.51547,10.20953 0,4.73373 -0.2162,5.0078 -3.33333,4.22544 -2.37374,-0.59576 -3.33334,-0.29602 -3.33334,1.04126 0,4.86155 7.3962,6.82454 11.2381,2.98264 z m -7.2381,-9.23809 c 0,-1.1 -0.23581,-2 -0.52401,-2 -0.28821,0 -0.86937,0.9 -1.29149,2 -0.42211,1.1 -0.1863,2 0.52401,2 0.71032,0 1.29149,-0.9 1.29149,-2 z m -179.53422,-5.29063 c 1.06802,-2.78321 -1.24609,-3.76583 -4.61836,-1.96105 -2.29381,1.22761 -2.50134,1.77455 -1.02756,2.70791 2.7349,1.73205 4.79947,1.45893 5.64592,-0.74686 z m 195.54972,-4.68043 c -2.01351,-3.76228 -3.07014,-2.70565 -1.91134,1.91135 0.57918,2.30763 1.36022,3.12867 2.1884,2.30048 0.8282,-0.8282 0.72931,-2.3314 -0.27706,-4.21183 z m -196.0155,-8.02894 c 0,-3.362 -1.52192,-3.37423 -5.51896,-0.0444 l -3.14771,2.6223 4.33333,0.0444 c 3.45923,0.0354 4.33334,-0.49354 4.33334,-2.6223 z m 204.00001,0.66666 c 0,-1.1 -0.97347,-2 -2.16326,-2 -1.77173,0 -1.86284,0.36199 -0.50341,2 0.91292,1.1 1.88639,2 2.16325,2 0.27688,0 0.50342,-0.9 0.50342,-2 z m -28.33334,-6.99448 c 2.30196,-3.01353 2.08451,-7.0005 -0.53999,-9.90053 -2.05628,-2.27216 -2.0449,-2.61705 0.16698,-5.06115 1.41908,-1.56805 2.08057,-3.74346 1.6449,-5.40946 -0.46576,-1.78106 -0.16514,-2.6017 0.83303,-2.27411 0.85896,0.28189 1.75273,2.79607 1.98616,5.58707 0.34773,4.15784 0.0467,4.92958 -1.66667,4.27212 -1.15009,-0.44134 -2.09108,-0.22126 -2.09108,0.48905 0,0.71032 1.2,1.29149 2.66667,1.29149 1.46667,0 2.66667,-0.87018 2.66667,-1.93374 0,-1.06356 1.0067,-2.49712 2.23712,-3.18571 2.0374,-1.14019 2.06017,-1.71149 0.25513,-6.39959 -1.80353,-4.68418 -2.37235,-5.10896 -6.318,-4.71817 -5.59215,0.55388 -8.5988,-1.88976 -7.53589,-6.12472 1.20342,-4.79484 -1.21036,-6.81976 -7.17567,-6.01965 -4.23137,0.56754 -5.46029,0.16913 -7.21776,-2.34002 -2.46625,-3.52106 -0.92369,-7.91837 2.80197,-7.98746 2.03575,-0.0377 2.00472,-0.25554 -0.2829,-1.98623 -1.41314,-1.06911 -2.21452,-2.29863 -1.78087,-2.73229 1.28376,-1.28376 6.3502,2.02022 6.3502,4.14116 0,1.0742 -0.005,2.38606 -0.0107,2.91525 -0.005,0.52919 -1.19822,0.97919 -2.64948,1 -1.45124,0.0208 -2.64636,0.48784 -2.65581,1.03784 -0.009,0.55 -0.0172,1.6 -0.0172,2.33333 0,1.86786 5.79877,1.6679 7.73333,-0.26666 1.93228,-1.93228 2.0935,-8.31987 0.29482,-11.68075 -2.76174,-5.16035 -16.20923,-7.01736 -24.80574,-3.42551 -4.13254,1.7267 -4.51926,2.28307 -3.2436,4.66667 1.00608,1.87988 1.02834,3.49104 0.0729,5.27633 -1.89571,3.54216 -0.36326,6.76326 3.21764,6.76326 1.64121,0 3.90466,1.05 5.02989,2.33333 4.59449,5.24008 8.55175,16.50736 5.03411,14.33333 -0.73334,-0.45322 -1.33334,0.1531 -1.33334,1.34738 0,1.4892 0.94255,2.03756 3,1.74536 2.5354,-0.36008 2.97646,-1.2004 2.84792,-5.42607 -0.20048,-6.59104 1.67731,-6.33317 4.85466,0.66667 3.20366,7.05784 3.27826,9.83846 0.30853,11.50041 -2.83097,1.58429 -1.34644,3.50272 1.78164,2.30237 1.8712,-0.71805 2.11396,-2.12065 1.47085,-8.49805 -0.692,-6.86231 -0.57522,-7.3752 1.14975,-5.04989 1.056,1.42349 1.91999,3.60022 1.91999,4.83717 0,1.23695 0.9,4.40299 2,7.03567 2.2806,5.45825 2.64772,13.64796 0.66666,14.87232 -0.73333,0.45322 -1.33333,0.0687 -1.33333,-0.85464 0,-1.23263 -0.39428,-1.28442 -1.48383,-0.19487 -0.81609,0.81609 -1.05064,2.18472 -0.5212,3.04136 1.25708,2.03401 7.48751,0.53969 9.6717,-2.31967 z m -26.63001,-7.74778 c 3.99689,-2.79954 3.97792,-9.3316 -0.0367,-12.62384 -2.60636,-2.13742 -2.77732,-2.82554 -1.30285,-5.24443 1.30256,-2.13689 1.34132,-3.47457 0.1667,-5.75351 -1.83774,-3.56558 -6.6218,-8.96929 -7.94074,-8.96929 -2.43567,0 -2.13142,6.29455 0.60354,12.48681 3.97148,8.99187 5.10716,13.79935 4.04812,17.13608 -0.66917,2.10842 -1.12,2.31894 -1.98136,0.92523 -1.43456,-2.32116 -3.1711,-0.64343 -2.13329,2.06104 1.01245,2.63841 4.79524,2.63044 8.57655,-0.0181 z m -38.28234,-5.97131 c 3.02222,-1.61744 3.37924,-5.62911 0.69895,-7.85356 -1.53061,-1.27029 -2.04596,-0.805 -2.7726,2.50341 -0.62823,2.86026 -1.6742,4.06372 -3.53196,4.06372 -1.45168,0 -2.2686,0.6 -1.81538,1.33334 1.06263,1.71937 4.15722,1.69981 7.42099,-0.0469 z m -35.80689,-4.71359 c 0.94558,-1.1516 2.76665,-3.08273 4.04682,-4.2914 2.63783,-2.49048 4.38615,-9.83165 3.12446,-13.11956 -0.77278,-2.01382 -1.04822,-2.00397 -3.39683,0.12147 -2.01879,1.82697 -2.29312,3.00407 -1.30553,5.60163 1.56474,4.11564 1.55854,4.44836 -0.083,4.44836 -0.73333,0 -1.33333,-0.94616 -1.33333,-2.10256 0,-2.49667 -7.7448,-10.59708 -8.96512,-9.37678 -0.465,0.46502 0.50331,2.66976 2.15179,4.89944 3.82033,5.1673 4.48028,11.41451 1.14666,10.85478 -1.28333,-0.21548 -2.33333,0.43452 -2.33333,1.44445 0,3.99523 4.16659,4.90692 6.94743,1.52017 z m 58.14113,-2.2395 c 0.44127,-3.83503 2.17434,-4.85022 3.41427,-2 0.39877,0.91666 0.59877,-0.73334 0.44444,-3.66667 -0.24763,-4.70671 -0.69993,-5.3818 -3.84969,-5.74581 -5.05572,-0.5843 -7.03563,-3.32206 -4.88866,-6.75991 1.46534,-2.34636 1.26328,-3.1746 -1.4892,-6.10448 -1.7515,-1.86439 -3.97997,-3.3898 -4.95213,-3.3898 -0.97217,0 -1.76759,-0.6 -1.76759,-1.33333 0,-1.67764 2.14315,-1.70734 5.19876,-0.072 1.78734,0.95654 2.3568,0.75658 2.3568,-0.82756 0,-2.78355 -7.45581,-5.7671 -14.41182,-5.7671 h -5.60858 l 2.74862,3 c 1.51174,1.65 4.02405,5.54123 5.5829,8.64718 1.55886,3.10593 4.316,6.61801 6.12699,7.80462 4.41336,2.89174 8.673,10.02056 8.673,14.5149 0,2.69838 -0.52223,3.45154 -2,2.88446 -1.24357,-0.4772 -2,0.008 -2,1.28343 0,1.3642 1.00448,1.90823 3,1.62481 2.14801,-0.30506 3.11981,-1.46738 3.42189,-4.09273 z m 46.35096,-12.2817 c 0.63599,-2.53398 -0.32868,-4.68794 -4.23394,-9.45381 -4.60006,-5.61376 -5.14858,-5.92613 -6.06344,-3.45303 -0.7508,2.02963 -0.009,3.78634 2.92601,6.92815 4.25212,4.55191 5.13347,7.34013 1.93185,6.11155 -2.03237,-0.7799 -2.73065,0.6404 -1.1111,2.25994 2.07484,2.07486 5.76789,0.72586 6.55062,-2.3928 z m -44.34004,-3.92304 c 1.10251,-2.87308 -0.51808,-7.46193 -2.63524,-7.46193 -1.48468,0 -1.58133,0.57936 -0.44949,2.69423 1.61504,3.01772 0.57636,5.82848 -1.64623,4.45484 -0.86376,-0.53384 -1.06366,-0.27384 -0.49584,0.64492 1.31328,2.12494 4.3582,1.9315 5.2268,-0.33206 z m -0.43834,-12.12192 c 3.36841,-4.0587 -6.02564,-12.89246 -11.48312,-10.79824 -1.90663,0.73164 -1.50175,1.30346 2.2483,3.17528 2.79446,1.39484 4.62656,3.32032 4.7096,4.94962 0.27587,5.41244 1.60184,6.19577 4.52522,2.67334 z m -22.66114,-19.95977 c 0,-0.34087 -1.35,-1.33909 -3,-2.21829 -2.72029,-1.4495 -2.82938,-1.39171 -1.17008,0.61976 1.70378,2.06536 4.17008,3.01078 4.17008,1.59853 z m 26.66667,170.68762 c 0,-1.06268 2.1,-3.5339 4.66667,-5.49159 2.56666,-1.95769 4.66666,-4.455 4.66666,-5.54957 0,-1.55231 -1.02666,-1.79754 -4.66666,-1.11467 -3.72015,0.69791 -4.66667,0.45177 -4.66667,-1.21353 0,-3.27982 5.98261,-5.43822 10,-3.60776 4.25576,1.93905 4.46135,7.53668 0.43425,11.82333 l -2.89909,3.08593 h 2.89909 c 1.68807,0 2.89908,0.83544 2.89908,2 0,1.51111 -1.62962,2 -6.66666,2 -4.93299,0 -6.66667,-0.50245 -6.66667,-1.93214 z m 20.26667,0.33214 c -2.36588,-2.36588 -2.01887,-13.79066 0.49524,-16.30476 4.92066,-4.92066 9.90476,-0.69377 9.90476,8.4 0,6.86732 -1.66492,9.50476 -6,9.50476 -1.54,0 -3.52,-0.72 -4.4,-1.6 z m 6.4,-8.47869 c 0,-3.18931 -0.60971,-4.58797 -2,-4.58797 -1.37778,0 -2,1.38272 -2,4.44444 0,2.44445 0.38369,4.82813 0.85264,5.29709 1.70128,1.70127 3.14736,-0.66657 3.14736,-5.15356 z m 9.33333,8.13869 c 0,-1.14734 1.26696,-3.13022 2.81545,-4.40638 7.65418,-6.30798 8.00376,-9.15136 0.93423,-7.59864 -3.39232,0.74508 -3.92545,0.5091 -3.52677,-1.56104 0.25832,-1.34136 2.09566,-3.01067 4.083,-3.70958 7.6612,-2.69429 12.18273,7.2068 5.64101,12.35251 l -3.3864,2.66376 3.05307,0.43301 c 5.41518,0.76806 3.24525,3.08736 -3.28026,3.50608 -5.03008,0.32276 -6.33333,-0.0229 -6.33333,-1.67972 z m 19.34285,-0.24094 c -2.87678,-2.8768 -0.4623,-5.74131 2.65715,-3.15239 1.52547,1.26603 2.51728,1.34939 3.56688,0.29979 2.29674,-2.29674 0.27631,-5.40039 -3.82147,-5.8703 -3.61732,-0.4148 -4.21745,-1.91566 -3.23733,-8.09616 0.0872,-0.55 2.85859,-1 6.15859,-1 4.44444,0 6,0.51852 6,2 0,1.35682 -1.39356,2.01679 -4.33333,2.05219 l -4.33334,0.0521 4.28687,1.86392 c 2.69952,1.17374 4.60945,3.14915 5.15804,5.33487 1.71228,6.82227 -7.06818,11.54976 -12.10206,6.51589 z m -40.87618,-39.15239 c -0.11,-4.4 -0.26,-8.74179 -0.33334,-9.6484 -0.0733,-0.90663 0.91667,-1.85063 2.2,-2.09777 2.05638,-0.39603 2.33334,0.74918 2.33334,9.64841 0,8.08689 -0.39828,10.09776 -2,10.09776 -1.53334,0 -2.04667,-1.86667 -2.2,-8 z m 10.06046,4.64084 c -2.38758,-3.64392 -1.91433,-11.36279 0.90494,-14.75981 4.1576,-5.00959 10.56793,0.44182 10.56793,8.98708 0,8.64092 -7.21491,12.2712 -11.47287,5.77273 z m 7.22724,-7.57475 c -0.7287,-4.9451 -3.75437,-4.4611 -3.75437,0.60058 0,2.50556 0.41676,4.97232 0.92615,5.4817 1.37446,1.37446 3.31278,-2.79402 2.82822,-6.08228 z m 10.37755,8.413 c -2.99979,-3.31472 -2.57047,-16.81242 0.53475,-16.81242 1.50228,0 2.10014,1.92897 2.40238,7.75113 0.33499,6.45256 0.78174,7.67896 2.66667,7.32037 1.75819,-0.33448 2.35365,-2.14148 2.66415,-8.08446 0.29328,-5.61351 0.91526,-7.65371 2.33333,-7.65371 2.83468,0 2.69875,15.04424 -0.16177,17.90476 -2.83728,2.83728 -7.66472,2.64044 -10.43951,-0.42567 z m 64.04415,-49.14576 c -0.36865,-1.28333 -1.95161,-6.74081 -3.51768,-12.12772 -1.56605,-5.38692 -2.5632,-10.07859 -2.21585,-10.42592 1.47324,-1.47325 40.27849,-12.24724 41.02064,-11.38908 0.4484,0.51849 2.21633,5.899 3.92876,11.95668 3.23066,11.42848 3.0329,12.62073 -2.36384,14.25044 -2.70399,0.81656 -3.17443,0.16899 -5.2186,-7.18347 -2.19054,-7.87892 -3.32995,-8.94873 -7.73184,-7.25957 -1.61268,0.61885 -1.94031,1.88821 -1.32875,5.14812 0.70173,3.74051 0.38984,4.43969 -2.30193,5.16043 -4.81822,1.29009 -5.16099,1.13218 -6.61851,-3.04886 -0.75139,-2.15541 -2.07017,-3.71297 -2.93064,-3.46124 -6.44796,1.88638 -6.22515,1.25932 -3.56699,10.03862 l 2.46786,8.15077 -3.31948,1.26207 c -4.62027,1.75663 -5.53546,1.60108 -6.30315,-1.07127 z m -12.81029,-37.58836 c -1.41623,-3.41908 -1.2357,-4.61335 1.4087,-9.31841 1.66823,-2.9682 2.61888,-5.81098 2.11259,-6.31728 -0.50631,-0.5063 -2.99261,0.0676 -5.52513,1.27522 -4.45674,2.12527 -4.67024,2.10202 -6.64992,-0.72437 -1.12494,-1.60608 -2.04535,-3.34901 -2.04535,-3.87317 0,-0.87747 31.43565,-18.6308 36.28312,-20.49095 2.95699,-1.13471 11.05667,15.17388 9.87481,19.88277 -2.12093,8.45046 -12.62236,15.2894 -20.73974,13.50652 -3.52194,-0.77354 -4.20962,-0.32612 -6.99538,4.55147 -3.67373,6.43232 -5.53364,6.79551 -7.7237,1.5082 z m 23.96756,-17.41164 c 3.01889,-3.01889 3.24645,-4.42529 1.30346,-8.05581 -1.3315,-2.48794 -1.50205,-2.47971 -7.33333,0.35334 -6.5398,3.17728 -7.06457,4.28315 -3.76348,7.93082 2.87519,3.17705 6.47181,3.09318 9.79335,-0.22835 z m -341.85595,-5.31745 c -18.37135,-13.3178 -17.62045,-12.51151 -15.65975,-16.8148 l 1.61199,-3.53792 14.61851,0.94746 c 8.04019,0.52111 14.61852,0.69482 14.61852,0.38603 0,-0.3088 -4.2,-3.45729 -9.33333,-6.99665 -5.13334,-3.53936 -9.33334,-6.67674 -9.33334,-6.97192 0,-2.03159 3.12761,-5.69475 4.86219,-5.69475 2.66404,0 32.44485,21.04671 33.43616,23.63001 0.40636,1.05898 -0.45772,3.12195 -1.92017,4.58442 -2.47322,2.4732 -3.60426,2.57889 -16.18527,1.51256 -7.43943,-0.63055 -13.51196,-0.82707 -13.49451,-0.43672 0.0175,0.39036 3.91746,3.35798 8.66667,6.59474 4.74921,3.23675 8.63493,6.86675 8.63493,8.06667 0,2.49144 -2.52464,5.41133 -4.6,5.32015 -0.77,-0.0339 -7.93517,-4.79902 -15.9226,-10.58928 z m 175.82749,-2.71399 c -2.71599,-3.00113 -1.04178,-3.53259 2.64226,-0.83875 1.4627,1.06955 1.90768,2.13587 1.09971,2.63523 -0.74643,0.46131 -2.43031,-0.34711 -3.74197,-1.79648 z m 122.02914,-9.46649 c -9.18168,-3.66124 -12.50695,-11.96711 -8.73998,-21.83079 6.15719,-16.12235 27.89899,-22.00684 35.46475,-9.59866 3.07621,5.04516 3.36984,12.91966 0.67599,18.12901 -2.80806,5.43017 -10.56434,11.77401 -16.365,13.38486 -5.96215,1.65571 -6.6857,1.65018 -11.03576,-0.0844 z m 11.52321,-10.01519 c 7.79652,-3.69969 11.37204,-14.8432 5.73124,-17.86207 -4.17635,-2.23512 -10.02683,-0.28319 -14.53259,4.84859 -4.46506,5.08543 -5.18222,9.87644 -1.96064,13.09803 2.65899,2.65898 5.0195,2.64044 10.76199,-0.0845 z m -273.54869,-7.60565 c -5.56431,-2.52496 -12.2066,-10.45237 -14.12612,-16.85913 -3.41056,-11.38344 3.68515,-21.3391 15.21712,-21.35045 2.78641,-0.003 6.74735,0.86436 8.80208,1.92691 5.06632,2.61989 11.91563,10.63926 12.89047,15.09256 0.43852,2.00321 1.01118,4.34745 1.27258,5.20941 0.90763,2.99279 -2.0454,10.64783 -5.27962,13.68624 -3.98886,3.74734 -13.11672,4.86274 -18.77651,2.29446 z m 13.83917,-11.61314 c 3.90146,-6.98413 -5.33877,-18.04688 -14.2117,-17.01479 -5.00554,0.58226 -6.65787,5.78671 -3.76959,11.87331 4.23993,8.935 14.26145,11.80051 17.98129,5.14148 z m 219.56933,4.1209 c -2.27803,-2.51718 -2.21359,-2.8141 1.79335,-8.26267 2.28596,-3.10842 4.14885,-6.28346 4.13977,-7.05566 -0.009,-0.7722 -2.0866,-2.74477 -4.61671,-4.3835 l -4.6002,-2.97952 -4.06721,5.91149 c -2.23696,3.25131 -4.63504,6.26241 -5.32905,6.69135 -1.53331,0.94764 -6.70366,-2.09487 -6.70366,-3.94479 0,-1.90623 21.70342,-33.77109 23.52042,-34.53257 0.83622,-0.35044 2.79398,0.54934 4.35058,1.99953 l 2.83019,2.63672 -4.01727,5.83888 c -2.20949,3.21139 -4.01725,6.43992 -4.01725,7.17452 0,1.25421 6.90812,6.85056 8.45631,6.85056 0.39124,0 2.65032,-2.7 5.0202,-6 4.64791,-6.47209 5.95835,-7.01551 9.92436,-4.11549 2.46223,1.80041 2.04629,2.66302 -9.32211,19.33333 -6.54463,9.59685 -12.59669,17.44883 -13.44905,17.44883 -0.85236,0 -2.61306,-1.17496 -3.91267,-2.61101 z M 221.79785,172.26826 c -2.96351,-4.52288 -16.96779,-32.69271 -16.96779,-34.13097 0,-2.08872 13.5912,-8.14147 18.28137,-8.14147 3.17847,0 5.827,1.28513 9.40488,4.56348 4.68366,4.29156 4.98752,5.05461 5.09962,12.80604 0.1164,8.04604 0.23557,8.30908 5,11.03193 5.79517,3.31192 6.14324,5.26198 1.33058,7.45476 -3.04905,1.38924 -4.35653,1.18983 -9.26222,-1.41264 -3.14162,-1.66662 -6.08827,-2.65398 -6.54811,-2.19413 -0.45984,0.45984 0.17864,2.79835 1.41887,5.19667 2.13793,4.1343 2.1298,4.4521 -0.15652,6.1239 -3.44042,2.5157 -5.31143,2.19628 -7.60068,-1.29757 z m 5.43221,-21.20577 c 0.88,-0.88 1.6,-3.16 1.6,-5.06667 0,-5.83431 -5.48352,-8.64003 -10.58149,-5.41419 -1.63919,1.03723 -1.56206,1.99399 0.53582,6.64626 2.48722,5.51565 5.42898,6.85129 8.44567,3.8346 z m 152.15143,12.31214 c -8.29692,-2.48176 -14.69916,-10.26269 -12.70984,-15.4468 1.07227,-2.79426 5.92022,-1.34633 9.49175,2.8349 3.01719,3.53225 9.25716,5.51372 10.58708,3.36186 0.48289,-0.78134 -2.15165,-5.0611 -5.85455,-9.51058 -5.53805,-6.65464 -6.73253,-9.00675 -6.73253,-13.2573 0,-9.09768 8.81655,-13.17435 19.15229,-8.8558 5.36578,2.24196 10.18104,8.079 10.18104,12.34139 0,4.48465 -4.27642,4.09681 -9.33333,-0.84648 -4.65224,-4.54771 -10.66667,-5.45209 -10.66667,-1.60393 0,1.31784 2.39064,4.73046 5.31254,7.58362 6.94838,6.78492 8.89376,12.46462 6.11188,17.84418 -2.5931,5.01448 -9.31423,7.41708 -15.53966,5.55494 z m -111.73456,-9.71214 c -0.61443,-1.65 -2.53108,-8.90566 -4.25925,-16.12368 l -3.14212,-13.12368 -5.07615,0.81171 c -4.43308,0.70888 -5.21841,0.42895 -6.19921,-2.20966 -0.61768,-1.66175 -0.85487,-3.72666 -0.52707,-4.58869 0.76304,-2.0066 24.623,-7.8057 27.52856,-6.69074 1.2088,0.46387 2.19171,2.30718 2.19171,4.11028 0,2.54558 -0.88203,3.46297 -3.98471,4.14443 -2.1916,0.48136 -4.26896,1.33512 -4.61639,1.89725 -0.34741,0.56214 1.16275,7.86156 3.35594,16.22095 3.7319,14.22436 3.84058,15.30636 1.69486,16.87535 -3.39837,2.48494 -5.71165,2.04544 -6.96617,-1.32352 z m 30.13324,-3.16102 c -0.52256,-0.52254 -0.95011,-10.45009 -0.95011,-22.06121 v -21.11111 h 3.85735 c 4.56003,0 5.47599,1.80244 5.47599,10.77572 v 6.55762 h 6 6 v -8.75115 -8.75114 l 4.33333,0.41781 4.33333,0.41781 0.36931,20.56403 c 0.21201,11.80549 -0.17233,21.10566 -0.90239,21.83572 -0.69942,0.69942 -2.81561,0.88417 -4.70262,0.41056 -3.20731,-0.80498 -3.43096,-1.38095 -3.43096,-8.83571 v -7.9746 h -5.93638 -5.93638 l -0.39695,8.33333 c -0.37187,7.80647 -0.61087,8.35828 -3.78019,8.72788 -1.86078,0.217 -3.81078,-0.0331 -4.33333,-0.55556 z"
       id="path241" />
  </g>
</svg>
