<?xml version="1.0" encoding="UTF-8" standalone="no"?>
<!-- Created with Inkscape (http://www.inkscape.org/) -->

<svg
   version="1.1"
   id="svg48"
   width="944"
   height="1018"
   viewBox="0 0 944 1018"
   xmlns="http://www.w3.org/2000/svg"
   xmlns:svg="http://www.w3.org/2000/svg">
  <defs
     id="defs52" />
  <g
     id="g54">
    <g
       id="g899"
       transform="translate(-3.4316945,-16.041828)">
      <path
         style="fill:#8c8c8c;fill-opacity:1"
         d="m 462,990.89936 c -4.675,-1.68364 -11.425,-4.09187 -15,-5.35162 -3.575,-1.25975 -15.13942,-5.73154 -25.69871,-9.93731 C 321.79129,935.97555 234.49913,890.28336 179.5,849.04202 127.66202,810.17109 100.45317,776.97582 89.302889,739 L 86.513544,729.5 86.24445,454.89824 85.975356,180.29649 118.23768,171.19466 C 135.98196,166.18865 160.4,159.34078 172.5,155.97717 c 12.1,-3.3636 38.875,-10.83733 59.5,-16.60827 65.14219,-18.22699 103.80442,-29.03118 126.5,-35.35049 12.1,-3.3691 34.6,-9.667735 50,-13.996974 15.4,-4.329238 35.7601,-10.00258 45.24466,-12.607425 l 17.24465,-4.736083 13.75535,3.730748 c 7.56544,2.051911 29.50534,8.155362 48.75534,13.563226 54.74756,15.380118 93.91213,26.346308 120,33.600338 13.2,3.67041 39.75,11.07244 59,16.44896 19.25,5.37652 51.425,14.34384 71.5,19.92737 20.075,5.58353 42.575,11.8942 50,14.02371 7.425,2.12951 15.41726,4.37554 17.76058,4.99118 l 4.26059,1.11933 -0.26059,275.2086 L 855.5,730.5 l -2.77072,9 c -13.25494,43.05539 -51.58562,84.73606 -118.53524,128.89489 -53.22753,35.10797 -123.62645,70.75248 -203.84058,103.20894 -20.44678,8.27323 -57.99436,22.42852 -59.35346,22.37602 -0.275,-0.0106 -4.325,-1.39684 -9,-3.08049 z M 497.94017,931.9046 C 625.07159,881.69131 722.64151,826.46619 771.47915,777.08001 L 780.4583,768 H 471.16106 161.86381 l 1.97931,2.77969 c 2.4099,3.38439 18.73343,18.45078 29.65688,27.37289 53.18447,43.44027 140.87055,90.415 247,132.32155 30.75304,12.14322 28.63882,11.34818 30.44017,11.44692 0.79209,0.0434 12.94209,-4.46398 27,-10.01645 z M 266.01187,842.75 c 0.007,-1.2375 0.67619,-4.725 1.48813,-7.75 0.81194,-3.025 1.4816,-6.33125 1.48813,-7.34723 0.007,-1.01598 -2.91313,-4.87701 -6.48813,-8.58006 -3.575,-3.70306 -6.5,-7.20821 -6.5,-7.78923 0,-1.01328 2.00021,-1.43234 13.87427,-2.90677 l 5.37427,-0.66734 4.03328,-8.85469 c 2.2183,-4.87007 4.36682,-8.85468 4.77449,-8.85468 0.40767,0 2.79664,3.97969 5.30883,8.84376 l 4.56763,8.84375 8.73558,1.22205 c 4.80457,0.67213 9.14108,1.47266 9.63669,1.77896 0.49561,0.30631 -2.25329,3.76419 -6.10866,7.6842 l -7.00977,7.12728 1.55646,9.2669 c 0.85606,5.0968 1.32876,9.4946 1.05046,9.7729 -0.2783,0.2783 -4.34371,-1.33546 -9.03425,-3.58614 l -8.52825,-4.09214 -8.09332,4.06924 C 271.68639,843.16884 267.58441,845 267.0222,845 c -0.56221,0 -1.01686,-1.0125 -1.01033,-2.25 z m 94.04958,-0.5 c 0.0338,-1.5125 0.6378,-5.9 1.34222,-9.75 l 1.28076,-7 -7.03813,-7.22075 c -3.87097,-3.97141 -6.83673,-7.42216 -6.59056,-7.66832 0.24616,-0.24616 4.25295,-0.9686 8.90397,-1.60541 4.65102,-0.63682 9.15131,-1.52975 10.00064,-1.9843 0.84934,-0.45455 3.32081,-4.47028 5.49217,-8.92384 2.17136,-4.45356 4.22218,-8.09738 4.55739,-8.09738 0.3352,0 2.41717,3.95766 4.62659,8.7948 l 4.01714,8.79481 8.85243,1.18444 c 4.86883,0.65145 9.317,1.64902 9.88481,2.21683 0.70985,0.70985 -1.05877,3.13969 -5.66104,7.77751 l -6.69343,6.74512 1.59142,9.30028 c 0.87529,5.11515 1.3002,9.59152 0.94424,9.94747 -0.35596,0.35596 -4.4636,-1.24555 -9.1281,-3.5589 l -8.48092,-4.20611 -7.95933,4.00188 C 365.62609,843.19916 361.58441,845 361.0222,845 c -0.56221,0 -0.99455,-1.2375 -0.96075,-2.75 z m 119.05237,-1.42588 -7.38619,-4.12792 -7.38036,3.6519 c -11.214,5.54884 -11.2729,5.50087 -9.25049,-7.53392 l 1.09678,-7.06893 -6.59678,-6.64772 C 445.96855,815.44128 443,811.9497 443,811.33845 c 0,-1.06422 1.95603,-1.48233 13.8262,-2.95537 l 5.32619,-0.66096 4.15051,-8.36882 c 2.28278,-4.60286 4.611,-8.24209 5.17381,-8.08718 0.56281,0.15491 2.82329,3.92679 5.02329,8.38196 l 4,8.1003 10.25,1.27352 c 5.6375,0.70043 10.25,1.61259 10.25,2.02703 0,0.41443 -3.35284,3.88469 -7.45076,7.7117 l -7.45076,6.95818 1.93762,9.3906 c 1.0657,5.16482 1.94354,9.50309 1.95076,9.64059 0.0645,1.22754 -4.78499,-0.52345 -10.87304,-3.92588 z M 546,843.07236 c 0,-1.0602 0.4756,-5.34709 1.05689,-9.52642 l 1.0569,-7.59878 -6.5569,-7.18421 C 537.9506,814.81164 535,811.27423 535,810.90206 c 0,-0.37218 4.44916,-1.24369 9.88702,-1.93668 l 9.88703,-1.25999 3.86297,-8.06746 c 2.12464,-4.4371 4.31298,-8.18893 4.86298,-8.33741 0.55,-0.14848 2.92489,3.30916 5.27753,7.68363 4.7581,8.84715 5.2917,9.15992 17.97247,10.53466 3.4375,0.37266 6.25,0.9603 6.25,1.30586 0,0.34556 -3.17684,3.82648 -7.05964,7.73537 l -7.05964,7.10708 1.6105,9.28225 c 0.88577,5.10524 1.3457,9.54704 1.02207,9.87067 -0.32363,0.32363 -4.44908,-1.32628 -9.16768,-3.66646 l -8.57927,-4.25489 -7.78586,4.05066 C 547.16369,845.53634 546,845.78388 546,843.07236 Z M 639.44437,842.75 c 0.26536,-1.2375 0.96604,-5.59647 1.55707,-9.68659 l 1.0746,-7.43659 -6.53802,-6.58851 C 631.94211,815.41463 629,811.9497 629,811.33845 c 0,-1.0592 2.00919,-1.49156 13.58531,-2.92341 l 5.08532,-0.62901 4.41468,-8.04873 c 2.42808,-4.4268 4.86469,-8.09116 5.41469,-8.14302 0.55,-0.0519 2.73834,3.55193 4.86298,8.00841 l 3.86297,8.1027 9.88703,1.25999 c 5.43786,0.69299 9.88702,1.6045 9.88702,2.02557 0,0.42107 -2.97055,3.97405 -6.60123,7.89552 l -6.60122,7.12993 1.10122,6.32371 C 675.06948,839.06283 675.34103,845 674.4778,845 c -0.28721,0 -4.20759,-1.85298 -8.71196,-4.11773 l -8.18977,-4.11774 -8.30273,4.11774 c -4.5665,2.26475 -8.75469,4.11773 -9.30709,4.11773 -0.55239,0 -0.78724,-1.0125 -0.52188,-2.25 z M 254.15601,740.82746 c 4.89245,-2.73383 9.49402,-8.12041 10.78633,-12.6264 L 265.86039,725 l -5.6802,0.006 c -5.22918,0.006 -5.81222,0.23841 -7.34309,2.92928 -2.50531,4.40369 -7.10195,6.35796 -13.81283,5.87254 -10.67574,-0.77222 -15.49183,-6.93016 -15.49183,-19.80814 0,-13.16692 5.62411,-20.0036 16.44969,-19.99626 6.58377,0.004 11.14449,2.40187 13.13839,6.9064 1.27004,2.86922 1.73111,3.08986 6.45692,3.08986 2.79908,0 5.33939,-0.25016 5.64513,-0.55591 1.04984,-1.04983 -1.53662,-7.3694 -4.4752,-10.9344 -5.00729,-6.07472 -9.87108,-7.99535 -20.24737,-7.99535 -7.31205,0 -9.7502,0.40421 -13,2.1552 -5.4711,2.94783 -9.96616,7.86735 -12.63715,13.83046 -3.16032,7.05557 -3.15048,19.87647 0.0208,27.1074 2.94915,6.72444 8.69613,12.19485 15.28911,14.55331 7.19373,2.57336 18.0745,1.96849 23.98326,-1.33325 z m 103.43976,1.69994 c 2.93474,-0.87152 6.25352,-2.81035 8.13082,-4.75 C 371.50299,731.80915 372,729.29412 372,706.03212 V 685 h -4.91112 -4.91111 l -0.38085,20.25 c -0.2609,13.87234 -0.78815,21.06405 -1.67409,22.83473 -2.74377,5.48377 -11.02136,7.57046 -17.25127,4.34885 C 337.72532,729.77236 337,726.32567 337,704.53212 V 685 h -5.58594 -5.58593 l 0.33593,21.25 c 0.31429,19.88081 0.48644,21.5556 2.67177,25.99302 4.87376,9.89642 16.30338,13.98358 28.75994,10.28438 z m 72.88168,0.35722 c 5.26495,-1.46167 11.15692,-7.41873 12.0509,-12.18403 1.74687,-9.31162 -3.27107,-16.66915 -14.02835,-20.56898 -10.69001,-3.87545 -13.68314,-5.48311 -14.57481,-7.82838 -2.80299,-7.37241 7.77674,-12.69221 13.62026,-6.84868 1.35,1.35 2.45455,3.15 2.45455,4 0,1.20661 1.20588,1.54545 5.5,1.54545 5.38107,0 5.5,-0.0617 5.5,-2.85212 0,-3.68141 -3.62387,-9.02409 -7.75903,-11.43915 -4.11391,-2.40266 -13.45891,-3.27796 -18.9981,-1.77947 -11.3889,3.081 -15.98345,16.77534 -8.43926,25.15373 1.75786,1.95224 6.3511,4.47233 13.19639,7.24023 8.40274,3.39765 10.76773,4.80301 11.84037,7.03594 C 433.33551,729.5533 429.06635,735 422.5,735 c -4.11328,0 -7.58095,-2.23835 -9.60053,-6.19706 C 411.0349,725.14808 410.76033,725 405.84801,725 h -5.11135 l 0.53023,3.95317 c 1.51006,11.25832 15.24454,17.80873 29.21056,13.93145 z m 58.4645,-0.46002 c 7.2371,-2.14919 14.31879,-8.83282 17.02628,-16.06924 2.24314,-5.99531 2.70373,-16.39584 0.99807,-22.53698 -1.72553,-6.21266 -7.02941,-12.83139 -12.99292,-16.21389 -5.00757,-2.84028 -6.23932,-3.10371 -14.47338,-3.09528 -7.85349,0.008 -9.6609,0.3565 -14.18799,2.73542 -9.37059,4.92411 -14.68069,14.64914 -14.60909,26.75537 0.0474,8.01363 1.54233,12.82508 5.98237,19.25436 6.23635,9.03036 19.77093,12.8781 32.25666,9.17024 z m -16.94144,-9.49478 c -7.09538,-2.98054 -10.39988,-8.99044 -10.4084,-18.92982 -0.008,-9.68351 2.83397,-15.07157 9.88449,-18.73787 3.8244,-1.98871 12.2224,-1.98871 16.0468,0 6.9184,3.5976 9.63217,8.91579 9.64471,18.9008 0.0156,12.39549 -5.60779,19.03859 -16.53815,19.53721 -3.37148,0.15379 -7.25473,-0.19285 -8.62945,-0.77032 z m 85.70681,7.91788 c 4.97792,-2.56173 9.71969,-8.28106 10.85901,-13.0977 0.64999,-2.74789 0.64623,-2.75 -4.90139,-2.75 -5.10159,0 -5.69482,0.242 -7.31447,2.98384 C 554.05666,731.86697 549.41072,734 543.24675,734 533.33411,734 527,726.20261 527,714 c 0,-12.63928 6.2828,-20 17.07116,-20 4.79482,0 6.31238,0.45185 8.9382,2.66133 1.73955,1.46374 3.56294,3.71374 4.05198,5 0.78727,2.07068 1.53657,2.33867 6.53891,2.33867 H 569.25 l -0.64673,-3.23364 c -1.81786,-9.08931 -10.46769,-15.7375 -21.50306,-16.52708 -13.18971,-0.94372 -22.6056,3.98036 -27.78665,14.53113 C 516.82833,703.83138 516.5,705.60861 516.5,714 c 0,8.39139 0.32833,10.16862 2.81356,15.22959 5.14554,10.47846 13.46275,15.01869 26.40291,14.41291 5.20861,-0.24383 8.54486,-1.02144 11.99085,-2.7948 z m 61.00915,0.0127 C 623.71108,738.30835 630,730.52019 630,726.88699 630,725.26747 629.22404,725 624.52568,725 c -5.01391,0 -5.59893,0.24097 -6.95595,2.86516 -3.14904,6.08957 -15.11978,8.23096 -21.67185,3.87677 C 590.85159,728.3884 588,721.98255 588,714 c 0,-12.63928 6.2828,-20 17.07116,-20 4.79482,0 6.31238,0.45185 8.9382,2.66133 1.73955,1.46374 3.56294,3.71374 4.05198,5 0.78727,2.07068 1.53657,2.33867 6.53891,2.33867 H 630.25 l -0.64673,-3.23364 c -1.81786,-9.08931 -10.46769,-15.7375 -21.50306,-16.52708 -13.18971,-0.94372 -22.6056,3.98036 -27.78665,14.53113 C 577.82833,703.83138 577.5,705.60861 577.5,714 c 0,8.44141 0.32066,10.15305 2.87765,15.36059 3.09707,6.30744 8.64688,11.12187 15.41475,13.37219 5.85206,1.94582 17.27806,1.0126 22.92407,-1.87234 z M 286,731.5 V 720 h 4.3196 4.31961 l 5.31778,11.5 5.31778,11.5 h 5.86261 c 3.22444,0 5.86262,-0.31512 5.86262,-0.70028 0,-0.38515 -2.56972,-5.86608 -5.71048,-12.17984 -3.8836,-7.80705 -5.31141,-11.61258 -4.46305,-11.89537 2.65966,-0.88655 7.50913,-5.78347 8.8095,-8.8957 3.73942,-8.94967 -0.0442,-18.24266 -9.13597,-22.43877 -3.26525,-1.50701 -6.52571,-1.85015 -17.75,-1.86808 L 275,685 v 29 29 h 5.5 5.5 z m 0,-28.5 v -9 h 6.91821 c 8.43515,0 9.75192,0.46143 11.61878,4.07152 1.74988,3.3839 1.84893,5.98737 0.35274,9.27116 C 303.34363,710.736 299.96827,712 292.45295,712 H 286 Z M 677.8075,738.75 677.5,734.5 664,734 650.5,733.5 650.20794,725.75 649.91587,718 H 662.45794 675 v -4.5 -4.5 h -12.54206 -12.54207 l 0.29207,-7.75 0.29206,-7.75 13.75,-0.27822 13.75,-0.27822 V 688.97178 685 h -19 -19 v 29 29 h 19.0575 19.0575 z m 20.40975,-7 0.28275,-11.25 4.26048,-0.30801 4.26047,-0.30801 5.43079,11.55801 5.4308,11.55801 h 6.02996 6.02996 l -5.47123,-11.14797 c -3.00918,-6.13138 -5.4539,-11.64388 -5.43271,-12.25 0.0212,-0.60611 1.44121,-2.00203 3.15561,-3.10203 4.89167,-3.13861 6.98731,-7.9281 6.58186,-15.04254 -0.42017,-7.37293 -3.25009,-11.86032 -9.17706,-14.55203 -3.35116,-1.52191 -6.60735,-1.86551 -17.84893,-1.88347 L 688,685 v 29 29 h 4.96725 4.96725 z m -0.006,-28.5 0.28893,-8.75 7.14575,-0.29171 c 6.30077,-0.25721 7.46983,-0.0129 9.88636,2.06568 3.89659,3.35169 3.92091,10.07944 0.0485,13.41036 C 713.28481,711.65908 711.78679,712 705.4053,712 h -7.48317 l 0.28894,-8.75 z M 807,443.07755 V 217.1551 l -3.25,-1.00867 c -4.32672,-1.34285 -36.13912,-10.29389 -68.25,-19.20347 -36.27892,-10.06606 -78.14079,-21.74711 -125,-34.87974 -22,-6.16566 -50.575,-14.14127 -63.5,-17.72356 -12.925,-3.5823 -35.3113,-9.85777 -49.74732,-13.94549 l -26.24733,-7.43221 -17.25267,4.96204 C 444.2637,130.65312 421.875,136.94397 404,141.90367 c -55.04622,15.27342 -130.47438,36.32635 -167.5,46.75132 -12.65,3.56174 -34.475,9.63532 -48.5,13.49685 -14.025,3.86152 -31.53042,8.78207 -38.90094,10.93455 C 141.72855,215.23888 135.54105,217 135.34906,217 135.15708,217 135,318.7 135,443 V 669 H 471 807 Z M 387.56332,645.87381 C 374.65265,644.48779 369,640.97361 369,634.33326 c 0,-6.85263 6.20517,-10.18128 23.0878,-12.385 7.50269,-0.97934 11.58861,-0.99492 18.78798,-0.0716 9.01588,1.15624 19.50214,4.30781 20.68121,6.2156 0.32726,0.52951 -0.24806,2.40628 -1.27848,4.17061 -5.91128,10.12151 -23.37739,15.687 -42.71519,13.61098 z m 152,0 C 524.96438,644.30654 512,636.19194 512,628.62151 c 0,-2.19991 9.1645,-5.24128 20.1076,-6.67297 15.57355,-2.03751 34.81391,1.14565 39.94626,6.60879 3.27989,3.49129 3.05088,9.09566 -0.49635,12.14686 -5.12165,4.40546 -18.69026,6.59787 -31.99419,5.16962 z M 425,622.09094 C 387.18857,609.35254 348.86357,589.79512 320.1858,568.60376 262.1873,525.74594 225.95532,470.85737 211.0855,403.3255 207.06689,385.07487 205.30653,373.45943 203.90641,355.95561 201.911,331.00969 204.1443,291.8144 208.51916,275 c 1.52836,-5.87414 1.37632,-4.45247 -1.28335,12 -2.51187,15.53812 -2.46805,68.83651 0.0699,85 5.96553,37.99315 13.58759,63.03698 28.15229,92.5 27.86609,56.3705 77.29625,102.32243 143.26814,133.18682 13.31191,6.22787 39.46094,16.41175 52.56252,20.47075 10.06865,3.11938 10.76936,3.50412 10.5,5.76531 -0.15875,1.33259 -0.73863,2.56466 -1.28863,2.73794 -0.55,0.17329 -7.525,-1.88316 -15.5,-4.56988 z m 76.39896,2.36249 c -0.35154,-1.40061 -0.47261,-2.65044 -0.26906,-2.7774 0.20356,-0.12696 5.7701,-1.95704 12.3701,-4.06685 45.34817,-14.49639 87.096,-36.23359 121,-63.00211 22.18599,-17.5167 49.74208,-48.45659 62.79729,-70.50861 21.25095,-35.89571 33.89301,-73.6152 39.33145,-117.35127 2.24672,-18.0682 2.26065,-57.50578 0.0266,-75.24719 -2.62305,-20.83046 -2.66452,-21.35027 -1.11681,-14 5.88211,27.93489 5.84797,76.67559 -0.0779,111.20512 -10.771,62.76167 -42.31613,119.94481 -88.6452,160.69078 C 616.18078,576.33875 584.45008,595.69746 543,612.73307 530.80265,617.74607 504.73474,627 502.81069,627 c -0.42492,0 -1.0602,-1.14596 -1.41173,-2.54657 z m -161.12445,-5.92911 c -6.72857,-1.89385 -16.84977,-7.00867 -19.89537,-10.05427 -3.88006,-3.88006 -2.64362,-10.92356 2.38918,-13.61019 3.84111,-2.05047 23.06544,-1.69294 31.23168,0.58084 8.23028,2.29161 20.11037,7.98343 22.93189,10.9868 l 2.16472,2.30424 -2.52523,3.00106 c -5.79181,6.88317 -23.92004,10.27516 -36.29687,6.79152 z m 238.53625,0.005 c -5.82659,-1.60471 -11.10574,-4.80475 -13.20043,-8.00164 -1.54037,-2.35091 -1.48238,-2.52246 1.64653,-4.87054 15.08369,-11.31949 47.78924,-16.70231 55.37731,-9.11424 2.55754,2.55753 3.1221,7.17511 1.29473,10.58959 -1.67581,3.13127 -9.68836,7.70314 -18.23052,10.40213 -8.78745,2.77649 -19.04079,3.15581 -26.88762,0.9947 z m -156.68422,-5.97701 c -16.05339,-6.02068 -29.33636,-20.80813 -29.54358,-32.88981 -0.0675,-3.93507 0.3573,-5.19386 2.27782,-6.75 3.49125,-2.82884 7.0481,-2.35341 14.04506,1.87737 8.58807,5.19286 16.21864,12.12267 21.48106,19.50832 4.51837,6.34141 8.06522,15.09597 7.44291,18.37104 -0.53887,2.83595 -7.9775,2.78056 -15.70327,-0.11692 z m 83.61749,1.22265 c -2.02226,-5.26991 5.32773,-19.13969 15.32832,-28.92527 C 527.88806,578.18089 539.44031,571 543.35362,571 c 4.0349,0 7.64638,4.06419 7.64638,8.60487 0,5.22691 -4.45853,13.69628 -10.83696,20.58574 -4.10116,4.42974 -7.5392,6.90236 -13.83359,9.94902 -9.41495,4.5571 -19.54528,6.34627 -20.58542,3.6357 z m -130.47057,-21.7285 c -10.89155,-2.64738 -23.72965,-13.26822 -29.15019,-24.11568 -5.63216,-11.27096 -5.05424,-18.36479 1.68762,-20.71501 4.60944,-1.60686 10.38789,1.65006 19.64403,11.07203 10.18303,10.36546 14.83378,19.12291 14.96048,28.17089 0.0939,6.70267 -0.53404,7.19394 -7.14194,5.58777 z m 185.10393,-0.50539 c -3.37988,-8.80783 9.68865,-31.14446 23.98085,-40.98787 7.01386,-4.83064 10.90728,-5.1084 14.41665,-1.02851 2.13793,2.48549 2.38121,3.50948 1.86642,7.85607 -1.81186,15.29836 -19.30833,32.67266 -35.38911,35.142 -3.40723,0.52322 -4.37187,0.32896 -4.87481,-0.98169 z m -259.59575,-4.03294 c -8.17585,-2.06941 -17.24832,-6.92912 -23.02729,-12.33468 -6.03927,-5.64903 -7.20651,-8.27337 -5.70428,-12.82517 1.38136,-4.18555 3.48452,-5.34828 9.67409,-5.34828 13.74246,0 35.11487,9.99573 43.65409,20.41672 3.32782,4.06117 3.49746,4.56471 2.03164,6.03054 -4.77795,4.77794 -16.64514,6.58771 -26.62825,4.06087 z m 322.96775,0.13864 C 618.79638,586.25187 615,583.56727 615,581.45967 c 0,-2.73883 13.12732,-13.46376 21.26251,-17.37133 15.33237,-7.36458 28.69215,-9.22459 33.28294,-4.63379 5.08438,5.08437 2.30894,11.69396 -7.99918,19.04968 -11.69951,8.3486 -27.25535,12.11134 -37.79688,9.14254 z M 324.49508,562.15758 c -13.88379,-6.56823 -25.8096,-26.80281 -24.20217,-41.06392 0.60943,-5.4068 3.3831,-8.09366 8.35518,-8.09366 9.08401,0 24.37205,25.93969 24.33826,41.29549 -0.0142,6.42551 -0.75501,10.70509 -1.85298,10.70372 -0.34835,-4.3e-4 -3.33558,-1.27917 -6.63829,-2.84163 z m 286.5057,0.34446 c -3.74039,-9.83796 3.63704,-31.59625 14.80206,-43.6558 C 630.38098,513.9013 631.74541,513 634.65317,513 640.09663,513 643,516.59988 643,523.34921 c 0,14.30216 -9.72826,30.83008 -22.43237,38.11167 -6.78564,3.88932 -8.41651,4.06681 -9.56685,1.04116 z M 446,560.36857 C 405.25684,555.26517 372.78297,542.12993 342.5,518.50422 331.60318,510.0029 313.92771,491.45485 305.77986,479.97132 289.61539,457.18921 277.75183,427.38443 273.94791,400 c -1.49956,-10.79532 -1.4876,-36.92639 0.022,-48 8.28941,-60.80756 48.00282,-113.65671 106.30519,-141.46702 21.47014,-10.24129 41.32658,-15.80607 65.93551,-18.47846 35.60223,-3.86621 73.57611,2.71648 106.51433,18.46402 57.39015,27.43784 96.77299,79.027 105.89047,138.71015 2.13113,13.95037 2.09996,40.11006 -0.0645,54.17283 -3.56401,23.15544 -13.24796,48.5986 -26.20842,68.85878 -7.3231,11.44768 -12.96892,18.47497 -23.77732,29.59534 -22.73111,23.38722 -48.33678,39.25752 -80.32026,49.7822 -19.97853,6.57425 -32.58323,8.51029 -57.74486,8.86941 -11.55,0.16484 -22.575,0.10244 -24.5,-0.13868 z m 44,-11.80697 c 10.66391,-1.42119 20.20148,-3.40147 29.74596,-6.17612 l 5.28522,-1.53646 -5.31993,-5.87871 c -2.92596,-3.23329 -6.87048,-8.63033 -8.76559,-11.99342 -4.4315,-7.86419 -5.51731,-8.97632 -8.76709,-8.97958 -6.93587,-0.007 -51.82198,-7.23318 -58.98507,-9.496 l -8.00331,-2.52824 -7.94147,3.96278 C 411.00241,514.04273 395.1766,519 385.54216,519 383.02611,519 382,519.44416 382,520.53324 c 0,2.78257 4.96865,11.40012 7.54712,13.08959 6.70388,4.39255 37.95113,13.16517 54.45288,15.28756 10.47496,1.34724 34.64923,1.16395 46,-0.34879 z m 60.25942,-18.12624 C 579.02095,516.0787 602.91115,495.22255 619.64233,469.86405 623.13905,464.56428 626,459.37901 626,458.34124 c 0,-1.60809 -1.38894,-5.55461 -7.06907,-20.08602 -0.8599,-2.19985 -1.05311,-2.1313 -9.65419,3.42505 -11.90484,7.69059 -25.13227,13.81708 -35.31485,16.35661 -4.65404,1.16072 -10.03689,2.54387 -11.96189,3.07368 -2.67609,0.73653 -5.4157,3.24978 -11.63794,10.67636 -4.47587,5.3422 -14.24973,16.79934 -21.71967,25.46033 -9.94376,11.52924 -13.41231,16.21674 -12.94923,17.5 1.26053,3.49311 7.37719,12.01393 12.33939,17.18941 6.17605,6.44151 6.33628,6.43068 22.22687,-1.5013 z M 402.98816,507.05737 c 10.36623,-3.47301 22.42062,-9.01788 26.38657,-12.13749 l 2.76263,-2.17309 -0.64344,-23.62339 c -0.35389,-12.99287 -1.12609,-24.88915 -1.71601,-26.43619 -0.63859,-1.67471 -3.54176,-4.48001 -7.17524,-6.93337 -14.70344,-9.92792 -35.77063,-29.25004 -49.24879,-45.16933 l -5.00838,-5.91548 -3.92275,1.05253 c -10.64789,2.857 -41.65213,12.17449 -42.14242,12.66477 -4.74253,4.74253 -5.5617,51.92314 -1.05942,61.0179 0.57063,1.15267 13.00977,13.29422 27.64255,26.98121 l 26.60506,24.88543 9.29376,-0.61048 c 6.34274,-0.41664 12.12996,-1.5607 18.22588,-3.60302 z M 310.65258,451.48192 C 309.01444,439.53045 308.79463,425.00645 310.10045,415 c 2.08053,-15.9431 1.7231,-19.2785 -3.44842,-32.17932 -2.49595,-6.22637 -6.83725,-17.38366 -9.64732,-24.79396 -5.14158,-13.55856 -6.46977,-15.71557 -8.59233,-13.954 -3.28538,2.72662 -4.4902,38.5868 -1.90701,56.76006 1.81755,12.78684 6.40813,28.5632 12.08748,41.54086 C 303.51884,453.6298 305.29271,456 308.79091,456 c 2.36655,0 2.45239,-0.20831 1.86167,-4.51808 z m 258.91089,-0.42817 c 18.61127,-5.15744 44.61952,-19.9758 47.33408,-26.96888 0.55186,-1.42168 4.21199,-15.18487 8.13361,-30.58487 8.47336,-33.27448 8.47177,-33.20917 1.16899,-47.83249 -8.49716,-17.01498 -24.1742,-34.2202 -37.57263,-41.23518 l -5.16129,-2.70228 -4.98612,2.52666 c -5.15994,2.61474 -32.34954,14.12708 -40.76277,17.25935 -2.63046,0.97933 -5.0037,2.13827 -5.27388,2.57542 -1.43049,2.31459 -14.46238,75.39235 -14.72032,82.54587 -0.10008,2.77547 2.18742,5.52754 19.83187,23.85948 17.25625,17.92863 21.82357,22.11785 24.46509,22.43978 0.28605,0.0349 3.68057,-0.81242 7.54337,-1.88286 z m -124.8395,-21.15282 c 4.27682,-1.70449 19.68888,-7.56849 34.24904,-13.03111 14.56016,-5.46262 27.38839,-10.53182 28.50718,-11.26488 2.16834,-1.42076 3.70827,-8.91731 9.05995,-44.10494 1.33839,-8.8 3.40997,-20.89261 4.60351,-26.87246 2.12303,-10.63671 2.12896,-10.89548 0.27352,-11.93383 -1.0431,-0.58375 -13.78108,-10.04521 -28.30661,-21.02546 -20.32604,-15.36502 -27.0558,-19.94573 -29.21314,-19.8844 -7.7703,0.22093 -43.73963,11.69015 -62.89742,20.05555 -11.28368,4.9271 -14.99331,7.73564 -15.01151,11.36515 -0.006,1.2625 -2.23592,16.69545 -4.95464,34.29545 l -4.94312,32 2.31857,3.52295 C 387.84986,397.36741 427.87367,433 434.54532,433 c 1.32144,0 5.90183,-1.39458 10.17865,-3.09907 z M 644.5699,339.77878 c -1.68043,-10.70155 -10.78008,-33.77628 -18.79905,-47.67027 -10.59725,-18.36123 -27.71419,-37.95983 -44.14376,-50.54387 -5.83019,-4.46556 -8.09108,-5.657 -9.84738,-5.18934 -5.19934,1.38444 -5.19949,1.79531 -0.004,12.23027 5.68464,11.41789 7.53532,16.20622 12.89117,33.3537 l 3.89154,12.45927 8.9709,6.01285 c 15.72051,10.53685 28.00527,24.6579 36.92311,42.44225 l 3.69746,7.37363 3.50228,-3.37363 c 3.11157,-2.99728 3.43709,-3.78878 2.91795,-7.09486 z M 301.08691,322.25 c 5.16569,-7.0125 14.23438,-19.24372 20.15263,-27.18048 C 328.73267,285.02074 332,279.81489 332,277.92485 c 0,-4.15809 3.82448,-15.80518 7.15042,-21.77592 1.63942,-2.9431 2.79974,-5.5321 2.57848,-5.75336 -0.50295,-0.50296 -15.48809,14.7077 -19.80633,20.10443 -6.18321,7.72745 -15.16896,22.1 -20.00648,32 C 297.75648,311.01266 290,331.64469 290,334.19648 c 0,2.3769 2.59751,-0.42199 11.08691,-11.94648 z m 93.10876,-25.88247 c 22.11192,-10.12203 44.21515,-17.89715 60.97353,-21.4483 3.11807,-0.66073 6.11492,-1.47679 6.65969,-1.81348 0.54476,-0.33668 2.7934,-5.11071 4.99698,-10.60895 2.20358,-5.49824 6.52194,-15.32622 9.59636,-21.83995 l 5.58984,-11.84315 -3.24727,-3.03341 c -8.3103,-7.76298 -23.68899,-16.18424 -35.28979,-19.32443 -6.45237,-1.74657 -6.76058,-1.73873 -17.12454,0.43592 -15.07032,3.16217 -26.9514,7.29467 -41.89149,14.57076 -11.5395,5.61994 -13.79356,7.14893 -19.57685,13.27953 -7.43568,7.88221 -16.71225,21.34287 -20.2209,29.3413 -2.88578,6.57851 -5.07018,15.40853 -4.30507,17.4024 0.62147,1.61951 37.14283,20.37637 39.83951,20.46101 0.93261,0.0293 7.23261,-2.48139 14,-5.57925 z M 563,230.98469 c 2.0186,-1.32513 1.47279,-1.68243 -14.5,-9.49209 -15.50578,-7.58132 -27.4439,-11.65992 -43.85017,-14.9812 C 487.13331,202.96536 460,200.75807 460,202.87915 c 0,0.48353 3.7125,2.96566 8.25,5.51584 4.5375,2.55018 10.85357,6.86219 14.03572,9.58224 6.72125,5.74523 6.79274,5.76147 28.21428,6.4093 16.03286,0.48486 35.21777,3.13458 43,5.93893 4.90038,1.76586 7.53566,1.94873 9.5,0.65923 z M 260.10463,544.41748 c -10.75006,-2.89085 -22.71753,-11.58844 -29.00392,-21.07915 -3.67956,-5.55513 -3.97687,-9.95476 -0.93409,-13.82303 1.98521,-2.52377 2.57781,-2.70572 7.07718,-2.17283 13.26334,1.57085 34.0112,16.41713 41.00329,29.3402 3.11497,5.75723 2.81941,6.40464 -3.74709,8.20779 -5.11153,1.40361 -7.73789,1.31732 -14.39537,-0.47298 z M 667.5,544.53201 c -2.2,-0.82605 -4.1125,-1.50867 -4.25,-1.51695 -1.13573,-0.0684 0.29772,-4.19352 2.82673,-8.13463 6.43461,-10.02747 21.59597,-21.80794 33.41111,-25.96062 6.9895,-2.45661 10.59017,-2.42743 13.31149,0.10787 5.57706,5.19582 3.13532,12.01832 -8.09184,22.60945 -12.08581,11.40114 -27.21828,16.64555 -37.20749,12.89488 z M 282.42459,526.08086 c -11.51497,-8.46821 -19.50227,-29.02085 -16.64814,-42.83843 2.04664,-9.90832 8.65594,-13.20257 14.32109,-7.13801 6.80108,7.28058 11.91531,22.79479 11.8805,36.03992 -0.0214,8.14297 -2.46745,16.85566 -4.73215,16.85566 -0.46853,0 -2.63812,-1.31361 -4.8213,-2.91914 z m 371.04046,-0.79576 c -4.37698,-9.2238 -2.44889,-26.19833 4.66546,-41.07385 3.23781,-6.77001 4.60914,-8.59632 7.48423,-9.96736 3.1529,-1.50351 3.79989,-1.52343 6.20267,-0.19098 4.82987,2.67838 6.37437,7.27098 5.86749,17.44709 -0.51986,10.43646 -2.88328,17.57963 -8.45541,25.55541 C 665.82512,521.92834 658.01418,529 656.0362,529 c -0.44457,0 -1.60159,-1.67171 -2.57115,-3.7149 z M 225.95163,496.26082 C 213.93358,490.22232 199,471.40216 199,462.29482 199,458.00681 202.7501,454 206.76337,454 c 3.72177,0 13.46763,5.88487 19.5579,11.8097 9.36819,9.11369 19.15724,26.89497 17.37018,31.55198 -1.08425,2.82552 -11.17117,2.19957 -17.73982,-1.10086 z m 474.19148,1.84879 c -4.92713,-3.12198 10.3564,-28.47964 22.48457,-37.30526 10.37515,-7.54995 15.73059,-8.70693 19.29974,-4.16949 3.07755,3.91247 2.61554,8.53609 -1.67061,16.71891 -7.34258,14.01792 -22.63996,25.66409 -33.66653,25.63092 -2.79966,-0.008 -5.70088,-0.40221 -6.44717,-0.87508 z M 248.97206,483.3154 c -6.97782,-7.94731 -10.47566,-19.68988 -9.76288,-32.77496 0.46082,-8.45978 3.26488,-16.66093 6.54908,-19.15444 2.75023,-2.08808 7.07307,-1.64558 9.71289,0.99424 6.20299,6.20299 8.9923,28.57994 5.37492,43.11976 -1.22071,4.9066 -5.38125,11.5 -7.25667,11.5 -0.76022,0 -2.83802,-1.65807 -4.61734,-3.6846 z m 436.99218,0.4346 c -4.0221,-6.51521 -5.22889,-13.18739 -4.73037,-26.15358 C 681.90703,440.08792 686.19575,430 692.96606,430 c 4.06573,0 6.72328,2.55374 9.00564,8.65391 3.66664,9.79997 2.41082,27.90434 -2.60894,37.61148 C 697.28041,480.29221 691.03552,487 689.36894,487 c -0.76909,0 -2.3012,-1.4625 -3.4047,-3.25 z M 202.10719,436.96299 c -6.00956,-2.72663 -16.35924,-13.69826 -20.11139,-21.31996 -3.42975,-6.9668 -5.966,-15.55247 -5.98393,-20.25667 -0.0152,-3.98664 4.19001,-8.38636 8.01561,-8.38636 4.96643,0 16.52853,11.57195 23.58575,23.60585 3.12082,5.32159 6.96115,16.66405 7.86351,23.22501 l 0.71094,5.16914 -4.84384,-0.022 c -2.66411,-0.0121 -6.8206,-0.91885 -9.23665,-2.01505 z m 525.71294,1.5238 c -0.91606,-0.91605 1.14319,-11.29477 3.56455,-17.96554 3.55683,-9.79894 8.30195,-17.1023 16.7164,-25.7287 8.62664,-8.84395 11.88178,-9.9006 16.44437,-5.338 8.31002,8.31001 -6.51313,38.86892 -22.78802,46.97904 -4.64664,2.31551 -12.51574,3.47477 -13.9373,2.0532 z m -502.87618,-6.56551 c -8.17814,-11.48513 -7.88578,-36.73971 0.56651,-48.93638 4.8187,-6.95338 12.11041,-7.17762 15.47115,-0.47579 2.35115,4.68854 1.90937,25.18459 -0.71572,33.20509 -2.6307,8.03768 -6.52483,14.62193 -10.19239,17.23346 l -2.91878,2.07836 z m 486.58429,-0.59097 C 704.53582,424.53935 700.57778,412.08163 700.62088,397 c 0.0326,-11.39026 1.50015,-16.4941 5.30919,-18.46384 5.48223,-2.83497 10.39459,0.3393 14.42558,9.32153 3.68121,8.20283 5.06474,18.42565 3.6915,27.27635 -1.2177,7.8483 -4.26876,15.85155 -6.97761,18.30302 -1.6114,1.4583 -2.03716,1.29643 -5.5413,-2.10675 z M 192.97013,375.04485 c -4.49109,-2.3751 -12.16859,-10.55337 -14.86032,-15.82961 -3.58118,-7.0197 -6.17128,-18.42801 -6.30789,-27.78364 -0.12205,-8.35882 -0.005,-8.86022 2.59089,-11.09306 2.99926,-2.57985 5.62856,-2.93265 8.88153,-1.19172 9.60716,5.1416 20.67546,37.36529 18.29252,53.25591 -0.5808,3.87305 -1.0342,4.59031 -2.87813,4.55307 -1.2038,-0.0243 -3.77717,-0.88423 -5.7186,-1.91095 z m 548.62253,-3.18493 c -1.84901,-14.89751 7.93838,-44.62627 17.05215,-51.79517 5.78539,-4.55079 12.28961,-0.80264 13.09164,7.54424 1.98068,20.61337 -11.94934,46.76624 -26.1357,49.06837 l -3.34284,0.54247 z M 210.7143,371.24399 c -5.5015,-13.74961 -0.89361,-35.75978 9.82928,-46.95081 4.11291,-4.29248 7.54087,-5.34921 11.91162,-3.672 3.20739,1.23079 4.81588,6.25312 4.09719,12.79302 -1.86317,16.95428 -9.11468,32.12288 -18.75787,39.2374 -4.31012,3.1799 -5.32542,2.97805 -7.08022,-1.40761 z m 512.58443,-0.66531 C 714.2481,362.44138 707,345.03345 707,331.43362 707,322.67966 708.88928,320 715.0612,320 c 3.07397,0 4.35724,0.73029 7.74888,4.40979 7.76228,8.42107 12.2238,20.56112 12.14615,33.05031 -0.0496,7.97532 -2.64489,16.88129 -5.04999,17.32942 -0.87657,0.16332 -3.84994,-1.73156 -6.60751,-4.21084 z M 209.55125,314.08293 c -2.83302,-4.58393 -0.54532,-20.55342 4.38115,-30.58293 5.1921,-10.57027 15.75579,-20.5 21.80884,-20.5 3.75134,0 7.25876,4.25118 7.25876,8.798 0,8.15245 -6.89611,23.18814 -14.75643,32.17366 -7.22104,8.25474 -16.67809,13.37036 -18.69232,10.11127 z m 516.76872,-0.54438 c -1.74901,-0.76074 -5.93372,-4.17994 -9.29934,-7.59822 -7.59728,-7.71616 -15.81851,-23.58185 -16.71363,-32.25471 -0.51482,-4.98815 -0.32238,-5.76114 2.01648,-8.10001 4.65256,-4.65256 10.87644,-2.54436 19.3082,6.54024 9.67727,10.42652 15.69095,29.60538 12.73803,40.62415 -0.70018,2.61273 -3.27572,2.86503 -8.04974,0.78855 z M 194.20048,312.32701 C 187.46462,309.01007 180.70156,298.48655 177.92379,287 c -1.62468,-6.71829 -1.64997,-22.97299 -0.0447,-28.71339 1.35888,-4.85927 4.24676,-7.28661 8.66908,-7.28661 5.33829,0 8.72934,5.22088 12.66559,19.5 3.62027,13.13286 3.13997,41.95148 -0.71905,43.14432 -0.5471,0.16911 -2.47951,-0.42368 -4.29425,-1.31731 z m 548.64969,-2.00846 c -2.19632,-6.21162 -1.62948,-30.01159 0.94012,-39.47266 2.52806,-9.30809 6.4926,-17.39174 9.25457,-18.8699 3.2513,-1.74004 8.03247,-0.77872 10.12342,2.03546 5.81743,7.8296 4.40357,32.01933 -2.69031,46.0287 C 758.27131,304.39797 750.05824,313 748.10413,313 c -0.51731,0 -1.60728,0.25585 -2.42217,0.56855 -1.04054,0.39929 -1.88355,-0.56822 -2.83179,-3.25 z M 207.53874,260.8185 c -3.0697,-10.3368 -1.15545,-24.77603 5.00415,-37.74639 3.32891,-7.00973 8.82535,-14.96524 12.31326,-17.82211 3.99483,-3.27207 11.04056,-0.17509 12.39915,5.4501 1.37417,5.68973 -4.96408,26.73818 -11.64721,38.67875 C 221.34895,256.98854 213.2785,266 210.72258,266 c -1.11716,0 -2.13891,-1.66284 -3.18384,-5.1815 z m 518.40508,0.31726 C 717.32264,252.19144 706,225.05803 706,213.34268 706,207.61077 709.26187,204 714.43992,204 c 3.10631,0 4.07056,0.68767 8.01982,5.71943 5.5836,7.11408 11.04976,17.91111 13.03161,25.74067 1.77745,7.02202 1.85543,20.37902 0.15199,26.03195 -1.72865,5.73658 -3.90379,5.65668 -9.69952,-0.35629 z"
         id="path903" />
      <path
         style="fill:#333333;fill-opacity:1"
         d="m 460,989.59012 c -17.24619,-6.15363 -58.8256,-22.4756 -68.74894,-26.98734 -5.36308,-2.43837 -14.70106,-6.4582 -20.75106,-8.93294 -6.05,-2.47475 -16.625,-7.17416 -23.5,-10.44314 -6.875,-3.26899 -17.11383,-8.07219 -22.75296,-10.67379 -5.63914,-2.60161 -20.93914,-10.2228 -34,-16.93599 C 200.46478,869.46953 138.03824,822.37709 109.16459,779.01454 100.95387,766.68365 92.751292,749.71376 89.823125,739 L 87.5,730.5 87.239431,455.42772 86.978863,180.35545 112.23943,173.584 c 13.89331,-3.72429 29.31057,-8.0511 34.26057,-9.61513 4.95,-1.56403 21.78583,-6.27736 37.41296,-10.47407 15.62713,-4.19671 31.82713,-8.70067 36,-10.0088 4.17287,-1.30814 20.95646,-6.0069 37.29687,-10.44169 16.34041,-4.4348 30.96541,-8.54222 32.5,-9.1276 1.53459,-0.58539 16.82913,-4.85602 33.98785,-9.4903 17.15873,-4.63429 34.70873,-9.53058 39,-10.88066 4.29128,-1.35008 18.82732,-5.423506 32.30232,-9.052059 13.475,-3.628553 28.325,-7.742203 33,-9.141444 4.675,-1.399242 16.30621,-4.70056 25.84713,-7.336263 l 17.34713,-4.792188 19.15287,5.40215 c 10.53408,2.971182 32.97333,9.214128 49.86501,13.873214 16.89168,4.659085 35.79168,10.00772 42,11.88586 6.20832,1.87813 23.30187,6.62151 37.98566,10.54083 14.68379,3.91932 28.63379,7.81314 31,8.65294 2.36621,0.8398 18.4736,5.35672 35.79419,10.03761 17.3206,4.68088 34.8706,9.58616 39,10.90062 4.12941,1.31446 19.43301,5.59214 34.00801,9.50595 14.575,3.91382 30.55,8.38187 35.5,9.929 4.95,1.54713 20.36726,5.87399 34.26057,9.61523 l 25.26057,6.80226 -0.2655,275.06527 -0.26549,275.06527 -2.7833,9.46499 c -7.63179,25.95295 -24.55908,50.61883 -54.03189,78.73347 -11.10189,10.59028 -31.33019,27.00185 -42.49764,34.47906 -4.22253,2.82721 -9.25232,6.36633 -11.17732,7.86471 -14.39895,11.20783 -65.379,40.85082 -102.5,59.59989 -23.1744,11.70493 -31.08672,15.47747 -58,27.65398 -34.57702,15.64386 -107.64828,44.72171 -112.31344,44.69382 -0.92761,-0.006 -5.96156,-1.53546 -11.18656,-3.3998 z m 30.5,-54.08907 c 27.96134,-10.91556 57.94743,-23.18735 63.35942,-25.92981 2.87926,-1.45904 12.30127,-5.73042 20.9378,-9.49197 27.37641,-11.92352 73.68206,-35.80334 106.06727,-54.6989 13.34865,-7.78844 51.71817,-33.77222 62.63551,-42.41666 11.45171,-9.06757 28.19879,-24.35595 33.91803,-30.96371 l 3.8949,-4.5 -309.82154,-0.2516 c -170.40184,-0.13838 -310.0082,-0.0649 -310.23636,0.16324 -0.99167,0.99166 3.68977,6.19975 14.64169,16.28884 28.93922,26.65928 71.27489,55.44214 118.09613,80.29033 26.33607,13.97664 57.26819,29.22963 73.73674,36.36046 8.37628,3.62689 17.60128,7.79801 20.5,9.26914 5.96571,3.02766 41.03413,17.39124 65.77041,26.93872 10.11817,3.90532 17.27356,6.14023 18.5,5.77826 1.1,-0.32464 9.2,-3.401 18,-6.83634 z M 266.63186,844.21336 c -0.24837,-0.40187 -0.0275,-2.75178 0.49072,-5.22202 2.67847,-12.76653 2.81995,-12.13911 -4.60916,-20.43984 -4.45612,-4.97893 -6.27644,-7.67835 -5.37556,-7.9716 0.74918,-0.24386 5.20651,-0.95737 9.90519,-1.58556 l 8.54304,-1.14216 4.27916,-9.17609 4.27915,-9.17609 4.40043,8.67407 c 2.42024,4.77074 4.81199,8.92842 5.31499,9.2393 0.50301,0.31087 4.45283,1.07493 8.77737,1.69789 4.32455,0.62297 8.29555,1.53302 8.82444,2.02234 0.59341,0.549 -1.60551,3.47664 -5.74247,7.64554 l -6.7041,6.75588 1.31487,8.98249 c 0.72318,4.94037 0.98214,9.12004 0.57546,9.28816 -0.40668,0.16812 -4.41628,-1.37507 -8.91022,-3.4293 l -8.17081,-3.73498 -8.37045,4.15132 c -4.60376,2.28323 -8.57368,3.82252 -8.82205,3.42065 z m 93.8497,-0.2432 c -0.33104,-0.53563 0.12846,-4.8715 1.0211,-9.63525 l 1.623,-8.66137 -7.24829,-7.29699 c -4.91801,-4.95106 -6.78679,-7.44521 -5.81283,-7.75803 0.7895,-0.25357 4.99983,-0.95517 9.35629,-1.55911 4.35646,-0.60394 8.51834,-1.59397 9.24864,-2.20005 0.73029,-0.60609 3.1355,-4.71366 5.34492,-9.12794 l 4.01711,-8.02595 4.18582,9.0617 4.18582,9.06169 8.04843,1.13867 c 12.8582,1.81913 12.53759,1.20116 4.99529,9.62835 l -6.65011,7.43033 1.26337,8.49182 c 0.69486,4.67049 0.95544,8.79975 0.57907,9.17611 -0.37637,0.37637 -4.28451,-1.07099 -8.68476,-3.21636 l -8.00046,-3.90067 -8.43526,4.18347 c -4.83033,2.39559 -8.69249,3.76726 -9.03715,3.20958 z M 480.5,841.03062 c -3.85,-2.17022 -7.74079,-3.96492 -8.64621,-3.98824 -0.90541,-0.0233 -5.08489,1.59064 -9.28772,3.58656 -4.20284,1.99592 -7.84064,3.42982 -8.08401,3.18646 -0.24337,-0.24337 0.0751,-4.3111 0.70777,-9.0394 l 1.15026,-8.5969 -6.67005,-7.4526 C 446.00152,814.62757 443,810.98727 443,810.63695 443,810.28663 444.10662,810 445.45915,810 c 1.35254,0 5.80529,-0.49768 9.89501,-1.10595 l 7.43586,-1.10594 2.63309,-6.14406 c 1.4482,-3.37923 3.48712,-7.25894 4.53093,-8.62159 l 1.89783,-2.47754 4.04556,8.3657 c 2.22506,4.60114 4.18979,8.50993 4.36606,8.6862 0.17627,0.17627 3.6766,0.80556 7.7785,1.39842 13.72894,1.98427 13.28247,1.12437 4.94291,9.51996 l -7.34495,7.3943 1.75102,8.14847 c 0.96306,4.48166 1.99221,8.77702 2.28701,9.54525 0.89569,2.33411 -1.82753,1.57079 -9.17798,-2.5726 z m 66.09255,3.11913 c -0.26999,-0.43685 -0.0728,-3.68676 0.43817,-7.22201 1.58213,-10.94598 1.54841,-11.05875 -5.62125,-18.80265 -7.1362,-7.70776 -7.1561,-7.60044 1.59053,-8.57932 12.46973,-1.39555 11.73021,-0.92555 16.00086,-10.16934 2.12846,-4.60704 4.11236,-8.37643 4.40868,-8.37643 0.29631,0 2.36955,3.3358 4.60719,7.41289 2.23764,4.0771 4.73714,7.96787 5.55444,8.64618 0.81731,0.6783 5.61563,1.74378 10.66295,2.36772 l 9.17693,1.13445 -7.31229,7.69794 -7.31229,7.69794 1.26851,8.52636 c 0.69768,4.6895 0.96058,8.8343 0.58421,9.21066 -0.37637,0.37637 -4.28451,-1.07099 -8.68476,-3.21636 l -8.00046,-3.90067 -8.43526,4.18347 c -4.63939,2.3009 -8.65617,3.82603 -8.92616,3.38917 z m 93.40084,-0.88859 c -0.004,-0.96864 0.51876,-5.21297 1.16088,-9.43185 l 1.16749,-7.67069 -6.66088,-7.44236 C 631.9974,814.62296 629,811.04941 629,810.77504 c 0,-0.27437 2.93815,-0.79987 6.52921,-1.16779 12.44293,-1.27481 11.97382,-0.99268 17.00874,-10.22937 2.51174,-4.60783 4.7973,-8.37788 5.07903,-8.37788 0.28173,0 2.2537,3.76939 4.38216,8.37643 4.27065,9.24379 3.53113,8.77379 16.00086,10.16934 8.72582,0.97655 8.70452,0.85981 1.58121,8.66464 -3.61967,3.96596 -6.58121,8.04237 -6.58121,9.05867 0,1.0163 0.48556,4.97733 1.07902,8.80229 0.59347,3.82497 0.91798,7.43763 0.72114,8.02814 -0.20675,0.62027 -3.69279,-0.65207 -8.25502,-3.01292 C 662.20172,838.83896 658.04222,837 657.30181,837 c -0.74041,0 -4.93622,1.80502 -9.32401,4.01116 -6.77025,3.40402 -7.9788,3.74458 -7.98441,2.25 z M 253.5,741.61671 c 2.75,-1.30006 6.27309,-3.71994 7.82908,-5.37749 2.82016,-3.00424 5.90137,-10.05733 5.01803,-11.4866 C 266.09128,724.33868 263.22008,724 259.96666,724 c -5.53399,0 -6.01328,0.18947 -7.43527,2.9393 -2.38449,4.6111 -5.25824,6.06115 -12.0039,6.05696 -11.23258,-0.007 -15.9824,-5.64228 -16.01127,-18.99626 -0.0274,-12.68022 5.20131,-19.23077 15.35026,-19.23077 6.00582,0 10.55302,2.29804 12.28367,6.20786 1.3004,2.93779 1.5302,3.02291 8.16135,3.02291 6.6104,0 6.8021,-0.0702 6.14466,-2.25 -2.44887,-8.11935 -8.33862,-14.49939 -15.3146,-16.58944 -5.50132,-1.64824 -16.97511,-1.43661 -22.40407,0.41322 -12.00668,4.09109 -19.74831,20.35907 -16.70806,35.10975 2.10591,10.21743 7.19229,17.11355 15.46329,20.96516 7.11781,3.3146 18.95913,3.30004 26.00728,-0.032 z m 105.77644,0.80476 c 5.63397,-1.91968 11.19597,-7.74845 12.69067,-13.29932 0.64782,-2.40583 0.96711,-12.06084 0.8038,-24.30668 L 372.5,684.5 h -5.5 -5.5 l -0.5,21 c -0.62234,26.13822 -1.21055,27.5 -11.87849,27.5 -3.85244,0 -5.65825,-0.55712 -7.81575,-2.4113 L 338.5,728.1774 338,706.3387 337.5,684.5 h -5.5 -5.5 v 23.07572 23.07572 l 2.81437,4.25011 c 5.3783,8.12201 18.51711,11.41961 29.96207,7.51992 z m 74.30216,-0.3178 c 4.78751,-2.17438 7.9802,-5.89902 9.55121,-11.14261 2.91934,-9.74386 -2.98861,-17.49408 -17.06209,-22.38257 -4.6259,-1.60682 -9.23355,-3.74432 -10.23923,-4.75 -4.12057,-4.12057 -1.0272,-9.82849 5.3265,-9.82849 4.03546,0 7.84501,2.67081 7.84501,5.5 0,1.17949 1.38889,1.5 6.5,1.5 6.07895,0 6.49893,-0.14575 6.48355,-2.25 -0.009,-1.2375 -1.0234,-4.05 -2.25412,-6.25 -3.19904,-5.71853 -9.13031,-8.5 -18.1256,-8.5 C 408.84994,684 402,689.56193 402,699.91769 c 0,9.64206 3.41183,13.27601 17.04227,18.15174 4.91287,1.75738 9.35199,3.7007 9.86472,4.3185 2.17864,2.6251 2.20949,6.19428 0.077,8.90535 C 424.73537,736.69446 413,733.57572 413,727.04545 413,725.19111 412.38231,725 406.38871,725 h -6.61129 l 0.69525,3.75 c 1.89087,10.19877 8.94458,15.05082 22.02733,15.15196 4.77661,0.0369 8.29548,-0.53426 11.0786,-1.79829 z m 59.96635,-0.83428 c 10.63057,-5.52119 15.99826,-15.95471 15.24697,-29.63648 -0.94497,-17.20869 -11.824,-27.60124 -28.91619,-27.62314 -13.51004,-0.0173 -21.59797,4.618 -26.91977,15.42813 -2.70886,5.50247 -3.11385,7.37944 -3.11385,14.4313 0,13.22982 5.57005,22.54816 16.63694,27.83252 4.39885,2.10042 6.13606,2.35231 14.02095,2.03298 6.66178,-0.26979 10.05089,-0.91028 13.04495,-2.46531 z m -17.85972,-8.3291 c -4.69031,-0.79489 -8.55002,-3.57094 -11.18523,-8.04482 -2.8551,-4.8472 -2.82511,-16.99091 0.0541,-21.89207 7.57051,-12.88716 26.30385,-10.9794 30.99917,3.15689 2.89378,8.71235 0.28806,19.62923 -5.7637,24.14752 -3.19377,2.38449 -9.08239,3.48356 -14.10431,2.63248 z m 83.63661,7.71699 c 5.1717,-3.03082 9.2741,-8.387 10.28143,-13.42364 L 570.25,724 h -6.11581 c -5.88006,0 -6.20289,0.13387 -8.375,3.47291 -1.24255,1.9101 -3.49565,3.98926 -5.00687,4.62036 -4.06678,1.69831 -14.20706,0.70308 -16.85608,-1.65437 -7.68259,-6.83699 -7.84199,-25.91115 -0.2727,-32.63101 2.6553,-2.35732 9.67258,-3.75602 13.97531,-2.7856 3.87546,0.87406 8.01004,4.17008 8.95135,7.13588 0.48955,1.54243 1.65055,1.84183 7.14219,1.84183 H 570.25 l -0.6341,-3.25 c -1.03962,-5.32851 -5.65658,-10.9037 -11.63298,-14.04735 -5.13848,-2.7029 -6.08165,-2.861 -15.01376,-2.51682 -8.26396,0.31844 -10.16845,0.74092 -14.3276,3.17834 -12.77738,7.48804 -17.23083,26.8714 -9.69218,42.18457 5.38376,10.93597 12.24377,14.5853 26.60007,14.15046 7.79526,-0.23611 9.70401,-0.65769 13.77239,-3.04192 z m 61,0 c 5.1717,-3.03082 9.2741,-8.387 10.28143,-13.42364 L 631.25,724 h -6.04344 c -5.78806,0 -6.13178,0.14293 -8.13384,3.38234 -1.14973,1.86029 -3.43538,3.93945 -5.07924,4.62036 -4.31084,1.78561 -14.36713,0.86581 -17.09724,-1.5638 -7.68259,-6.83699 -7.84199,-25.91115 -0.2727,-32.63101 2.6553,-2.35732 9.67258,-3.75602 13.97531,-2.7856 3.87546,0.87406 8.01004,4.17008 8.95135,7.13588 0.48955,1.54243 1.65055,1.84183 7.14219,1.84183 H 631.25 l -0.6341,-3.25 c -1.03962,-5.32851 -5.65658,-10.9037 -11.63298,-14.04735 -5.13848,-2.7029 -6.08165,-2.861 -15.01376,-2.51682 -8.26396,0.31844 -10.16845,0.74092 -14.3276,3.17834 -12.77738,7.48804 -17.23083,26.8714 -9.69218,42.18457 5.38376,10.93597 12.24377,14.5853 26.60007,14.15046 7.79526,-0.23611 9.70401,-0.65769 13.77239,-3.04192 z M 287,732 v -11 h 3.47695 c 4.09554,0 4.67904,0.76107 10.15859,13.25 l 3.83909,8.75 h 6.73793 c 7.89606,0 7.87545,1.10863 0.26127,-14.05212 l -4.66737,-9.29329 2.34677,-1.80506 c 1.29072,-0.99278 2.60141,-1.81506 2.91263,-1.82729 0.31122,-0.0122 1.54872,-1.77101 2.75,-3.90839 3.06746,-5.45781 3.03609,-14.56631 -0.0659,-19.12402 -1.2375,-1.81826 -3.40365,-4.16007 -4.81366,-5.20401 -3.31259,-2.45256 -14.18726,-3.94245 -26.091,-3.57461 L 274.5,684.5 274.2349,713.75 273.96979,743 H 280.4849 287 Z m 0,-29 v -8 h 7 c 8.55862,0 11,1.77555 11,8 0,6.22445 -2.44138,8 -11,8 h -7 z m 391,35.5 V 734 H 664.5 651 v -8 -8 H 663.5 676 V 713.5 709 H 663.5 651 v -7.5 -7.5 h 13.5 13.5 v -5.02159 -5.0216 l -19.25,0.2716 L 639.5,684.5 639.2349,713.75 638.96979,743 H 658.4849 678 Z m 21,-6.5 v -11 h 3.83696 3.83695 l 5.10427,11 5.10426,11 h 7.10627 7.10626 l -6.07378,-11.75 c -5.52633,-10.69092 -5.9144,-11.84013 -4.30554,-12.75 3.78021,-2.13784 8.23251,-7.70674 8.86747,-11.09138 1.07815,-5.74701 -0.10191,-12.08894 -2.94236,-15.81296 -4.19213,-5.49617 -9.69139,-7.01283 -25.58984,-7.05755 L 687.5,684.5 687.2349,713.75 686.96979,743 H 692.9849 699 Z m 0,-29 v -8 h 6.88922 c 8.79031,0 11.56533,1.87476 11.56533,7.81337 0,6.49698 -2.29291,8.18663 -11.10954,8.18663 H 699 Z M 807.75217,443.28635 c 0.23931,-214.67497 0.1628,-226.26115 -1.5,-227.14472 -0.96369,-0.51208 -13.00217,-3.92346 -26.75217,-7.58083 -13.75,-3.65738 -29.95,-8.18093 -36,-10.05235 -6.05,-1.87141 -22.925,-6.58999 -37.5,-10.48571 -14.575,-3.89573 -29.2,-7.9643 -32.5,-9.04127 -3.3,-1.07697 -21.3,-6.17828 -40,-11.33624 -18.7,-5.15795 -49.75,-13.72348 -69,-19.0345 -19.25,-5.31102 -37.7,-10.52181 -41,-11.57952 C 513.6517,133.87463 473.0805,123 471.15222,123 469.02023,123 427.68126,134.06606 417,137.49604 c -4.125,1.32463 -21.75631,6.2542 -39.18069,10.95459 -17.42439,4.70039 -32.94939,9.03011 -34.5,9.62158 -1.55062,0.59148 -16.85827,4.8671 -34.01699,9.50138 -17.15873,4.63429 -34.70873,9.53058 -39,10.88066 -4.29128,1.35008 -18.82732,5.41277 -32.30232,9.0282 -13.475,3.61543 -28.775,7.88827 -34,9.49519 -5.225,1.60691 -22.1,6.31973 -37.5,10.47292 -15.4,4.15319 -29.0125,7.99119 -30.25,8.52891 l -2.25,0.97765 v 225.85477 c 0,124.22013 0.30066,226.15544 0.66814,226.52291 0.36747,0.36748 151.90497,0.55498 336.75,0.41667 L 807.5,669.5 Z M 385,645.32741 c -1.375,-0.28547 -2.95,-0.86728 -3.5,-1.29291 -0.55,-0.42562 -2.6861,-1.31694 -4.7469,-1.98071 -6.58782,-2.12189 -8.93382,-8.74997 -4.5031,-12.72246 1.2375,-1.10952 5.175,-3.10046 8.75,-4.42432 5.8042,-2.14935 8.11604,-2.40701 21.59665,-2.40701 9.25626,0 15.63956,0.41697 16.5,1.0778 0.77184,0.5928 3.54085,1.86752 6.15335,2.83271 2.6125,0.9652 4.75,2.39139 4.75,3.16932 0,2.8824 -7.02949,9.19992 -12.76805,11.47485 -3.15257,1.24977 -6.32457,2.72884 -7.04888,3.28681 -1.40777,1.08447 -21.01174,1.85197 -25.18307,0.98592 z m 150.75,0.0207 c -1.5125,-0.2645 -2.75,-0.90101 -2.75,-1.41448 0,-0.51347 -0.5625,-0.93394 -1.25,-0.93437 -0.6875,-4.3e-4 -3.96935,-1.28727 -7.293,-2.85964 C 518.6247,637.38039 513,632.1969 513,629.58126 c 0,-0.69591 3.2625,-2.57388 7.25,-4.17327 6.8402,-2.74362 8.0696,-2.90799 21.75,-2.90799 12.99015,0 15.12477,0.2507 20.5,2.40758 7.82285,3.13902 10.5,5.5897 10.5,9.61175 0,3.62156 -1.61093,5.3248 -8,8.45837 -3.63068,1.78069 -6.62502,2.26929 -15.5,2.52916 -6.05,0.17716 -12.2375,0.1057 -13.75,-0.1588 z M 434.84667,624.6033 c -1.45933,-0.76142 -4.38433,-1.93588 -6.5,-2.60992 -23.00258,-7.32849 -67.37579,-27.35483 -81.75723,-36.89834 -2.1508,-1.42727 -6.4258,-4.19838 -9.5,-6.15802 -25.76183,-16.42183 -53.13857,-40.63605 -70.04342,-61.95212 -4.15031,-5.23331 -8.35624,-10.40831 -9.3465,-11.5 -2.20264,-2.42826 -12.71852,-18.75127 -16.26402,-25.24542 -1.42314,-2.60671 -4.11567,-7.43948 -5.9834,-10.73948 -1.86773,-3.3 -3.39484,-6.45 -3.39358,-7 0.001,-0.55 0.49344,-0.1 1.09373,1 0.60029,1.1 3.51161,6.10854 6.46959,11.1301 2.95799,5.02155 5.37816,9.42937 5.37816,9.79516 0,1.43333 10.80141,16.65241 19.57058,27.57474 13.54735,16.87373 42.35749,44.55301 51.5041,49.48245 1.41608,0.76318 4.09732,2.80994 5.95831,4.54837 3.02004,2.82114 16.26744,11.10094 35.75111,22.34491 3.69374,2.13165 12.22324,6.28039 18.95443,9.21943 6.73119,2.93904 13.25619,5.99496 14.5,6.79093 3.51561,2.24982 19.6391,8.21306 35.63406,13.17919 7.99733,2.48302 14.68322,4.6572 14.85754,4.83152 0.17432,0.17432 0.0332,1.05635 -0.31358,1.96007 -0.76867,2.00313 -3.03969,2.08831 -6.56988,0.24643 z m 67.76032,-0.18509 C 502.27314,623.54823 502,622.66134 502,622.44735 c 0,-0.21398 5.2875,-2.0266 11.75,-4.02802 15.99788,-4.95452 33.06015,-11.1638 37.02755,-13.47503 1.80265,-1.05015 6.75265,-3.35326 11,-5.11803 11.00412,-4.57221 28.59567,-13.34235 30.41798,-15.16466 0.8505,-0.85049 4.16396,-2.96253 7.36325,-4.69341 8.57613,-4.63986 15.94586,-9.49661 24.93593,-16.4331 4.40291,-3.39716 10.70529,-8.25673 14.00529,-10.79904 8.22398,-6.33574 29.48523,-27.41351 38.06455,-37.73606 6.67379,-8.02984 19.53923,-26.54038 22.24108,-32 0.68045,-1.375 2.24005,-3.90824 3.46578,-5.62942 1.22572,-1.72118 2.79749,-3.97118 3.49281,-5 4.54127,-6.71943 -3.49886,7.41918 -10.02523,17.62942 -11.31625,17.70382 -12.17654,18.92149 -17.30939,24.5 -2.53031,2.75 -5.88791,6.8 -7.46134,9 -3.64619,5.09816 -23.90678,25.00658 -30.46826,29.93865 -2.75,2.0671 -7.53673,5.99167 -10.63718,8.72128 -9.20001,8.09962 -38.29145,26.46744 -53.86219,34.00764 -7.97466,3.86176 -14.72466,7.34882 -15,7.74901 -0.82652,1.20127 -17.49652,7.92535 -34.00063,13.71462 -8.525,2.99037 -16.91801,6.09669 -18.65113,6.90292 -4.00385,1.86256 -4.99031,1.84264 -5.74188,-0.11591 z M 341.6014,617.35786 c -7.44261,-1.59573 -17.10224,-6.00063 -19.73312,-8.99852 -4.39303,-5.00585 -2.48677,-11.53813 3.88332,-13.3072 12.8997,-3.58243 38.02434,2.0383 48.23108,10.78996 l 3.48269,2.98619 -1.98033,2.18824 c -2.55937,2.82808 -6.74592,4.96483 -12.98504,6.62738 -6.29142,1.67648 -12.11711,1.59674 -20.8986,-0.28605 z M 580.5,617.65673 c -6.14213,-1.59463 -10.38017,-3.76185 -12.98504,-6.6402 l -1.98033,-2.18824 3.48269,-2.942 c 6.35443,-5.36791 14.94537,-8.7764 27.73344,-11.00334 7.22312,-1.25785 20.84711,-0.70371 23.98485,0.97555 3.22496,1.72595 4.71143,6.43279 3.10023,9.81679 -1.5001,3.15064 -10.32947,8.38324 -18.22866,10.80295 -7.04358,2.15761 -19.14753,2.72575 -25.10718,1.17849 z M 422.42321,611.6365 c -8.5728,-3.18727 -12.21136,-5.66683 -18.85609,-12.84977 -6.35165,-6.86611 -10.54207,-14.55145 -10.55735,-19.36242 -0.0116,-3.65814 3.52248,-7.42431 6.96682,-7.42431 4.92179,0 16.30742,7.94959 24.76795,17.2933 6.89261,7.61213 11.25546,15.80827 11.25546,21.14477 0,3.4586 -0.10878,3.56042 -3.75,3.50983 -2.0625,-0.0287 -6.48456,-1.06879 -9.82679,-2.3114 z m 84.79106,-1.84513 c 0.85617,-7.59597 4.57235,-13.65968 14.27424,-23.29137 8.87316,-8.80897 17.54768,-14.5 22.10153,-14.5 1.13373,0 3.03977,1.0415 4.23565,2.31445 9.53926,10.15408 -14.7416,37.27324 -35.26909,39.39186 l -5.85168,0.60395 z M 373.25362,590.53968 c -10.27032,-3.20837 -21.37711,-13.30513 -26.36778,-23.96994 -3.84576,-8.2182 -4.19499,-14.09123 -0.99214,-16.68475 2.98193,-2.41462 5.10284,-2.37592 10.01155,0.18264 12.81405,6.67906 28.81858,30.55246 26.60273,39.68237 -0.63288,2.60763 -2.83373,2.79543 -9.25436,0.78968 z m 188.31295,-0.32995 c -1.59026,-5.01045 3.33958,-16.92444 11.55824,-27.93293 C 577.50229,556.41339 589.44813,548 593.39589,548 c 3.68098,0 8.29212,6.25705 6.84536,9.28875 -0.58038,1.21619 -1.79343,4.18618 -2.69566,6.59999 -4.81158,12.87277 -19.22683,25.4477 -31.69865,27.65186 -3.0786,0.54409 -3.75171,0.3348 -4.28037,-1.33087 z m -262.40045,-3.83952 c -2.93363,-0.79643 -5.85863,-1.8852 -6.5,-2.41948 -0.64136,-0.53429 -4.5718,-3.15427 -8.73429,-5.82219 -11.61927,-7.44728 -14.51249,-12.72278 -10.01851,-18.26776 1.6,-1.97419 2.78723,-2.34615 7.25,-2.27146 5.87073,0.0983 21.24337,3.97348 23.13889,5.83299 0.65878,0.64627 3.89779,2.70624 7.19779,4.57771 3.3,1.87147 8.36825,5.63278 11.26278,8.35847 5.10599,4.80815 5.21026,5.0148 3.5,6.93667 -4.21975,4.74183 -16.02314,6.08133 -27.09666,3.07505 z M 622.5,586.79056 c -3.65769,-1.28207 -6.5,-3.64734 -6.5,-5.40909 0,-1.64273 10.44861,-10.40099 16.75427,-14.04381 2.61015,-1.5079 4.97073,-3.03412 5.24573,-3.39159 1.8917,-2.45906 22.63503,-7.40478 27.01879,-6.44194 6.72049,1.47607 7.86653,8.40329 2.39262,14.46225 -4.38462,4.85325 -16.8541,12.49367 -23.71582,14.53138 -5.7472,1.70673 -16.7289,1.85844 -21.19559,0.2928 z M 323.21983,559.91893 c -12.51757,-6.91223 -21.32712,-21.57876 -21.40825,-35.64138 -0.11396,-19.75247 17.72948,-9.38686 27.34499,15.88525 2.26156,5.94397 3.49479,18.13971 2.1793,21.55178 -0.84919,2.20259 -0.8931,2.19287 -8.11604,-1.79565 z m 288.19478,0.47757 c -2.21613,-11.81295 4.36536,-29.25386 15.6458,-41.46132 5.1194,-5.54011 8.5652,-6.33095 12.93959,-2.96976 2.24107,1.722 2.4862,2.58937 2.36674,8.37456 -0.11046,5.34945 -0.82929,7.88504 -4.20145,14.8201 -6.01692,12.37415 -12.59616,19.22326 -22.37094,23.28854 l -3.70564,1.54116 z M 447.30144,559.93389 C 404.55858,555.79657 363.24924,537.52249 332.90227,509.32695 300.27787,479.01545 282.62176,446.37333 274.84918,402 c -1.73721,-9.91762 -1.72549,-42.18254 0.0189,-52 4.91481,-27.66101 13.39366,-49.81805 27.13564,-70.91122 25.15184,-38.60665 63.93665,-66.80571 109.99631,-79.97439 97.18071,-27.78445 201.65974,22.82598 236.59226,114.60706 3.32335,8.7317 6.84829,22.01718 9.0636,34.16061 2.16145,11.84817 2.49307,43.05337 0.5698,53.61794 -6.28708,34.53508 -16.0465,57.43642 -35.46824,83.22929 -27.52386,36.55282 -70.1195,62.87463 -116.75742,72.14981 -19.25595,3.82955 -39.70178,4.89359 -58.69856,3.05479 z m 48.52067,-11.46984 c 10.65769,-1.62174 26.98048,-5.89898 28.59526,-7.49313 0.5532,-0.54614 -0.85265,-2.80419 -3.54152,-5.68829 -5.44999,-5.8457 -10.13959,-12.58476 -12.21636,-17.55516 C 507.8029,515.67736 506.6815,514 506.16749,514 c -0.51401,0 -12.08863,-1.58295 -25.72137,-3.51766 -24.85062,-3.52672 -33.52652,-5.17374 -40.90795,-7.76589 -3.88681,-1.36494 -4.15189,-1.30073 -14,3.391 -14.98371,7.13837 -25.56931,10.72716 -35.56771,12.05836 -4.93375,0.65688 -8.97046,1.57614 -8.97046,2.04278 0,0.46664 1.35087,3.52451 3.00194,6.79525 3.54024,7.01317 4.51888,7.61154 22.30311,13.6367 14.1187,4.7833 28.04711,7.91397 41.46321,9.31963 11.49761,1.20465 35.14302,0.46847 48.05385,-1.49612 z M 551.03305,530.75 c 21.50194,-10.77558 40.88402,-25.717 55.69686,-42.93603 7.98177,-9.27834 18.65837,-24.31126 19.78318,-27.85523 C 627.40215,457.15759 619.68096,436 617.76966,436 c -0.50012,0 -2.79039,1.29221 -5.08948,2.87157 -14.46431,9.93625 -35.58828,19.14694 -47.48736,20.70593 -6.0495,0.79259 -3.6836,-1.53898 -33.613,33.12525 C 521.85263,503.96879 515,512.7473 515,513.94221 c 0,2.56938 6.44542,11.91799 12.56915,18.23062 6.26495,6.4582 7.94059,6.35659 23.4639,-1.42283 z M 388.78964,510.96715 c 9.7791,-1.2262 22.84054,-5.60591 33.21036,-11.13597 11.91941,-6.35644 10.95159,-3.47744 10.31243,-30.67657 -0.403,-17.14947 -0.93971,-24.47963 -1.95164,-26.65461 -0.76768,-1.65 -3.57725,-4.42582 -6.24349,-6.16849 -14.06903,-9.19559 -37.40609,-30.67936 -50.05674,-46.08151 -2.82341,-3.4375 -5.61781,-6.25 -6.20978,-6.25 -2.56194,0 -44.50504,13.3708 -45.9701,14.65454 -3.78141,3.31342 -5.83836,26.77538 -3.99571,45.57596 0.63234,6.45177 1.5396,12.75177 2.01615,14 0.81133,2.12513 44.86869,44.62632 52.76649,50.9027 4.045,3.21456 4.60416,3.27817 16.12203,1.83395 z M 311.27785,449.25 c -0.79209,-6.87357 -0.85569,-24.5513 -0.16281,-45.25 l 0.38496,-11.5 -6.77342,-17 c -3.72539,-9.35 -8.07726,-20.375 -9.67084,-24.5 -2.81013,-7.2741 -4.99154,-9.4642 -7.21349,-7.24225 -1.68008,1.68008 -3.80639,19.41363 -3.80599,31.74225 7.9e-4,24.77481 5.52072,49.74159 15.75426,71.25689 3.94859,8.30163 4.85102,9.24311 8.85977,9.24311 h 3.40541 z m 262.36028,1.18809 c 10.27433,-2.97025 23.93243,-9.88355 35.16529,-17.79955 9.21639,-6.49497 7.93391,-3.36015 18.26189,-44.63854 7.09837,-28.37046 7.1094,-27.72767 -0.74929,-43.64572 -7.52573,-15.24364 -22.52261,-31.67446 -36.7123,-40.22258 l -5.59131,-3.3683 -15.2562,6.97957 c -8.39092,3.83876 -20.07231,8.8829 -25.95865,11.20919 -9.65931,3.81737 -10.80054,4.53753 -11.70883,7.38873 -1.25226,3.93096 -8.04568,41.33471 -11.71248,64.48749 -2.4301,15.34406 -2.58015,17.59245 -1.31031,19.63436 0.78873,1.26829 10.24753,11.35802 21.01954,22.42162 22.31807,22.9222 20.0204,21.75492 34.55265,17.55373 z M 451.5,427.9245 c 8.8,-3.33757 25,-9.45011 36,-13.58344 11,-4.13332 20.52879,-8.03847 21.17509,-8.6781 1.41677,-1.40216 5.50279,-22.57384 8.3302,-43.16296 1.13294,-8.25 3.27023,-20.35884 4.74953,-26.90853 2.61528,-11.57924 2.6373,-11.93871 0.79656,-13 -1.04119,-0.60031 -14.03552,-10.20397 -28.87629,-21.34147 -15.08783,-11.32291 -27.9072,-20.24943 -29.07915,-20.24871 -10.05811,0.006 -64.90523,18.91355 -75.56447,26.04918 -2.61463,1.75032 -4.07751,8.56982 -8.56973,39.94953 -2.23878,15.63862 -3.62246,24.13713 -4.98144,30.59575 -0.60553,2.8778 5.28775,10.57478 17.80359,23.25253 15.6477,15.85014 37.12263,33.16126 41.12115,33.14812 0.60223,-0.002 8.29496,-2.73433 17.09496,-6.0719 z m 191.43779,-81.50643 c 1.82403,-2.07746 2.93971,-4.28255 2.65627,-5.25 -0.26878,-0.91744 -1.22204,-4.5667 -2.11835,-8.10946 C 634.83374,298.90023 611.41263,263.8486 582,241.05509 c -6.7757,-5.25087 -10.11674,-6.15265 -13.5349,-3.65323 -1.85021,1.35291 -1.73836,1.78069 3.20325,12.25 5.98139,12.67221 7.89696,17.7059 12.75067,33.50602 l 3.58123,11.65787 8.74988,5.8156 c 15.9116,10.57563 29.76111,26.51283 37.09439,42.68602 1.72564,3.80583 3.65819,6.68263 4.48917,6.68263 0.80252,0 2.87436,-1.61187 4.6041,-3.58193 z M 299.88696,325.01999 c 3.9333,-5.42715 12.77561,-17.39205 19.64957,-26.58867 6.87396,-9.19663 12.67684,-17.66843 12.89528,-18.82623 2.00431,-10.62304 3.20105,-14.51955 6.64966,-21.65084 2.18828,-4.52508 3.72664,-8.47947 3.41858,-8.78753 -1.75034,-1.75035 -24.70332,24.5338 -32.98962,37.77741 -5.26683,8.41773 -12.79421,24.58178 -16.68829,35.83591 -5.80845,16.78677 -3.9134,17.38761 7.06482,2.23995 z m 90.88302,-26.38634 c 16.25954,-8.13227 42.79307,-17.83889 60.58081,-22.16196 5.41794,-1.31676 10.46358,-2.90267 11.21255,-3.52426 0.74896,-0.62158 2.77041,-4.78292 4.4921,-9.2474 1.72169,-4.46449 5.78854,-13.71612 9.03745,-20.55917 C 479.3418,236.29781 482,229.92141 482,228.97108 c 0,-1.9748 -7.48534,-8.00551 -17,-13.69635 -17.39924,-10.40672 -27.49602,-12.23426 -44,-7.9641 -12.85931,3.32715 -27.40395,8.7777 -39.76408,14.90142 -8.51504,4.21871 -11.41211,6.29535 -17.00126,12.1866 -11.03409,11.63052 -20.81846,27.91183 -23.82393,39.64336 -0.84421,3.29524 -1.28705,6.7723 -0.98411,7.72679 0.51041,1.60816 38.28153,20.92211 41.34336,21.14058 0.69849,0.0498 5.19849,-1.87424 10,-4.27573 z M 564.5,229.92805 c 0,-2.22297 -22.36217,-12.89029 -38,-18.12696 -19.2922,-6.46041 -32.50216,-8.87106 -52.25,-9.53494 -10.03596,-0.33739 -16.25,-0.18115 -16.25,0.40856 0,0.52518 1.6875,1.75456 3.75,2.73197 7.0898,3.35982 15.68004,9.00194 20.8923,13.72218 6.11368,5.53659 6.19743,5.55367 30.8577,6.29453 15.97709,0.47999 35.18422,3.3047 43.57378,6.4082 2.99802,1.10904 7.42622,-0.026 7.42622,-1.90354 z m -310,311.1765 c -20.48343,-10.25445 -31.85393,-26.83089 -22.01603,-32.09597 3.2587,-1.74401 9.51192,-0.0988 19.84467,5.22122 9.6599,4.97355 13.03736,7.84495 21.37661,18.17365 l 6.40399,7.93176 -2.04942,2.04941 c -1.56991,1.56991 -3.62992,2.12844 -8.80461,2.38716 -6.2188,0.31092 -7.39046,0.0197 -14.75521,-3.66723 z m 412.25,2.32348 c -1.5125,-0.82055 -2.75,-1.85982 -2.75,-2.30949 0,-1.2401 4.96234,-8.27062 9.96169,-14.11345 9.13731,-10.67895 30.83199,-21.32661 36.86952,-18.09542 3.45061,1.84671 4.23693,6.21972 2.01467,11.20441 -3.50768,7.86801 -11.72291,14.80004 -25.84117,21.80484 -7.0421,3.49395 -15.4424,4.11983 -20.25471,1.50911 z m -386.00204,-20.3754 c -6.61462,-6.04539 -11.34162,-14.62222 -13.38584,-24.28771 -2.52054,-11.91765 -0.20366,-23.01363 5.08234,-24.34034 5.83663,-1.4649 10.44885,4.25439 15.78624,19.57542 3.66797,10.52897 2.79027,34 -1.27143,34 -0.43895,0 -3.23404,-2.22632 -6.21131,-4.94737 z M 654.00711,525.25 C 651.83203,520.6976 651.5512,506.44296 653.49,499.00236 657.20534,484.74391 663.85591,474 668.96667,474 c 4.31814,0 8.03745,6.96466 8.01039,15 -0.0192,5.69493 -2.64056,16.40244 -5.30085,21.65226 -4.04846,7.98927 -12.35173,17.10708 -15.76569,17.3123 -0.32422,0.0195 -1.18075,-1.20206 -1.90341,-2.71456 z M 229.82366,496.50739 c -3.3861,-1.24498 -12.1758,-6.6155 -15.88561,-9.70613 -4.46005,-3.71567 -13.87262,-20.23044 -13.91609,-24.4164 -0.0329,-3.16811 3.72649,-7.38486 6.58386,-7.38486 3.84077,0 12.49362,4.86359 16.70659,9.39044 10.09648,10.84868 15.57898,18.56649 18.04455,25.40163 2.19106,6.07413 2.32873,7.11456 1.00847,7.6212 -2.53191,0.97158 -8.63421,0.53082 -12.54177,-0.90588 z M 701.25,497.39703 C 699.89236,496.78479 699.49263,492 700.79911,492 c 0.43951,0 1.40413,-1.6875 2.14358,-3.75 3.45391,-9.63362 14.50921,-22.92238 24.46235,-29.40435 7.00903,-4.56463 10.6427,-4.88882 14.25934,-1.27218 3.77726,3.77726 2.70408,7.80963 -5.1395,19.3113 -6.58072,9.64983 -11.21212,13.96673 -19.40248,18.08496 -4.28362,2.15386 -13.39049,3.54654 -15.8724,2.4273 z M 249.76297,482.75 c -9.65772,-12.68492 -12.41217,-32.09935 -6.4132,-45.20282 2.69296,-5.8822 5.68782,-7.6678 9.46771,-5.64486 7.69329,4.11732 11.79756,28.51736 7.25297,43.11914 C 258.33777,480.58857 254.82526,486 252.94437,486 c -0.38884,0 -1.82047,-1.4625 -3.1814,-3.25 z m 437.81142,1 c -6.86505,-10.4955 -7.38323,-32.61408 -1.08851,-46.46279 3.9713,-8.73705 9.6439,-8.21956 14.51776,1.32442 2.19862,4.30533 2.49389,6.14072 2.47567,15.38837 -0.0192,9.76077 -0.2454,10.95776 -3.21244,17.00192 C 696.77613,478.11293 691.3437,486 689.93654,486 c -0.48974,0 -1.5527,-1.0125 -2.36215,-2.25 z m 20.49648,-16.25 c 0,-0.55 0.64311,-2.125 1.42913,-3.5 0.78602,-1.375 1.42913,-2.05 1.42913,-1.5 0,0.55 -0.64311,2.125 -1.42913,3.5 -0.78602,1.375 -1.42913,2.05 -1.42913,1.5 z M 224.07895,443.41667 c 0.048,-1.16495 0.28494,-1.4019 0.60416,-0.60417 0.28887,0.72187 0.25335,1.58438 -0.0789,1.91667 -0.3323,0.33229 -0.56864,-0.25834 -0.52522,-1.3125 z m 494,1.15433 c -0.14294,-1.68199 2.3054,-7.571 3.14762,-7.571 0.45363,0 0.19998,1.2375 -0.56368,2.75 -0.76367,1.5125 -1.6397,3.425 -1.94674,4.25 -0.30704,0.825 -0.59378,1.08195 -0.6372,0.571 z m -516.07538,-9.35825 c -10.53978,-5.20189 -17.32027,-14.36865 -23.03131,-31.13677 -3.01253,-8.84502 -3.04183,-9.10914 -1.27775,-11.51663 2.74894,-3.75155 6.765,-5.14488 9.54959,-3.31314 13.17772,8.66847 24.72299,27.65018 26.46037,43.50379 l 0.57534,5.25 -3.38991,-0.0372 c -1.86444,-0.0205 -5.86329,-1.25798 -8.88633,-2.75 z M 729,435.2299 c 0,-4.47443 3.90373,-17.2705 7.08463,-23.22278 C 741.33507,402.18222 754.89528,388 759.03885,388 c 1.01729,0 3.09975,1.07531 4.62768,2.38958 2.35189,2.02302 2.74799,3.08028 2.58209,6.89211 -0.18527,4.25705 -3.7484,15.63867 -5.23382,16.71831 -0.37836,0.275 -1.87154,2.53906 -3.31818,5.03123 -4.47223,7.70449 -9.4489,12.68888 -15.87577,15.90043 C 738.44369,436.61925 734.17743,438 732.34028,438 729.35713,438 729,437.70383 729,435.2299 Z m -503.43888,-4.49627 c -4.53775,-6.92549 -6.80513,-22.70576 -4.68375,-32.59744 1.38407,-6.45368 5.60836,-15.30443 8.68322,-18.19311 2.89392,-2.7187 7.77347,-1.88906 10.14097,1.72419 2.13773,3.26259 2.99362,20.86399 1.38033,28.38651 -1.49052,6.95002 -5.29672,14.98237 -9.21331,19.44312 -3.61544,4.11775 -4.32817,4.2575 -6.30746,1.23673 z m 486.25536,-0.46774 c -5.97158,-6.38166 -9.8465,-19.75161 -9.76004,-33.67585 0.0665,-10.71595 1.45441,-15.46905 5.11493,-17.51735 2.24218,-1.25464 3.06461,-1.28436 5.11887,-0.18495 2.89077,1.54709 9.39556,12.80724 10.72656,18.56827 1.30056,5.62926 1.2075,15.7657 -0.19601,21.35117 -1.253,4.98648 -5.68905,13.31557 -7.39464,13.8841 -0.56183,0.18728 -2.18618,-0.90414 -3.60967,-2.42539 z m -494.7885,-5.6923 C 215.7757,421.27983 215.76438,421 216.88342,421 c 0.89522,0 2.26242,5.17337 1.55625,5.88869 -0.21104,0.21378 -0.8463,-0.82802 -1.41169,-2.3151 z M 194.28789,374.53768 C 185.4045,370.64022 174.96516,353.80577 172.90156,340.05015 170.76636,325.81723 172.95147,319 179.64872,319 c 2.77001,0 3.87219,0.72395 6.47042,4.25 2.63284,3.57302 7.55219,13.15323 10.91168,21.25 2.52367,6.08235 3.35095,11.05447 3.40693,20.47648 0.0691,11.632 -0.2608,12.14493 -6.14986,9.5612 z m 549.07444,-0.0359 c -0.99117,-2.58294 0.31705,-19.44167 1.98005,-25.51658 2.68754,-9.81755 5.74241,-16.93176 9.99402,-23.27415 3.65448,-5.45161 4.59783,-6.2476 7.71471,-6.50961 5.16118,-0.43385 7.26389,2.31194 7.73846,10.10511 0.75973,12.47601 -4.86011,29.53353 -12.42343,37.70803 -6.23061,6.73409 -13.83637,10.52951 -15.00381,7.4872 z m -532.02268,-4.20901 c -2.41621,-5.74892 -2.79363,-14.80507 -0.98208,-23.56481 1.99486,-9.64612 4.06332,-13.71395 10.66714,-20.97801 5.92757,-6.5202 8.66147,-7.23571 11.90271,-3.11514 4.26687,5.42445 2.19802,20.29806 -4.84958,34.86514 -4.15192,8.58184 -7.36928,12.56511 -12.14298,15.03368 l -3.00113,1.55195 z m 512.75707,-0.3106 c -8.30469,-6.56448 -14.81443,-21.417 -15.77071,-35.98222 -0.50613,-7.70883 -0.35436,-8.75597 1.63054,-11.25 1.23951,-1.55746 3.17836,-2.75 4.47097,-2.75 2.78988,0 11.42398,8.82842 14.46631,14.79189 2.81146,5.51091 5.07315,15.40663 5.09139,22.27661 0.015,5.65859 -2.31375,15.39847 -3.91891,16.39052 -0.48494,0.29971 -3.17126,-1.26485 -5.96959,-3.4768 z M 209.63029,311.75 c -2.61406,-9.75431 2.55223,-26.95918 10.96778,-36.52512 C 225.48437,269.67063 233.15035,264 235.7727,264 c 0.75963,0 2.73208,1.35093 4.38322,3.00208 2.54998,2.54997 2.89909,3.4912 2.31818,6.25 -0.99147,4.70867 -4.5461,15.16197 -5.35489,15.74742 -0.38029,0.27527 -2.83964,3.97996 -5.46523,8.23264 -4.69735,7.60832 -10.44778,13.22252 -15.95103,15.57314 -4.03468,1.72335 -5.39119,1.48762 -6.07266,-1.05528 z m 515.76865,-0.34092 c -2.69442,-1.42501 -5.74035,-3.33751 -6.76874,-4.25 -4.07277,-3.61379 -13.20329,-19.84141 -15.56245,-27.65908 -0.6639,-2.2 -1.6823,-4.9761 -2.26311,-6.16911 -0.84482,-1.73531 -0.6257,-2.77345 1.09565,-5.19086 1.18342,-1.66196 3.01439,-3.29556 4.06882,-3.63023 4.9292,-1.56446 17.8672,9.34633 22.34329,18.84241 4.58986,9.73747 6.77295,21.99591 5.05731,28.39779 -0.77234,2.88198 -1.97406,2.83058 -7.97077,-0.34092 z m -531.17311,-0.0685 C 185.15602,306.87011 177.97484,289.81184 178.02445,272.85566 178.06686,258.35811 180.53368,252 186.11603,252 c 3.50779,0 6.33781,2.95633 8.53804,8.91911 0.92968,2.51949 2.05045,5.06208 2.49061,5.6502 3.58976,4.79647 5.59853,33.08716 2.99502,42.18069 -1.37152,4.79045 -1.41351,4.80885 -5.91387,2.59062 z m 549.84069,-2.1875 c -2.9548,-11.26282 -2.08235,-26.82211 2.36096,-42.10547 3.70214,-12.734 8.10423,-17.37541 13.72351,-14.46957 4.21286,2.17855 5.0859,4.80144 5.61496,16.86906 0.56848,12.96671 -0.93209,20.33373 -5.95429,29.23258 -3.68978,6.53794 -9.46435,12.73469 -12.64127,13.56547 -1.80251,0.47137 -2.29868,-0.0229 -3.10387,-3.09207 z M 209.03297,262.73126 c -1.89461,-5.32527 -2.40641,-16.15199 -1.08384,-22.92804 1.66727,-8.54209 6.65331,-20.90735 9.89472,-24.53866 1.46088,-1.6366 4.08025,-4.61565 5.82082,-6.6201 3.7519,-4.32073 6.46382,-4.60688 10.01406,-1.05664 2.37349,2.3735 2.53741,3.07013 1.97916,8.41121 -0.66987,6.40899 -5.74558,23.22052 -8.90689,29.50097 -3.26497,6.48641 -9.76926,15.27655 -13.29227,17.96368 l -3.27615,2.49884 z m 519.89056,-0.0745 c -3.72295,-3.678 -8.29587,-9.67378 -11.26656,-14.77215 -3.52998,-6.05825 -9.36524,-24.18382 -10.22116,-31.74913 -0.62766,-5.54778 -0.48899,-6.17317 1.89808,-8.56024 3.77794,-3.77794 6.35677,-3.27759 11.70493,2.27103 11.06663,11.48143 17.8371,36.61263 13.62478,50.57362 -1.46201,4.84558 -2.63628,5.30318 -5.74007,2.23687 z"
         id="path901" />
    </g>
  </g>
</svg>
