<?xml version="1.0" encoding="UTF-8" standalone="no"?>
<!-- Created with Inkscape (http://www.inkscape.org/) -->

<svg
   version="1.1"
   id="svg1898"
   width="1140.9999"
   height="1125.9999"
   viewBox="0 0 1140.9999 1125.9999"
   xmlns="http://www.w3.org/2000/svg"
   xmlns:svg="http://www.w3.org/2000/svg">
  <defs
     id="defs1902" />
  <g
     id="g1904"
     transform="translate(-1.5899204,-0.97493851)">
    <path
       style="fill:#010101"
       d="M 1.5899204,563.97494 V 0.9749385 H 572.08992 1142.5899 V 563.97494 1126.9749 H 572.08992 1.5899204 Z M 568.01702,960.85632 c -10.90652,-11.54236 -41.40884,-31.36833 -71.18539,-46.26923 -17.65297,-8.83397 -27.41449,-12.63387 -66.07847,-25.72257 -17.96478,-6.08151 -36.40219,-12.60333 -40.97202,-14.49292 -36.69486,-15.17308 -62.61909,-36.19258 -77.63242,-62.94476 -2.71766,-4.84258 -5.11147,-8.29388 -5.31959,-7.66954 -0.48212,1.44638 5.10968,21.27875 8.91662,31.62445 12.9381,35.1604 23.74534,48.22674 51.65957,62.45827 16.52299,8.42392 27.96782,11.99898 61.1846,19.11242 15.675,3.35683 34.8972,7.66938 42.71599,9.58345 25.87468,6.33421 57.48059,18.19477 86.19078,32.34433 6.82372,3.363 12.64091,5.8804 12.92709,5.5942 0.28619,-0.2862 -0.79686,-1.9143 -2.40676,-3.6181 z m 27.67223,-3.7802 c 41.07699,-19.67834 63.96486,-27.06257 122.85074,-39.63483 14.54753,-3.10592 30.29391,-6.76104 34.99195,-8.12248 21.07321,-6.10678 42.36144,-17.25964 54.91202,-28.76828 10.59963,-9.71966 22.69774,-34.15523 30.66406,-61.93475 4.32759,-15.09084 4.26038,-18.45159 -0.2018,-10.09085 -12.69221,23.78119 -36.83572,46.10351 -63.66553,58.8631 -13.17047,6.26355 -23.09815,10.00967 -61.21668,23.09955 -37.98119,13.04273 -45.41158,15.95419 -62.21685,24.37857 -25.05282,12.55881 -48.42756,27.28498 -63.96724,40.29957 -7.56023,6.3318 -9.64156,8.8092 -7.40067,8.8092 0.46713,0 7.32963,-3.1044 15.25,-6.8988 z m -24.09933,-29.97287 c 0,-1.70948 -10.3415,-16.73837 -15.8715,-23.06544 -21.60654,-24.72078 -51.58933,-43.71162 -99.6285,-63.10383 -56.82291,-22.938 -79.83574,-37.63985 -102.46314,-65.45904 -30.19761,-37.12636 -56.80757,-105.82895 -67.00653,-173 -1.16914,-7.7 -2.35415,-15.07759 -2.63337,-16.39464 -2.22914,-10.51469 -7.38183,26.42574 -7.37809,52.89464 0.006,43.78309 10.95956,93.23358 28.88155,130.3896 11.76843,24.3984 33.28119,45.33524 62.23266,60.56662 13.16436,6.92578 26.64687,12.16485 64.39687,25.02351 46.4024,15.80591 57.21362,20.25783 79.97005,32.93061 15.94081,8.87725 41.56727,25.95818 51,33.99329 6.9754,5.94188 8.5,6.879 8.5,5.22468 z m 16,-6.22874 c 21.53474,-17.98194 62.36606,-41.52299 90.5,-52.17721 6.6,-2.4994 25.40555,-9.09521 41.79012,-14.65735 16.38456,-5.56215 34.2769,-11.90052 39.76073,-14.08527 34.20494,-13.6272 60.44765,-32.84947 75.24143,-55.11287 15.27634,-22.98962 28.5989,-62.14545 34.99564,-102.85432 1.77966,-11.32578 2.1267,-17.96295 2.14442,-41.01255 0.0125,-16.28897 -0.48565,-31.3729 -1.222,-37 -2.43632,-18.61813 -4.42668,-24.55656 -5.61403,-16.75 -5.93529,39.02333 -11.32712,62.90826 -20.37319,90.25 -20.21429,61.09763 -45.38718,102.01294 -77.17906,125.44466 -17.12937,12.62494 -34.89538,21.86385 -69.04406,35.9052 -37.24228,15.31338 -49.559,21.27083 -66,31.92338 -16.71572,10.83055 -34.84154,27.38379 -45.24852,41.32281 -5.6817,7.61001 -10.3876,15.90502 -9.0218,15.90257 0.42367,-7.6e-4 4.59532,-3.19533 9.27032,-7.09905 z m 18.12907,-74.22443 c 17.80401,-10.62867 34.50843,-20.54764 37.12093,-22.04215 l 4.75,-2.7173 V 665.4014 c 0,-148.09694 -0.0938,-156.52777 -1.75,-157.20784 -2.37842,-0.97667 -143.03235,-0.91903 -146.53832,0.06 l -2.78831,0.77867 0.28831,155.94381 c 0.28557,154.45813 0.30737,155.9618 2.28832,157.83248 1.1,1.03877 16.85,10.66437 35,21.39021 38.3625,22.67055 36.67216,21.70651 38.12907,21.74575 0.62099,0.0167 15.69599,-8.66578 33.5,-19.29445 z m -89.4576,-157.59589 c -3.20569,-1.05128 -6.66419,-2.66767 -7.68555,-3.592 -1.80661,-1.63495 -1.79696,-1.84764 0.3553,-7.83391 2.52449,-7.02159 2.65116,-7.05937 12.15878,-3.62659 8.20497,2.96245 19.20062,2.54258 22.83524,-0.87197 3.10104,-2.91327 3.86237,-6.74607 2.15276,-10.83774 -1.33857,-3.20366 -4.33099,-4.91891 -23.29115,-13.35041 -2.91674,-1.29706 -7.05091,-4.25438 -9.18705,-6.57183 -11.83485,-12.8393 -4.79305,-34.47232 12.81289,-39.36229 6.12576,-1.7014 18.31228,-1.23797 25.32197,0.96296 9.65559,3.03169 9.56326,2.91745 7.54164,9.33076 -2.29906,7.29346 -3.61666,8.29957 -7.86447,6.0052 -2.46983,-1.33403 -5.58772,-1.799 -12.15625,-1.81283 -8.44995,-0.0178 -8.93954,0.10351 -11.25,2.78716 -5.36416,6.23062 -2.03323,11.59222 10.40817,16.75345 12.47252,5.17414 16.59552,7.55559 20.43094,11.80094 4.66694,5.16575 6.06997,10.03947 5.59543,19.43691 -0.3263,6.46161 -0.82678,8.21176 -3.40007,11.88992 -1.84156,2.63225 -5.14766,5.47801 -8.48375,7.3025 -5.1394,2.81071 -6.21383,3.00478 -17.9663,3.24533 -10.10604,0.20685 -13.61626,-0.11022 -18.32853,-1.65556 z m 68.55986,0.96702 c -2.89776,-0.4578 -5.93526,-1.38559 -6.75,-2.06176 -2.23716,-1.85668 -2.22,-80.10299 0.0181,-82.34105 2.01035,-2.01035 10.54138,-2.9723 21.77465,-2.45528 23.70206,1.0909 35.69122,15.63993 35.69122,43.31182 0,27.55913 -12.7638,42.61666 -37.24286,43.9356 -4.52232,0.24366 -10.59331,0.0685 -13.49108,-0.38933 z m 21.42268,-16.97636 c 2.85028,-1.2942 4.94409,-3.24885 6.67143,-6.22804 7.71648,-13.30883 5.16965,-39.92137 -4.37604,-45.72645 -4.17217,-2.53724 -9.41783,-3.47028 -11.93539,-2.12292 -1.94176,1.0392 -2.01401,2.03917 -2.01401,27.87602 0,14.73898 0.3,27.09815 0.66667,27.46481 1.26114,1.26115 6.84022,0.61962 10.98734,-1.26342 z m 132.28284,102.97297 c 10.51348,-7.13956 23.04193,-18.10234 30.70597,-26.86865 22.2543,-25.455 39.72957,-64.68177 48.85915,-109.67423 4.34137,-21.39517 10.0347,-76.39995 9.31534,-89.99789 l -0.31731,-5.99788 -11,-3.31989 c -29.06107,-8.77087 -84.2054,-21.87894 -85.71054,-20.3738 -1.11447,1.11447 -0.60062,257.20868 0.51956,258.93946 1.11586,1.7241 1.08805,1.73397 7.62783,-2.70712 z M 412.7009,749.46283 c 0.78648,-37.31454 0.78582,-152.26022 -10e-4,-195.48789 -0.60921,-33.46453 -0.61217,-33.50033 -2.79397,-33.81092 -4.1562,-0.59165 -68.27448,15.20662 -87.31589,21.51399 l -5.5,1.82185 0.231,14.48754 c 0.42545,26.68228 4.36677,63.37836 9.29863,86.57585 6.45547,30.36391 20.305,64.73496 35.4233,87.91169 9.70001,14.87035 26.17378,31.44092 44.04707,44.30589 6.00059,4.31915 5.93878,4.57458 6.61098,-27.318 z m 587.889,-99.97012 c 0,-0.81523 -4.45611,-21.17773 -9.90248,-45.25 -5.44638,-24.07227 -10.4253,-46.34091 -11.06428,-49.48586 -1.30097,-6.40321 -1.88063,-4.41693 14.96343,-51.27372 l 7.18663,-19.9918 -3.17915,-2.65408 c -3.16224,-2.63996 -34.5524,-20.80092 -53.35738,-30.87022 -7.98733,-4.2769 -10.03337,-5.01242 -10.80447,-3.88405 -0.57813,0.84601 -0.73695,12.17797 -0.40491,28.89196 0.30047,15.125 0.83183,46.5125 1.1808,69.75 l 0.6345,42.25 -4.37633,-0.0209 c -2.40699,-0.0115 -9.77634,-0.67247 -16.37634,-1.4688 -19.65923,-2.37202 -20.55088,-1.93093 -9.25,4.57596 37.53482,21.61201 71.31206,43.19275 85.75,54.78683 8.03095,6.44909 8.99998,6.9492 8.99998,4.64471 z m -838.31036,-11.8561 c 17.80775,-12.79757 39.56551,-26.65229 63.81038,-40.63261 17.84631,-10.29072 18.91849,-11.02064 17.79238,-12.11277 -0.43581,-0.42266 -8.32944,-0.0363 -17.54141,0.85859 -11.45099,1.1124 -17.07363,1.30246 -17.77521,0.60088 -0.70159,-0.70159 -0.57064,-22.98656 0.41396,-70.45098 0.93848,-45.24078 1.09953,-69.77313 0.46233,-70.42478 -1.12089,-1.1463 -4.65225,0.67921 -38.24135,19.76863 -12.58911,7.15467 -24.21234,14.19062 -25.82938,15.63545 l -2.94009,2.62697 4.47099,12.98447 c 2.45904,7.14147 7.72817,21.82635 11.70919,32.63307 l 7.2382,19.6486 -11.14455,49.3514 c -6.1295,27.14328 -11.13791,49.96205 -11.1298,50.7084 0.0224,2.06577 1.39379,1.24496 18.70436,-11.19532 z m 71.65153,-78.03399 c 44.49038,-27.90738 116.09806,-52.52979 186.15885,-64.01102 55.16163,-9.03963 100.32346,-12.1253 165.82897,-11.33025 42.95664,0.52137 62.2241,1.59561 94.67103,5.27829 91.12881,10.343 173.75726,35.52821 229,69.79937 6.24403,3.87363 10.86881,6.14958 11.4099,5.61503 0.54652,-0.53991 0.46676,-36.15893 -0.19972,-89.189 l -1.10963,-88.2901 -6.30028,-5.82309 c -13.27663,-12.27105 -43.11449,-30.20479 -70.0944,-42.12952 -51.28407,-22.66681 -112.9122,-37.28096 -185.70587,-44.03727 -60.52142,-5.61726 -146.63666,-3.90619 -202.5,4.02359 -88.83205,12.60966 -167.23587,40.6866 -219.60797,78.6431 -5.37875,3.89823 -10.04732,7.78548 -10.37458,8.63832 -0.32727,0.85285 -1.00591,29.70584 -1.50809,64.11775 -0.50218,34.41192 -1.16897,74.07038 -1.48174,88.12992 -0.50769,22.82073 -0.31969,26.9372 1.2302,26.9372 0.23347,0 4.99597,-2.86754 10.58333,-6.37232 z m 40.19777,-62.87768 c -0.35625,-5.0875 -0.51075,-33.325 -0.34332,-62.75 l 0.3044,-53.5 11.5,-4.68152 c 10.10183,-4.11235 14.50086,-5.43428 15.20264,-4.56848 0.11145,0.1375 0.44895,21.70055 0.75,47.91788 0.30105,26.21734 0.90431,48.0243 1.34059,48.4599 0.43628,0.43561 7.29326,-1.35741 15.23774,-3.98448 7.94447,-2.62707 14.90002,-4.49497 15.45676,-4.15088 1.53932,0.95135 1.32215,24.0176 -0.23773,25.25132 -0.6875,0.54374 -7.325,3.12101 -14.75,5.72726 -7.425,2.60625 -19.83483,7.16647 -27.5774,10.13382 -7.74257,2.96735 -14.56307,5.39518 -15.15668,5.39518 -0.64789,0 -1.33816,-3.69714 -1.727,-9.25 z m 565.73559,-0.28904 c -18.71999,-5.042 -34.12025,-20.47458 -37.26923,-37.34745 -1.25634,-6.73171 -1.28936,-24.11595 -0.0495,-26.07614 0.78486,-1.24087 2.71565,-0.86331 12.73469,2.49027 6.49526,2.1741 12.37207,4.34988 13.05957,4.83508 0.85681,0.60468 1.25,4.00477 1.25,10.80938 0,11.3236 1.24925,14.86008 5.93488,16.80093 5.08155,2.10484 6.06512,0.98969 6.06512,-6.87655 0,-3.83145 -0.47832,-8.22436 -1.06294,-9.76202 -0.58461,-1.53765 -6.81915,-8.65445 -13.85452,-15.8151 -20.10047,-20.45841 -24.27441,-28.13818 -24.46791,-45.01936 -0.14005,-12.21735 0.43858,-14.44626 5.0856,-19.58995 6.45469,-7.14457 12.48741,-8.83788 22.89079,-6.42517 18.87421,4.37722 35.07561,20.44108 38.3207,37.99538 1.3356,7.22496 1.43212,22.1892 0.14824,22.98269 -0.9397,0.58076 -23.44813,-7.9142 -25.80996,-9.741 -0.82636,-0.63917 -1.25519,-3.89079 -1.26531,-9.59439 -0.008,-4.74516 -0.34592,-9.12269 -0.75,-9.72786 -2.18685,-3.27511 -9.58304,-4.54026 -10.6277,-1.81791 -2.44454,6.37036 0.33985,11.22852 16.32832,28.48936 19.45455,21.00276 23.09649,28.71875 23.04083,48.81534 -0.041,14.81401 -2.153,19.85564 -9.99657,23.86351 -5.11539,2.61383 -11.75112,2.85325 -19.70506,0.71096 z M 354.21492,474.84994 c -0.34375,-1.71875 -0.625,-29.82792 -0.625,-62.46482 0,-55.97938 0.10129,-59.39402 1.78867,-60.29708 3.4438,-1.84307 54.70985,-14.20195 57.69596,-13.90896 l 3.01537,0.29586 0.28318,11.91682 c 0.15575,6.55425 -0.12448,12.32448 -0.62273,12.82273 -0.49825,0.49825 -7.73853,2.43729 -16.08951,4.30898 -8.35098,1.87168 -15.60825,3.66551 -16.12727,3.98628 -1.56434,0.96682 -1.1748,18.02848 0.44225,19.37051 1.05726,0.87745 3.56323,0.66523 10.56739,-0.89492 5.04981,-1.12483 9.60114,-1.78576 10.11408,-1.46875 1.37568,0.85022 1.18635,23.80461 -0.20785,25.19881 -0.62725,0.62725 -5.40158,2.16771 -10.60963,3.42325 -7.9295,1.91162 -9.61395,2.66358 -10.35954,4.62465 -1.41482,3.72124 -1.12642,20.91421 0.35963,21.43959 0.6875,0.24306 7.775,-0.99812 15.75,-2.75817 9.85549,-2.17507 14.90039,-2.88375 15.75,-2.21249 0.86746,0.68536 1.25,4.43201 1.25,12.24271 0,7.78934 -0.38491,11.57156 -1.25,12.28277 -1.0424,0.85698 -57.42386,15.21723 -59.74617,15.21723 -0.41461,0 -1.03508,-1.40625 -1.37883,-3.125 z m 381.5806,-9.23544 c -10.61191,-2.38059 -19.72788,-4.76184 -20.2577,-5.29166 -0.60261,-0.60261 -0.86681,-24.15638 -0.7056,-62.9056 l 0.2577,-61.9423 4.13552,0.17796 c 6.97467,0.30015 34.35791,7.13045 40.94567,10.21324 8.04788,3.76605 16.88124,12.58333 21.22134,21.18271 l 3.30254,6.54356 -0.30254,40.94127 c -0.2649,35.84823 -0.50841,41.31446 -1.95752,43.94126 -3.81683,6.9188 -10.35121,10.40313 -20.72903,11.05337 -5.23059,0.32773 -10.65625,-0.49183 -25.91038,-3.91381 z m 19.78181,-25.12438 c 1.86061,-2.24191 1.06005,-66.54814 -0.85723,-68.85832 -1.61625,-1.94746 -8.81743,-4.30291 -9.88663,-3.23383 -1.27187,1.27172 -1.60566,68.03185 -0.35186,70.3746 1.64402,3.07187 9.02368,4.21419 11.09572,1.71755 z m -71.48741,15.82782 c -1.1,-0.24523 -4.37768,-0.90778 -7.28373,-1.47234 l -5.28372,-1.02646 -9.08413,-18.1721 c -10.6269,-21.25832 -13.85781,-26.99508 -14.71991,-26.13652 -0.34568,0.34426 -0.85351,9.70209 -1.12851,20.79517 l -0.5,20.16925 -11,-0.31499 c -6.05,-0.17324 -12.575,-0.6415 -14.5,-1.04058 l -3.5,-0.7256 -0.31728,-27.45941 c -0.17451,-15.10268 -0.01,-43.32192 0.36628,-62.70942 l 0.68356,-35.25 h 7.32796 c 6.19145,0 7.71594,0.34895 9.82963,2.25 2.49484,2.24384 9.4368,14.47057 18.72695,32.98335 2.69562,5.37166 5.31325,9.76665 5.81696,9.76665 0.51289,0 1.05883,-8.76343 1.24088,-19.91872 0.17878,-10.9553 0.68432,-20.27706 1.12341,-20.71503 0.83138,-0.82922 25.83591,1.98066 27.66057,3.10836 1.18171,0.73034 1.32335,119.29449 0.14755,123.52014 -0.7111,2.55561 -2.08851,3.13253 -5.60647,2.34825 z m -228.5,-1.27813 c -8.80186,-2.6871 -15.30063,-8.71997 -18.1985,-16.89382 -0.99072,-2.79446 -1.28111,-13.10307 -1.21612,-43.17105 l 0.0854,-39.5 3.24287,-6.3765 c 6.58057,-12.93948 16.01757,-19.80044 30.38852,-22.09328 15.44788,-2.46466 27.81801,2.3532 33.17256,12.91989 2.72291,5.3734 4.50628,14.57951 4.51773,23.32133 0.009,7.10064 -0.15558,7.19132 -15.83955,8.71205 -8.40966,0.81542 -11.70017,0.8072 -12.71101,-0.0317 -0.89729,-0.74468 -1.46279,-3.92365 -1.6529,-9.29186 l -0.289,-8.15993 -4.68687,-0.30221 c -4.03135,-0.25995 -4.85995,0.0198 -5.92428,2 -0.90862,1.69049 -1.25753,11.25948 -1.31313,36.01269 -0.0677,30.16439 0.0992,33.88585 1.58755,35.37756 2.16956,2.17452 8.37285,1.14725 9.86077,-1.63295 0.58938,-1.10127 0.92305,-6.22653 0.76215,-11.70697 l -0.28619,-9.74812 h -4.5 -4.5 l -0.28213,-12.41787 c -0.15517,-6.82983 0.12833,-12.82833 0.63001,-13.33001 1.12281,-1.12281 35.73175,-5.12741 37.71974,-4.36455 1.17066,0.44923 1.42623,3.79857 1.3987,18.33105 -0.045,23.78477 -1.29462,37.04441 -3.98869,42.32523 -4.58362,8.98463 -14.65498,16.33473 -26.67093,19.46448 -6.01024,1.56547 -17.05673,1.85401 -21.3067,0.55654 z m 75.4646,-6.93361 c -0.25553,-0.25552 -0.4646,-28.23449 -0.4646,-62.17548 0,-52.96546 0.20751,-61.88311 1.4643,-62.92615 1.06834,-0.88665 9.65371,-1.25776 31.75,-1.37244 l 30.2857,-0.15719 v 13 13 l -16.5,0.5 -16.5,0.5 v 10 10 l 11,0.5 11,0.5 v 13 13 l -11,0.5 -11,0.5 v 12 12 l 16.5,0.5 16.5,0.5 0.28003,12.76986 c 0.21249,9.6901 -0.0287,12.8704 -1,13.18673 -1.81044,0.58961 -61.75153,1.23857 -62.31543,0.67467 z M 334.86032,301.38546 c 53.51206,-17.35991 108.67541,-27.95894 166.41681,-31.97514 27.33226,-1.9011 29.31279,-2.15828 29.31279,-3.80638 0,-0.7042 -1.1883,-2.37131 -2.64066,-3.70469 -5.75445,-5.28298 -14.87989,-17.85102 -18.64169,-25.67431 -4.7022,-9.77899 -2.71949,-9.32646 -27.21765,-6.21221 -33.63152,4.2753 -65.23469,10.53907 -99,19.62189 -20.84314,5.60677 -58.39343,18.34458 -61.20301,20.76129 -2.33163,2.00558 -2.71771,3.53294 -4.52464,17.89997 -1.79425,14.26616 -1.86118,18.67906 -0.28334,18.67906 0.30348,0 8.3051,-2.51526 17.78139,-5.58948 z m 493.4256,3.93931 c 0.77287,-2.01406 -3.37364,-30.87898 -4.82554,-33.59189 -0.5719,-1.06859 -3.457,-3.01189 -6.41135,-4.31844 -11.75706,-5.19953 -61.71265,-19.68472 -92.45911,-26.80957 -25.43744,-5.8946 -78.58926,-13.4553 -81.9493,-11.65707 -0.97354,0.52103 -2.7848,3.32778 -4.02501,6.23723 -3.26786,7.66616 -10.06672,17.4791 -16.45908,23.75575 -3.06164,3.00621 -5.56661,6.00796 -5.56661,6.67054 0,1.55711 3.14692,2.12196 16,2.87187 58.09093,3.38929 116.61961,14.03271 170.50469,31.0062 9.89742,3.11763 18.67031,6.06359 19.49531,6.54658 2.39562,1.40248 5.01017,1.07603 5.696,-0.7112 z m -255.696,-48.6587 c 0,-1.26988 0.5625,-2.99986 1.25,-3.84439 2.45942,-3.0212 15.4572,-10.77088 19.64193,-11.71112 5.75273,-1.29256 5.9549,-1.75495 1.56864,-3.58765 -4.31668,-1.80362 -5.93303,-3.63341 -7.55087,-8.54797 -0.6337,-1.925 -2.07576,-5.69033 -3.20458,-8.3674 l -2.05242,-4.8674 -10.57635,0.67486 c -10.28427,0.65621 -10.67147,0.60422 -14.02063,-1.88261 -2.93996,-2.18299 -6.05572,-3.33323 -6.05572,-2.23559 0,0.17702 0.71419,2.41791 1.5871,4.97974 1.46613,4.30285 1.45596,5.05957 -0.13334,9.92814 -1.19492,3.66041 -3.09669,6.56846 -6.22594,9.52026 l -4.50549,4.25 3.38883,0.0354 c 1.86386,0.0195 4.29924,0.58198 5.41194,1.25 5.16552,3.10109 17.54035,12.9646 18.48872,14.73664 1.4299,2.6718 2.98818,2.49922 2.98818,-0.33095 z m 50.72552,-8.29543 c 5.50651,-5.82305 11.1987,-16.28465 13.43911,-24.69959 1.50946,-5.66946 0.53927,-6.88244 -5.16463,-6.4571 -3.3063,0.24655 -3.74905,0.73678 -8,8.85807 -2.475,4.7284 -5.35368,9.87607 -6.39706,11.43927 -1.20968,1.81234 -2.07363,5.30997 -2.38437,9.65291 -0.43876,6.13228 -0.30328,6.81074 1.36,6.81074 1.01601,0 4.23214,-2.52194 7.14695,-5.6043 z m -94.72552,-1.50949 c 0,-2.89515 -1.11086,-5.8376 -4.033,-10.68257 -4.73683,-7.85376 -6.967,-14.69925 -6.967,-21.38514 0,-5.56734 -1.36202,-6.28163 -2.92831,-1.53572 -0.59588,1.80553 -1.94149,4.01748 -2.99025,4.91546 -1.63184,1.39722 -1.77244,2.23085 -0.97491,5.78036 1.97099,8.77226 14.45326,29.02954 16.94043,27.49238 0.52417,-0.32396 0.95304,-2.3871 0.95304,-4.58477 z m -141,-18.36984 c 35.23339,-8.85391 66.2024,-15.11423 98.73153,-19.95836 8.92734,-1.32943 16.63355,-2.66561 17.1249,-2.96928 1.13161,-0.69937 3.62569,-16.43995 2.74451,-17.32112 -1.44331,-1.44332 -44.8399,5.34221 -68.60094,10.7265 -42.83408,9.70628 -93.80647,24.73512 -100.50494,29.63316 -2.12328,1.55258 -3.93983,11.13189 -2.45113,12.92566 0.73982,0.89143 4.73819,0.0963 16.21897,-3.22534 8.38041,-2.42463 24.9121,-6.83968 36.7371,-9.81122 z m 422.20876,9.98363 c -0.69732,-9.57719 -0.94035,-9.81163 -15.50164,-14.95402 -28.45049,-10.04745 -63.0804,-19.57165 -94.20712,-25.90963 -18.45978,-3.75875 -46.30622,-8.35834 -53.5,-8.83696 l -4.5,-0.29939 0.24737,6.35836 c 0.40007,10.28333 1.3485,11.41934 10.76184,12.89034 4.39493,0.68678 12.49079,1.95553 17.99079,2.81943 14.98023,2.353 48.85301,9.08562 67.5,13.41643 17.23886,4.00376 56.60362,14.78939 63.5,17.39849 6.46277,2.44505 8.05339,1.85017 7.70876,-2.88305 z m -217.1037,-38.09508 c 2.88574,-2.61156 8.99121,-4.3143 15.63723,-4.36103 5.70138,-0.0401 6.4739,0.21606 8.91529,2.95611 1.47016,1.65 2.93613,3.00036 3.25772,3.00081 0.32158,4.4e-4 0.5847,-5.51206 0.5847,-12.25 0,-6.73795 0.37286,-13.43482 0.82857,-14.88194 0.80039,-2.54163 0.47721,-2.80915 -9.5,-7.86375 -5.68071,-2.87794 -11.79107,-6.6197 -13.57857,-8.31503 l -3.25,-3.08242 v 3.0757 c 0,2.42981 -0.93979,3.8458 -4.4752,6.74279 -9.16684,7.51154 -9.13766,7.34775 -3.46025,19.42649 3.93522,8.37222 4.27426,10.54874 2.39849,15.39735 -0.84417,2.18206 0.32622,2.25069 2.64202,0.15492 z m -46.37673,-11.90492 c 3.78833,-6.8717 9.15565,-12.09597 13.38053,-13.02391 3.43348,-0.75412 2.88894,-2.47609 -0.78301,-2.47609 -3.04619,0 -8.56907,-5.61267 -11.04506,-11.22463 -0.91613,-2.07645 -1.99844,-3.77537 -2.40514,-3.77537 -0.40671,0 -1.68213,1.32385 -2.83428,2.9419 -1.15215,1.61804 -4.45527,4.29241 -7.34027,5.94304 -2.885,1.65063 -6.24273,4.0627 -7.46162,5.36015 -3.56315,3.79279 -5.87653,20.90337 -2.98948,22.11119 0.6875,0.28762 5.05713,0.43762 9.71028,0.33333 l 8.46029,-0.18961 z"
       id="path2388" />
  </g>
</svg>
